<svg width="183" height="241" viewBox="0 0 183 241" fill="none" xmlns="http://www.w3.org/2000/svg">
<path d="M72.799 18.7709V104.44H181.736V18.7709C181.736 13.7969 179.761 9.02649 176.244 5.50878C172.728 1.99107 167.958 0.0141738 162.984 0.0128791H91.5635C89.0996 0.0122378 86.6599 0.496931 84.3834 1.4393C82.1069 2.38167 80.0383 3.76324 78.2959 5.50512C76.5534 7.24701 75.1711 9.31508 74.2279 11.5912C73.2848 13.8674 72.7992 16.307 72.799 18.7709Z" fill="url(#paint0_linear_54_3)"/>
<path d="M72.799 104.44V158.727C72.7982 159.525 72.8482 160.323 72.9487 161.116C72.9894 161.43 73.0365 161.739 73.0935 162.048C73.1195 162.201 73.1488 162.354 73.1814 162.507C73.2432 162.813 73.3132 163.116 73.3897 163.415C74.4191 167.366 76.7058 170.875 79.9047 173.412C83.1036 175.949 87.041 177.376 91.1224 177.478H162.984C165.447 177.478 167.887 176.993 170.163 176.051C172.439 175.108 174.507 173.726 176.248 171.985C177.99 170.243 179.372 168.175 180.315 165.899C181.257 163.623 181.742 161.184 181.742 158.72V104.44H72.799Z" fill="#EFEFEF"/>
<path d="M162.984 177.478H163.228C173.618 177.478 182.035 169.08 182.035 158.72V104.44H181.74V158.727C181.739 163.7 179.762 168.47 176.245 171.986C172.728 175.503 167.958 177.478 162.984 177.478Z" fill="#EFEFEF"/>
<path opacity="0.48" d="M123.481 123.017H166.765C169.753 123.017 172.176 125.44 172.176 128.428C172.176 131.416 169.753 133.838 166.765 133.838H123.481C120.492 133.838 118.07 131.416 118.07 128.428C118.07 125.44 120.492 123.017 123.481 123.017Z" fill="#D8D8DB"/>
<path opacity="0.48" d="M141.516 147.642H166.765C169.753 147.642 172.176 150.064 172.176 153.053C172.176 156.041 169.753 158.463 166.765 158.463H141.516C138.528 158.463 136.105 156.041 136.105 153.053C136.105 150.064 138.528 147.642 141.516 147.642Z" fill="#D8D8DB"/>
<path opacity="0.69" d="M99.3524 147.642H124.601C127.589 147.642 130.012 150.064 130.012 153.053C130.012 156.041 127.589 158.463 124.601 158.463H99.3524C96.3639 158.463 93.9412 156.041 93.9412 153.053C93.9412 150.064 96.3639 147.642 99.3524 147.642Z" fill="#D8D8DB"/>
<path opacity="0.69" d="M88.5315 123.017H106.565C109.554 123.017 111.977 125.44 111.977 128.428C111.977 131.416 109.554 133.838 106.565 133.838H88.5315C85.543 133.838 83.1203 131.416 83.1203 128.428C83.1203 125.44 85.543 123.017 88.5315 123.017Z" fill="#D8D8DB"/>
<path opacity="0.09" d="M96.4214 38.8796C87.8305 38.8796 80.8662 31.9153 80.8662 23.3244C80.8662 14.7336 87.8305 7.76929 96.4214 7.76929C105.012 7.76929 111.977 14.7336 111.977 23.3244C111.977 31.9153 105.012 38.8796 96.4214 38.8796Z" fill="white"/>
<path opacity="0.09" d="M162.398 5.24347C165.556 5.24379 168.643 6.18052 171.269 7.93518C173.894 9.68984 175.94 12.1836 177.149 15.1012C178.357 18.0188 178.673 21.2292 178.057 24.3264C177.44 27.4235 175.919 30.2684 173.686 32.5013C171.453 34.7341 168.608 36.2547 165.511 36.8706C162.414 37.4866 159.203 37.1703 156.286 35.9617C153.368 34.7532 150.875 32.7067 149.12 30.081C147.366 27.4552 146.43 24.3683 146.43 21.2104C146.43 16.9756 148.113 12.9143 151.107 9.91998C154.102 6.92565 158.163 5.24347 162.398 5.24347ZM162.398 30.0458C164.146 30.0458 165.854 29.5276 167.307 28.5568C168.76 27.5859 169.892 26.206 170.561 24.5916C171.23 22.9771 171.405 21.2006 171.064 19.4867C170.723 17.7728 169.881 16.1984 168.646 14.9628C167.41 13.7271 165.836 12.8857 164.122 12.5447C162.408 12.2038 160.632 12.3788 159.017 13.0475C157.403 13.7163 156.023 14.8487 155.052 16.3017C154.081 17.7547 153.563 19.4629 153.563 21.2104C153.563 23.5537 154.494 25.801 156.151 27.458C157.808 29.1149 160.055 30.0458 162.398 30.0458Z" fill="white"/>
<path opacity="0.14" d="M72.8005 80.5504V90.0271C74.8195 89.2949 77.0045 89.15 79.1025 89.6092C81.2004 90.0684 83.1251 91.1128 84.6536 92.6215C86.182 94.1302 87.2514 96.0412 87.7379 98.1329C88.2243 100.225 88.1079 102.412 87.402 104.44H96.8575C97.4635 101.155 97.259 97.772 96.2615 94.5842C95.2641 91.3964 93.5039 88.5001 91.1337 86.1465C88.7635 83.793 85.8549 82.0533 82.6601 81.0784C79.4653 80.1035 76.081 79.9228 72.8005 80.5521V80.5504Z" fill="#EFEFEF"/>
<path opacity="0.14" d="M99.3524 72.7957C94.8125 72.7957 91.1321 69.1153 91.1321 64.5754C91.1321 60.0355 94.8125 56.3552 99.3524 56.3552C103.892 56.3552 107.573 60.0355 107.573 64.5754C107.573 69.1153 103.892 72.7957 99.3524 72.7957Z" fill="white"/>
<path opacity="0.09" d="M170.373 100.811C167.162 100.811 164.559 98.2079 164.559 94.9974C164.559 91.7868 167.162 89.1841 170.373 89.1841C173.583 89.1841 176.186 91.7868 176.186 94.9974C176.186 98.2079 173.583 100.811 170.373 100.811Z" fill="white"/>
<path opacity="0.09" d="M157.749 88.5819C148.929 88.5819 141.78 81.4326 141.78 72.6134C141.78 63.7942 148.929 56.6449 157.749 56.6449C166.568 56.6449 173.717 63.7942 173.717 72.6134C173.717 81.4326 166.568 88.5819 157.749 88.5819Z" fill="white"/>
<path style="mix-blend-mode:multiply" opacity="0.22" d="M73.2367 19.941V39.3549H121.36C123.824 39.3546 126.263 39.8397 128.539 40.7823C130.815 41.7249 132.883 43.1066 134.625 44.8485C136.367 46.5903 137.748 48.6583 138.691 50.9342C139.634 53.2101 140.119 55.6494 140.118 58.1128V105.472H159.282V37.3173C159.282 32.3426 157.306 27.5717 153.788 24.054C150.271 20.5362 145.5 18.5597 140.525 18.5593H73.2904C73.2546 19.0182 73.2367 19.4804 73.2367 19.941Z" fill="url(#paint1_linear_54_3)"/>
<path style="mix-blend-mode:multiply" opacity="0.41" d="M140.118 105.47V173.746C140.118 174.373 140.242 174.993 140.481 175.571C140.721 176.15 141.072 176.675 141.515 177.118C141.958 177.561 142.483 177.912 143.062 178.152C143.641 178.391 144.261 178.515 144.887 178.515H153.932C154.743 178.514 155.541 178.307 156.25 177.913C156.959 177.519 157.556 176.951 157.985 176.262C158.823 174.918 159.286 173.821 159.286 171.39V105.47H140.118Z" fill="url(#paint2_linear_54_3)"/>
<path d="M37.065 50.4703V136.141H146.002V50.4719C146.002 48.0086 145.517 45.5692 144.574 43.2933C143.632 41.0174 142.25 38.9495 140.508 37.2076C138.766 35.4657 136.698 34.084 134.422 33.1414C132.146 32.1988 129.707 31.7137 127.244 31.714H55.823C50.8485 31.7144 46.0778 33.6906 42.5601 37.208C39.0425 40.7253 37.0659 45.4958 37.065 50.4703Z" fill="url(#paint3_linear_54_3)"/>
<path d="M37.065 136.141V190.428C37.0642 191.227 37.1142 192.024 37.2147 192.817C37.2554 193.131 37.3026 193.44 37.3596 193.749C37.3856 193.902 37.4149 194.055 37.4474 194.208C37.5093 194.514 37.5793 194.817 37.6558 195.116C38.685 199.067 40.9716 202.576 44.1701 205.112C47.3687 207.649 51.3057 209.077 55.3868 209.179H127.244C129.707 209.179 132.146 208.694 134.422 207.752C136.698 206.809 138.766 205.427 140.508 203.686C142.25 201.944 143.632 199.876 144.574 197.6C145.517 195.324 146.002 192.885 146.002 190.421V136.141H37.065Z" fill="#EFEFEF"/>
<path d="M127.244 209.184H127.488C137.877 209.184 146.295 200.786 146.295 190.426V136.141H146V190.428C146 195.402 144.024 200.173 140.506 203.691C136.989 207.208 132.218 209.184 127.244 209.184Z" fill="#EFEFEF"/>
<path opacity="0.48" d="M87.7471 154.717H131.031C134.019 154.717 136.442 157.139 136.442 160.127C136.442 163.115 134.019 165.538 131.031 165.538H87.7471C84.7585 165.538 82.3358 163.115 82.3358 160.127C82.3358 157.139 84.7585 154.717 87.7471 154.717Z" fill="#D8D8DB"/>
<path opacity="0.48" d="M105.782 179.342H131.031C134.019 179.342 136.442 181.764 136.442 184.752C136.442 187.74 134.019 190.162 131.031 190.162H105.782C102.794 190.162 100.371 187.74 100.371 184.752C100.371 181.764 102.794 179.342 105.782 179.342Z" fill="#D8D8DB"/>
<path opacity="0.69" d="M63.6185 179.342H88.8668C91.8554 179.342 94.2781 181.764 94.2781 184.752C94.2781 187.74 91.8554 190.162 88.8668 190.162H63.6185C60.63 190.162 58.2073 187.74 58.2073 184.752C58.2073 181.764 60.63 179.342 63.6185 179.342Z" fill="#D8D8DB"/>
<path opacity="0.69" d="M52.7976 154.717H70.8314C73.82 154.717 76.2427 157.139 76.2427 160.127C76.2427 163.115 73.82 165.538 70.8314 165.538H52.7976C49.8091 165.538 47.3864 163.115 47.3864 160.127C47.3864 157.139 49.8091 154.717 52.7976 154.717Z" fill="#D8D8DB"/>
<path opacity="0.14" d="M60.6875 70.5807C52.0966 70.5807 45.1323 63.6164 45.1323 55.0256C45.1323 46.4347 52.0966 39.4704 60.6875 39.4704C69.2784 39.4704 76.2427 46.4347 76.2427 55.0256C76.2427 63.6164 69.2784 70.5807 60.6875 70.5807Z" fill="white"/>
<path opacity="0.14" d="M126.664 36.9446C129.822 36.9449 132.909 37.8816 135.535 39.6363C138.16 41.391 140.206 43.8848 141.415 46.8024C142.623 49.72 142.939 52.9303 142.323 56.0275C141.706 59.1247 140.186 61.9695 137.952 64.2024C135.719 66.4352 132.874 67.9558 129.777 68.5717C126.68 69.1877 123.47 68.8714 120.552 67.6628C117.635 66.4543 115.141 64.4078 113.387 61.7821C111.632 59.1564 110.696 56.0694 110.696 52.9115C110.696 48.6767 112.379 44.6154 115.373 41.6211C118.368 38.6267 122.43 36.9446 126.664 36.9446ZM126.664 61.7469C128.412 61.7469 130.12 61.2287 131.573 60.2579C133.026 59.287 134.158 57.9071 134.827 56.2927C135.496 54.6782 135.671 52.9017 135.33 51.1878C134.989 49.4739 134.148 47.8996 132.912 46.6639C131.676 45.4282 130.102 44.5868 128.388 44.2458C126.674 43.9049 124.898 44.0799 123.283 44.7486C121.669 45.4174 120.289 46.5498 119.318 48.0028C118.347 49.4558 117.829 51.164 117.829 52.9115C117.829 55.2548 118.76 57.5021 120.417 59.1591C122.074 60.8161 124.321 61.7469 126.664 61.7469Z" fill="white"/>
<path opacity="0.14" d="M37.0667 112.252V121.728C39.0855 120.996 41.2704 120.852 43.368 121.311C45.4656 121.771 47.3901 122.815 48.9183 124.324C50.4465 125.832 51.5158 127.743 52.0022 129.835C52.4886 131.926 52.3722 134.113 51.6665 136.141H61.122C61.7281 132.856 61.5235 129.473 60.526 126.285C59.5286 123.097 57.7685 120.201 55.3983 117.848C53.028 115.494 50.1194 113.754 46.9246 112.78C43.7299 111.805 40.3455 111.624 37.065 112.253L37.0667 112.252Z" fill="#EFEFEF"/>
<path opacity="0.14" d="M63.6185 104.495C59.0786 104.495 55.3982 100.815 55.3982 96.2749C55.3982 91.735 59.0786 88.0547 63.6185 88.0547C68.1584 88.0547 71.8387 91.735 71.8387 96.2749C71.8387 100.815 68.1584 104.495 63.6185 104.495Z" fill="white"/>
<path opacity="0.14" d="M134.639 132.512C131.428 132.512 128.826 129.909 128.826 126.698C128.826 123.488 131.428 120.885 134.639 120.885C137.849 120.885 140.452 123.488 140.452 126.698C140.452 129.909 137.849 132.512 134.639 132.512Z" fill="white"/>
<path opacity="0.14" d="M122.015 120.281C113.195 120.281 106.046 113.132 106.046 104.313C106.046 95.4937 113.195 88.3443 122.015 88.3443C130.834 88.3443 137.983 95.4937 137.983 104.313C137.983 113.132 130.834 120.281 122.015 120.281Z" fill="white"/>
<path style="mix-blend-mode:multiply" opacity="0.31" d="M36.7704 50.7746V70.1885H84.8957C89.8702 70.1885 94.641 72.1646 98.1585 75.6821C101.676 79.1996 103.652 83.9704 103.652 88.9449V136.304H122.815V68.1444C122.815 63.1695 120.839 58.3983 117.321 54.8805C113.803 51.3627 109.032 49.3864 104.057 49.3864H36.8225C36.7883 49.8454 36.7704 50.3076 36.7704 50.7746Z" fill="url(#paint4_linear_54_3)"/>
<path style="mix-blend-mode:multiply" opacity="0.41" d="M103.652 136.304V204.58C103.652 205.845 104.155 207.058 105.049 207.952C105.943 208.846 107.156 209.348 108.421 209.348H117.466C118.277 209.348 119.075 209.141 119.784 208.747C120.493 208.353 121.09 207.785 121.518 207.096C122.356 205.752 122.82 204.655 122.82 202.224V136.304H103.652Z" fill="url(#paint5_linear_54_3)"/>
<path d="M0.598771 81.2959V166.965H109.535V81.2959C109.536 78.8325 109.051 76.3932 108.108 74.1172C107.165 71.8413 105.784 69.7734 104.042 68.0315C102.3 66.2896 100.232 64.9079 97.956 63.9653C95.6801 63.0227 93.2408 62.5377 90.7774 62.5379H19.3568C14.382 62.5383 9.61103 64.5147 6.09332 68.0324C2.57561 71.5502 0.599203 76.3211 0.598771 81.2959Z" fill="url(#paint6_linear_54_3)"/>
<path d="M0.598781 166.968V221.257C0.597998 222.055 0.647995 222.853 0.748494 223.646C0.78918 223.96 0.836399 224.269 0.893359 224.578C0.919398 224.731 0.948699 224.884 0.981248 225.037C1.04309 225.343 1.11308 225.646 1.18957 225.945C2.21886 229.896 4.50533 233.404 7.70389 235.941C10.9025 238.478 14.8395 239.905 18.9206 240.008H90.7774C95.7513 240.008 100.522 238.033 104.039 234.517C107.557 231 109.534 226.23 109.535 221.257V166.968H0.598781Z" fill="#EFEFEF"/>
<path d="M90.7775 240.013H91.0216C101.411 240.013 109.828 231.615 109.828 221.255V166.968H109.534V221.257C109.534 226.231 107.558 231.002 104.04 234.519C100.523 238.037 95.752 240.013 90.7775 240.013Z" fill="#EFEFEF"/>
<path opacity="0.48" d="M51.2825 185.545H94.5661C97.5547 185.545 99.9774 187.968 99.9774 190.956C99.9774 193.944 97.5547 196.366 94.5661 196.366H51.2825C48.2939 196.366 45.8712 193.944 45.8712 190.956C45.8712 187.968 48.2939 185.545 51.2825 185.545Z" fill="#D8D8DB"/>
<path opacity="0.48" d="M69.3179 210.17H94.5661C97.5547 210.17 99.9774 212.593 99.9774 215.581C99.9774 218.569 97.5547 220.991 94.5661 220.991H69.3179C66.3293 220.991 63.9066 218.569 63.9066 215.581C63.9066 212.593 66.3293 210.17 69.3179 210.17Z" fill="#D8D8DB"/>
<path opacity="0.48" d="M27.1538 210.17H52.4021C55.3906 210.17 57.8134 212.593 57.8134 215.581C57.8134 218.569 55.3906 220.991 52.4021 220.991H27.1538C24.1653 220.991 21.7426 218.569 21.7426 215.581C21.7426 212.593 24.1653 210.17 27.1538 210.17Z" fill="#D8D8DB"/>
<path opacity="0.48" d="M16.3313 185.545H34.3651C37.3537 185.545 39.7764 187.968 39.7764 190.956C39.7764 193.944 37.3537 196.366 34.3651 196.366H16.3313C13.3428 196.366 10.9201 193.944 10.9201 190.956C10.9201 187.968 13.3428 185.545 16.3313 185.545Z" fill="#D8D8DB"/>
<path opacity="0.14" d="M24.2212 101.408C15.6303 101.408 8.66605 94.4436 8.66605 85.8527C8.66605 77.2618 15.6303 70.2975 24.2212 70.2975C32.8121 70.2975 39.7764 77.2618 39.7764 85.8527C39.7764 94.4436 32.8121 101.408 24.2212 101.408Z" fill="white"/>
<path opacity="0.14" d="M90.198 67.7717C93.3559 67.7721 96.4428 68.7088 99.0683 70.4634C101.694 72.2181 103.74 74.7119 104.948 77.6295C106.157 80.5471 106.473 83.7575 105.856 86.8546C105.24 89.9518 103.719 92.7967 101.486 95.0295C99.253 97.2624 96.408 98.7829 93.3108 99.3989C90.2136 100.015 87.0032 99.6985 84.0858 98.49C81.1683 97.2814 78.6747 95.2349 76.9203 92.6092C75.1659 89.9835 74.2295 86.8965 74.2295 83.7386C74.2299 79.5038 75.9125 75.4426 78.9072 72.4482C81.9018 69.4539 85.9632 67.7717 90.198 67.7717ZM90.198 92.5741C91.9455 92.5741 93.6538 92.0559 95.1067 91.085C96.5597 90.1142 97.6922 88.7343 98.3609 87.1198C99.0296 85.5053 99.2046 83.7288 98.8637 82.0149C98.5228 80.301 97.6813 78.7267 96.4456 77.491C95.21 76.2554 93.6357 75.4139 91.9218 75.073C90.2079 74.7321 88.4313 74.907 86.8169 75.5758C85.2024 76.2445 83.8225 77.377 82.8517 78.8299C81.8808 80.2829 81.3626 81.9912 81.3626 83.7386C81.3626 86.0819 82.2935 88.3293 83.9504 89.9862C85.6074 91.6432 87.8547 92.5741 90.198 92.5741Z" fill="white"/>
<path opacity="0.14" d="M0.600359 143.079V152.555C2.61927 151.823 4.8044 151.678 6.90232 152.137C9.00023 152.597 10.925 153.641 12.4534 155.15C13.9818 156.658 15.0513 158.569 15.5377 160.661C16.0242 162.753 15.9077 164.94 15.2018 166.968H24.6508C25.2569 163.683 25.0523 160.3 24.0549 157.112C23.0574 153.925 21.2973 151.028 18.927 148.675C16.5568 146.321 13.6482 144.582 10.4534 143.607C7.25865 142.632 3.87425 142.451 0.593843 143.08L0.600359 143.079Z" fill="#EFEFEF"/>
<path opacity="0.14" d="M27.1522 135.324C22.6123 135.324 18.9319 131.644 18.9319 127.104C18.9319 122.564 22.6123 118.883 27.1522 118.883C31.6921 118.883 35.3724 122.564 35.3724 127.104C35.3724 131.644 31.6921 135.324 27.1522 135.324Z" fill="white"/>
<path opacity="0.14" d="M98.1726 163.339C94.962 163.339 92.3593 160.736 92.3593 157.526C92.3593 154.315 94.962 151.712 98.1726 151.712C101.383 151.712 103.986 154.315 103.986 157.526C103.986 160.736 101.383 163.339 98.1726 163.339Z" fill="white"/>
<path opacity="0.14" d="M85.5484 151.11C76.7293 151.11 69.5799 143.961 69.5799 135.142C69.5799 126.322 76.7293 119.173 85.5484 119.173C94.3676 119.173 101.517 126.322 101.517 135.142C101.517 143.961 94.3676 151.11 85.5484 151.11Z" fill="white"/>
<defs>
<linearGradient id="paint0_linear_54_3" x1="167.803" y1="88.3362" x2="79.2909" y2="19.9117" gradientUnits="userSpaceOnUse">
<stop stop-color="#788D9A"/>
<stop offset="1" stop-color="#757575"/>
</linearGradient>
<linearGradient id="paint1_linear_54_3" x1="159.282" y1="62.0138" x2="73.2367" y2="62.0138" gradientUnits="userSpaceOnUse">
<stop stop-color="#735CD2"/>
<stop offset="1" stop-color="#8F6ACC" stop-opacity="0.2"/>
</linearGradient>
<linearGradient id="paint2_linear_54_3" x1="149.701" y1="229.249" x2="149.701" y2="135.706" gradientUnits="userSpaceOnUse">
<stop stop-color="#DEE1E2" stop-opacity="0"/>
<stop offset="1" stop-color="#B4BCBE"/>
</linearGradient>
<linearGradient id="paint3_linear_54_3" x1="168.558" y1="148.244" x2="34.5799" y2="44.6734" gradientUnits="userSpaceOnUse">
<stop stop-color="#FBBB3C"/>
<stop offset="1" stop-color="#E85D24"/>
</linearGradient>
<linearGradient id="paint4_linear_54_3" x1="122.815" y1="92.8426" x2="36.7704" y2="92.8426" gradientUnits="userSpaceOnUse">
<stop stop-color="#FB9835"/>
<stop offset="1" stop-color="#FBBB3C" stop-opacity="0.2"/>
</linearGradient>
<linearGradient id="paint5_linear_54_3" x1="113.235" y1="229.249" x2="113.235" y2="135.706" gradientUnits="userSpaceOnUse">
<stop stop-color="#DEE1E2" stop-opacity="0"/>
<stop offset="1" stop-color="#B4BCBE"/>
</linearGradient>
<linearGradient id="paint6_linear_54_3" x1="111.391" y1="188.991" x2="10.4807" y2="66.7497" gradientUnits="userSpaceOnUse">
<stop stop-color="#E85D24"/>
<stop offset="1" stop-color="#B51E74"/>
</linearGradient>
</defs>
</svg>
