<svg width="315" height="96" viewBox="0 0 315 96" fill="none" xmlns="http://www.w3.org/2000/svg">
<g clip-path="url(#clip0_53_112)">
<path d="M51.3017 17.8469C52.2762 16.6218 52.8609 15.0905 52.8609 13.3921C52.8609 9.46638 49.659 6.26453 45.7333 6.26453C41.8075 6.26453 38.6057 9.46638 38.6057 13.3921C38.6057 15.9815 39.9978 18.2367 42.0581 19.4896C25.8261 25.6427 18.949 47.4989 33.7611 57.1601C42.3365 60.7239 47.0419 56.3527 49.13 53.5963C47.3481 54.4037 46.2066 54.4037 44.2855 54.0696C19.6729 50.0325 37.4363 10.775 66.782 31.5731C69.3713 33.2158 71.1254 33.6056 72.8794 31.8515C74.6335 30.0975 74.188 27.3411 72.3783 25.8655C64.8609 20.2135 57.6776 17.9026 51.3017 17.8469Z" fill="white"/>
<path d="M75.2738 52.8724C76.4989 53.8469 78.0302 54.4316 79.7286 54.4316C83.6544 54.4316 86.8562 51.2297 86.8562 47.304C86.8562 43.3782 83.6544 40.1763 79.7286 40.1763C77.1393 40.1763 74.8841 41.5685 73.6312 43.6288C67.478 27.3968 45.6219 20.5197 35.9606 35.3318C32.3968 43.9072 36.768 48.6125 39.5244 50.7007C38.717 48.9188 38.717 47.7773 39.0511 45.8562C43.0882 21.2436 82.3458 39.007 61.5476 68.3527C59.9049 70.9142 59.5151 72.6961 61.2692 74.4501C63.0233 76.2042 65.7797 75.7587 67.2553 73.949C72.9073 66.4594 75.2182 59.2761 75.2738 52.8724Z" fill="white"/>
<path d="M39.6358 76.2878C38.6335 77.485 37.9931 79.0163 37.9652 80.6868C37.8539 84.6126 40.9722 87.898 44.898 87.9815C48.8237 88.0929 52.1091 84.9745 52.1926 81.0488C52.2483 78.4594 50.9397 76.1764 48.9072 74.8678C65.3063 69.1323 72.7402 47.471 58.1787 37.42C49.6868 33.6335 44.898 37.8933 42.6984 40.5662C44.5082 39.8144 45.6219 39.8423 47.5708 40.2042C72.072 44.8817 53.3063 83.6659 24.4896 62.1161C21.956 60.4177 20.2019 59.9722 18.3922 61.6706C16.5824 63.3968 16.9722 66.1532 18.7263 67.6567C26.1323 73.5592 33.2599 76.065 39.6358 76.2878Z" fill="white"/>
<path d="M16.5824 41.5128C15.3574 40.5383 13.826 39.9536 12.1277 39.9536C8.20192 39.9536 5.00006 43.1555 5.00006 47.0812C5.00006 51.007 8.20192 54.2088 12.1277 54.2088C14.717 54.2088 16.9722 52.8167 18.2251 50.7564C24.4061 66.9884 46.2344 73.8654 55.8957 59.0534C59.4595 50.478 55.0882 45.7726 52.3318 43.6845C53.1393 45.4664 53.1393 46.6079 52.8052 48.529C48.768 73.1415 9.5105 55.406 30.2808 26.0325C31.9235 23.4432 32.3133 21.6891 30.5592 19.935C28.8052 18.181 26.0488 18.6265 24.5731 20.4362C18.949 27.9536 16.6103 35.1369 16.5824 41.5128Z" fill="white"/>
<path d="M98.6334 3.87006H105.288C111.97 3.87006 117.316 8.01855 117.316 14.9513C117.316 22.5244 112.722 26.4223 105.288 26.4223H98.6334V3.87006ZM101.863 23.5824H105.26C110.828 23.5824 113.891 20.9095 113.891 15.0905C113.891 9.82829 110.299 6.70996 105.65 6.70996H101.863V23.5824Z" fill="white"/>
<path d="M119.376 3.87006H132.016V6.70996H122.606V13.3086H131.153V16.1485H122.606V23.5824H132.016V26.4223H119.376V3.87006Z" fill="white"/>
<path d="M146.494 26.4223H142.457L133.965 3.87006H137.585L144.545 23.5824H144.601L151.729 3.87006H155.125L146.494 26.4223Z" fill="white"/>
<path d="M157.019 3.87006H169.659V6.70996H160.248V13.3086H168.824V16.1485H160.248V23.5824H169.659V26.4223H157.019V3.87006Z" fill="white"/>
<path d="M173.278 3.87006H176.508V23.5824H185.947V26.4223H173.278V3.87006Z" fill="white"/>
<path d="M197.362 3.48029C204.211 3.48029 208.22 8.46404 208.22 15.1462C208.22 21.9954 204.239 26.8121 197.362 26.8121C190.485 26.8121 186.504 21.9954 186.504 15.1462C186.504 8.46404 190.513 3.48029 197.362 3.48029ZM197.362 23.9722C202.569 23.9722 204.796 19.6288 204.796 15.1462C204.796 10.5522 202.346 6.29235 197.362 6.32019C192.378 6.29235 189.928 10.5522 189.928 15.1462C189.928 19.6288 192.156 23.9722 197.362 23.9722Z" fill="white"/>
<path d="M211.283 3.87006H217.186C221.807 3.87006 225.65 5.48491 225.65 10.6357C225.65 15.6473 221.724 17.4292 217.659 17.4292H214.485V26.4501H211.255L211.283 3.87006ZM214.513 14.5615H217.715C219.719 14.5615 222.253 13.5592 222.253 10.58C222.253 7.74013 219.274 6.70996 217.269 6.70996H214.513V14.5615Z" fill="white"/>
<path d="M228.239 3.87006H233.585L240.657 22.6079L247.617 3.87006H252.935V26.4223H249.705V6.90486H249.65L242.16 26.4223H239.014L231.552 6.90486H231.469V26.4223H228.239V3.87006Z" fill="white"/>
<path d="M256.889 3.87006H269.529V6.70996H260.118V13.3086H268.694V16.1485H260.118V23.5824H269.529V26.4223H256.889V3.87006Z" fill="white"/>
<path d="M273.149 3.87006H277.548L287.487 22.0232H287.571V3.87006H290.801V26.4223H286.652L276.434 7.87934H276.378V26.4223H273.149V3.87006Z" fill="white"/>
<path d="M300.1 6.70996H293.084V3.87006H310.346V6.70996H303.33V26.4223H300.1V6.70996Z" fill="white"/>
<path d="M125.362 38.8399C123.023 37.3086 120.517 36.5568 116.23 36.5568C108.573 36.5568 103.506 42.1253 103.506 49.5313C103.506 57.3271 109.102 62.5058 116.007 62.5058C119.292 62.5058 120.128 62.1717 121.325 61.9489V51.8701H114.336V47.9721H126.058V65.2065C124.248 65.819 121.13 66.6821 115.951 66.6821C105.455 66.6821 98.4664 59.9443 98.4664 49.3921C98.4664 39.174 105.872 32.3805 115.979 32.3805C120.824 32.3805 122.968 33.1044 125.724 34.051L125.362 38.8399Z" fill="white"/>
<path d="M142.903 32.9374H147.886L161.891 66.0975H156.74L153.371 57.7448H137.139L133.77 66.0975H128.787L142.903 32.9374ZM145.241 37.42L138.643 53.8469H151.84L145.241 37.42Z" fill="white"/>
<path d="M167.654 37.1137H157.353V32.9374H182.717V37.1137H172.415V66.0975H167.654V37.1137Z" fill="white"/>
<path d="M187.701 32.9374H206.272V37.1137H192.434V46.8028H205.019V51.007H192.434V61.9211H206.272V66.0975H187.701V32.9374Z" fill="white"/>
<path d="M209.724 32.9374H214.93L222.866 61.3365H222.977L230.049 32.9374H236.787L243.97 61.3365H244.053L251.989 32.9374H257.028L246.81 66.0975H240.685L233.473 37.1137H233.362L226.095 66.0975H219.747L209.724 32.9374Z" fill="white"/>
<path d="M265.659 32.9374H270.643L284.647 66.0975H279.469L276.1 57.7448H259.84L256.471 66.0975H251.487L265.659 32.9374ZM267.97 37.42L261.371 53.8469H274.569L267.97 37.42Z" fill="white"/>
<path d="M292.527 52.232L279.552 32.9374H285.121L294.977 47.8051L304.638 32.9374H310.179L297.26 52.232V66.0975H292.527V52.232Z" fill="white"/>
<path d="M103.06 75.1183H106.095L110.689 89.3179H107.961L106.875 85.5313H102.169L101.084 89.3179H98.4664L103.06 75.1183ZM102.754 83.4989H106.318L105.845 81.8005C105.399 80.297 104.982 78.6822 104.564 77.123H104.48C104.118 78.6822 103.701 80.297 103.255 81.8005L102.754 83.4989Z" fill="white"/>
<path d="M112.22 78.6264H114.336L114.531 80.0464H114.587C115.534 79.1276 116.62 78.348 118.095 78.348C120.406 78.348 121.408 79.9072 121.408 82.6079V89.29H118.847V82.9141C118.847 81.1879 118.346 80.5476 117.204 80.5476C116.258 80.5476 115.673 80.993 114.81 81.8561V89.29H112.22V78.6264Z" fill="white"/>
<path d="M128.981 75.1183H131.571V89.3179H128.981V75.1183Z" fill="white"/>
<path d="M135.135 75.1183H139.924C142.903 75.1183 145.186 76.1485 145.186 79.3504C145.186 81.4942 144.072 82.8306 142.374 83.4153L145.743 89.3179H142.847L139.84 83.8051H137.724V89.3179H135.135V75.1183ZM139.673 81.7448C141.594 81.7448 142.652 80.9374 142.652 79.3504C142.652 77.7355 141.622 77.1787 139.673 77.1787H137.724V81.7448H139.673Z" fill="white"/>
<path d="M148.053 75.1183H156.629V77.29H150.615V80.8538H155.71V83.0255H150.615V87.1462H156.824V89.3179H148.026L148.053 75.1183Z" fill="white"/>
<path d="M162.253 81.9954L158.494 75.1183H161.362L162.893 78.2367C163.227 78.8771 163.534 79.5731 163.951 80.4362H164.035C164.369 79.5731 164.675 78.9049 164.981 78.2367L166.429 75.1183H169.186L165.427 82.1346L169.436 89.3179H166.568L164.87 86.0047C164.508 85.2529 164.146 84.5569 163.729 83.6938H163.645C163.283 84.5569 162.921 85.2808 162.587 86.0047L160.944 89.3179H158.216L162.253 81.9954Z" fill="white"/>
<path d="M174.002 75.1183H176.731L178.624 82.2181C179.07 83.833 179.376 85.2251 179.849 86.8121H179.933C180.406 85.1972 180.712 83.8051 181.158 82.2181L183.19 75.1183H185.835L181.353 89.3179H178.29L174.002 75.1183Z" fill="white"/>
<path d="M186.253 83.9722C186.253 80.4919 188.675 78.3759 191.181 78.3759C194.077 78.3759 195.636 80.4641 195.636 83.471C195.636 84 195.58 84.3898 195.497 84.7796H188.759C189.009 86.5615 190.151 87.5917 191.849 87.5917C192.768 87.5917 193.575 87.3411 194.327 86.84L195.19 88.4548C194.188 89.2065 192.879 89.5963 191.487 89.5963C188.564 89.5685 186.253 87.536 186.253 83.9722ZM193.381 82.8307C193.381 81.2715 192.629 80.3527 191.265 80.3527C190.039 80.3527 189.009 81.2158 188.787 82.8307H193.381Z" fill="white"/>
<path d="M197.974 78.6264H200.091L200.285 80.0464H200.341C201.288 79.1276 202.374 78.348 203.849 78.348C206.16 78.348 207.162 79.9072 207.162 82.6079V89.29H204.601V82.9141C204.601 81.1879 204.1 80.5476 202.958 80.5476C202.012 80.5476 201.427 80.993 200.564 81.8561V89.29H197.974V78.6264Z" fill="white"/>
<path d="M210.559 85.6984V80.6868H209.028V78.7657L210.671 78.6265L210.977 75.3132H213.093V78.6265H215.794V80.6589H213.093V85.6705C213.093 86.8956 213.594 87.5081 214.596 87.5081C214.958 87.5081 215.348 87.4524 215.71 87.2854L216.156 89.0951C215.599 89.3457 214.819 89.5406 213.928 89.5406C211.478 89.5685 210.559 88.0093 210.559 85.6984Z" fill="white"/>
<path d="M217.937 85.3086V78.6265H220.499V85.0023C220.499 86.7286 221 87.3968 222.114 87.3968C223.06 87.3968 223.645 86.9513 224.425 85.949V78.6543H226.986V89.3457H224.87L224.675 87.7866H224.62C223.673 88.9002 222.671 89.6241 221.195 89.6241C218.94 89.5685 217.937 88.0093 217.937 85.3086Z" fill="white"/>
<path d="M230.16 78.6265H232.276L232.471 80.5476H232.527C233.306 79.1555 234.448 78.3759 235.562 78.3759C236.118 78.3759 236.453 78.4594 236.787 78.5986L236.258 80.7982C235.924 80.7147 235.673 80.659 235.227 80.659C234.392 80.659 233.362 81.2158 232.722 82.8585V89.3179H230.132L230.16 78.6265Z" fill="white"/>
<path d="M237.427 83.9722C237.427 80.4919 239.849 78.3759 242.355 78.3759C245.251 78.3759 246.81 80.4641 246.81 83.471C246.81 84 246.754 84.3898 246.671 84.7796H239.933C240.183 86.5615 241.325 87.5917 243.023 87.5917C243.942 87.5917 244.75 87.3411 245.501 86.84L246.364 88.4548C245.362 89.2065 244.053 89.5963 242.661 89.5963C239.71 89.5685 237.427 87.536 237.427 83.9722ZM244.555 82.8307C244.555 81.2715 243.803 80.3527 242.439 80.3527C241.214 80.3527 240.183 81.2158 239.961 82.8307H244.555Z" fill="white"/>
</g>
<defs>
<clipPath id="clip0_53_112">
<rect width="314.339" height="96" fill="white" transform="translate(0.266846)"/>
</clipPath>
</defs>
</svg>
