<svg width="96" height="96" viewBox="0 0 96 96" fill="none" xmlns="http://www.w3.org/2000/svg">
<path fill-rule="evenodd" clip-rule="evenodd" d="M57.3686 55.2722C57.3686 57.0855 55.8851 58.569 54.0718 58.569H41.9321C40.1188 58.569 38.6353 57.0855 38.6353 55.2722V53.5228C38.6353 44.4493 29.2686 41.9004 29.2686 29.7066C29.2686 18.5186 38.6353 12.9246 48.0021 12.9246C57.3688 12.9246 66.7356 18.5186 66.7356 29.7066C66.7356 41.9004 57.3688 44.4493 57.3688 53.5228V55.2722H57.3686Z" fill="#FDC72E"/>
<path fill-rule="evenodd" clip-rule="evenodd" d="M42.9917 55.7462H53.0121V60.4022C53.0121 61.7899 51.8764 62.9254 50.4889 62.9254H45.5149C44.1272 62.9254 42.9917 61.7899 42.9917 60.4022V55.7462Z" fill="#E85D24"/>
<path fill-rule="evenodd" clip-rule="evenodd" d="M46.0151 55.7462H53.0121V60.4022C53.0121 61.7899 51.8764 62.9254 50.4889 62.9254H48.5383C47.1506 62.9254 46.015 61.7899 46.015 60.4022V55.7462H46.0151Z" fill="#E85D24"/>
<path fill-rule="evenodd" clip-rule="evenodd" d="M57.3686 55.2722C57.3686 57.0855 55.8851 58.5692 54.0718 58.5692H41.9321C40.1188 58.5692 38.6353 57.0855 38.6353 55.2722V53.5226H57.3688V55.2722H57.3686Z" fill="#E85D24"/>
<path fill-rule="evenodd" clip-rule="evenodd" d="M57.3686 55.2722C57.3686 57.084 55.8874 58.5668 54.0759 58.569H46.2913C44.478 58.569 42.9945 57.0855 42.9945 55.2722V53.5228H57.3686V55.2724V55.2722Z" fill="#E85D24"/>
<path fill-rule="evenodd" clip-rule="evenodd" d="M34.262 68.5912C27.7877 67.7979 22.754 71.4797 13.4068 71.6036L9.26136 71.628L9.23492 91.8604L13.4068 91.878C23.1754 89.2393 33.4226 92.4156 42.0257 93.3718C46.8199 93.9047 48.8644 94.0684 54.9784 91.4452L84.3733 78.6827C86.6799 77.6027 89.3137 76.1675 90.416 75.3127C92.1467 71.3304 88.797 67.4625 78.8377 71.1808C72.264 73.635 64.0267 76.0687 60.2842 76.7606C60.5709 76.1184 60.7065 75.3793 60.6583 74.5295C60.5203 72.0879 58.5892 70.3922 54.2623 70.2771C47.373 70.0937 41.1866 69.4397 34.262 68.5912Z" fill="#F9C795"/>
<path fill-rule="evenodd" clip-rule="evenodd" d="M34.262 68.5912C27.7877 67.7979 22.754 71.4797 13.4068 71.6036L9.26136 71.628L9.23773 89.709L13.4068 89.7217C23.1754 87.083 33.4226 90.2593 42.0257 91.2155C46.8199 91.7484 48.8644 91.9121 54.9783 89.289L84.3733 76.5264C86.3448 75.6032 88.5557 74.4206 89.8445 73.5628C89.9958 73.4621 90.4824 73.1375 90.8212 72.9056C90.4624 70.0479 86.7212 68.2374 78.8375 71.1808C72.2638 73.635 64.0265 76.0687 60.284 76.7606C60.5707 76.1184 60.7063 75.3793 60.6581 74.5295C60.5201 72.0879 58.589 70.3922 54.2621 70.2771C47.3728 70.0937 41.1864 69.4397 34.2619 68.5912H34.262Z" fill="#F9C795"/>
<path fill-rule="evenodd" clip-rule="evenodd" d="M62.5005 76.2778C61.6562 76.4818 60.9075 76.6455 60.2841 76.7608L60.2846 76.7597C59.0093 78.9325 55.3661 79.7021 51.5737 79.9166C48.525 80.089 45.3581 79.8971 43.0991 79.7605C42.4076 79.7186 41.8024 79.6819 41.2395 79.6601C40.7237 79.642 40.2909 80.0453 40.2727 80.5611C40.2546 81.0767 40.6579 81.5096 41.1737 81.5278C41.616 81.5449 42.2567 81.5837 42.9892 81.6281C45.2908 81.7675 48.5175 81.9628 51.6763 81.7843C56.7756 81.496 61.6406 80.2294 62.5005 76.278V76.2778Z" fill="#E6B17C"/>
<path d="M11.8138 69.9653H6.74589C5.8661 69.9653 5.15289 70.6785 5.15289 71.5583V92.3432C5.15289 93.223 5.8661 93.9362 6.74589 93.9362H11.8138C12.6936 93.9362 13.4068 93.223 13.4068 92.3432V71.5583C13.4068 70.6785 12.6936 69.9653 11.8138 69.9653Z" fill="#E85D24"/>
<path d="M11.8138 69.9653H8.90214C8.02235 69.9653 7.30914 70.6785 7.30914 71.5583V92.3432C7.30914 93.223 8.02235 93.9362 8.90214 93.9362H11.8138C12.6936 93.9362 13.4068 93.223 13.4068 92.3432V71.5583C13.4068 70.6785 12.6936 69.9653 11.8138 69.9653Z" fill="#E85D24"/>
<path fill-rule="evenodd" clip-rule="evenodd" d="M47.0642 7.47919V2.06194C47.0642 1.54425 47.4836 1.12482 48.0015 1.12482C48.5194 1.12482 48.9396 1.54425 48.9396 2.06194V7.47919C48.9396 7.99613 48.5192 8.41632 48.0015 8.41632C47.4838 8.41632 47.0642 7.99594 47.0642 7.47919ZM27.4978 10.3157C27.1502 9.93132 27.1804 9.33807 27.564 8.99138C27.9486 8.64469 28.5407 8.67394 28.8885 9.0585L32.5206 13.0768C32.8682 13.4612 32.8378 14.0544 32.4535 14.4011C32.274 14.5629 32.0496 14.643 31.8253 14.643C31.5696 14.643 31.315 14.5389 31.1301 14.334L27.498 10.3157H27.4978ZM17.677 28.5309C17.7293 28.0159 18.1883 27.6416 18.7043 27.6932L24.093 28.2396C24.6081 28.2919 24.9833 28.7509 24.9308 29.2669C24.882 29.7497 24.4746 30.1093 24 30.1093C23.9678 30.1093 23.9365 30.1074 23.9044 30.1048L18.5147 29.5584C17.9996 29.5069 17.6245 29.0471 17.677 28.5311V28.5309ZM63.5496 14.4011C63.1652 14.0544 63.1348 13.4612 63.4843 13.0768L67.1155 9.0585C67.4621 8.67394 68.0554 8.64469 68.439 8.99138C68.8234 9.33807 68.8538 9.93132 68.5071 10.3157L64.875 14.334C64.6892 14.5391 64.4346 14.643 64.1779 14.643C63.9544 14.643 63.729 14.5629 63.5496 14.4011ZM71.0721 29.2669C71.0198 28.7509 71.3968 28.2919 71.91 28.2396L77.3005 27.6932C77.8165 27.6426 78.2755 28.0168 78.3261 28.5309C78.3793 29.0469 78.0041 29.5069 77.4881 29.5583L72.0994 30.1046C72.0671 30.1074 72.036 30.1091 72.0038 30.1091C71.5292 30.1091 71.1208 29.7497 71.0721 29.2669ZM49.0436 41.0644C49.44 36.3323 50.8628 34.6464 51.4654 34.3944C51.5215 34.3706 51.5591 34.3614 51.585 34.3614C51.6208 34.3614 51.6383 34.3779 51.6566 34.3963C51.9767 34.7109 52.1854 35.9709 51.3733 38.0136C50.7323 39.6278 49.9275 40.6725 49.0436 41.0644ZM48.0015 13.8632C39.4315 13.8632 30.2065 18.8214 30.2065 29.7075C30.2065 35.9535 32.7606 39.5173 35.2309 42.9636C37.3048 45.8571 39.2704 48.6015 39.5398 52.5859H47.0642V43.7141C47.0642 43.4492 47.067 43.1889 47.0725 42.9341C44.5937 42.1718 42.5198 39.0703 41.8935 35.0466C41.8135 34.5353 42.1639 34.056 42.6752 33.9759C43.1865 33.8968 43.6667 34.2463 43.7456 34.7576C44.257 38.0421 45.7553 40.2043 47.1735 40.9502C47.6003 35.8208 49.2154 33.3054 50.7394 32.6653C51.5423 32.3286 52.3765 32.475 52.9688 33.0581C54.0302 34.0984 54.0863 36.2625 53.115 38.7062C51.8771 41.8213 50.2271 42.8109 48.945 43.05C48.9413 43.2662 48.9396 43.4878 48.9396 43.7141V52.5859H56.464C56.7343 48.6015 58.699 45.8571 60.7729 42.9636C63.2441 39.5173 65.7973 35.9533 65.7973 29.7075C65.7973 18.8214 56.5723 13.8632 48.0013 13.8632H48.0015ZM54.0718 57.6324H41.9321C40.6316 57.6324 39.573 56.5748 39.573 55.2733V54.4613H56.4317V55.2733C56.4317 56.5748 55.3721 57.6324 54.0716 57.6324H54.0718ZM52.0751 60.4035C52.0751 61.2773 51.3641 61.9892 50.4885 61.9892H45.5145C44.6408 61.9892 43.9288 61.2774 43.9288 60.4035V59.5076H52.075V60.4035H52.0751ZM33.7071 44.0552C35.8481 47.0426 37.6978 49.6224 37.6978 53.5239V55.2733C37.6978 57.6077 39.597 59.5078 41.9323 59.5078H42.0548V60.4037C42.0548 62.3113 43.6073 63.8638 45.5149 63.8638H50.4889C52.3975 63.8638 53.95 62.3113 53.95 60.4037V59.5078H54.0722C56.4083 59.5078 58.3076 57.6077 58.3076 55.2733V53.5239C58.3076 49.6224 60.1562 47.0426 62.2975 44.0552C64.8175 40.5399 67.6733 36.5558 67.6733 29.7073C67.6733 24.2274 65.5266 19.6215 61.4651 16.3877C57.9021 13.5504 53.1212 11.9876 48.0021 11.9876C42.883 11.9876 38.1021 13.5503 34.539 16.3877C30.4785 19.6215 28.3318 24.2274 28.3318 29.7073C28.3318 36.5556 31.1876 40.5399 33.7076 44.0552H33.7071ZM89.6462 74.7182C88.5692 75.4918 86.2635 76.7629 83.9871 77.8288L54.6098 90.5846C48.604 93.1609 46.7093 92.9501 42.13 92.4407C39.9786 92.2016 37.7381 91.8255 35.3672 91.4263C28.8398 90.3272 21.4708 89.0874 14.344 90.6833V72.5158C18.6023 72.3521 21.9795 71.4819 24.9686 70.7085C28.2208 69.867 31.0288 69.1404 34.1475 69.5229C41.601 70.4363 47.5609 71.0378 54.2381 71.2151C57.7553 71.3089 59.6003 72.4421 59.7225 74.5841C59.7878 75.7421 59.4521 76.671 58.6971 77.4242C55.6159 80.4915 46.4674 79.9378 42.0692 79.671C41.3471 79.6279 40.7235 79.59 40.2113 79.5698C39.6953 79.5523 39.2576 79.9532 39.2381 80.4701C39.2179 80.9878 39.6218 81.4239 40.1385 81.4433C40.6315 81.4626 41.245 81.4993 41.956 81.5426C46.9841 81.8471 56.3434 82.4136 60.0205 78.7523C60.3782 78.3964 60.6754 78.0099 60.9135 77.5952C65.0929 76.7528 73.1027 74.3237 79.1666 72.0602C83.9925 70.2576 87.7763 70.1325 89.2856 71.7236C89.9698 72.4457 90.0977 73.5272 89.6462 74.7182ZM12.4693 92.3441C12.4693 92.7056 12.175 93 11.8136 93H6.74589C6.38439 93 6.09021 92.7056 6.09021 92.3441V71.559C6.09021 71.1975 6.38439 70.9043 6.74589 70.9043H11.8136C12.1751 70.9043 12.4693 71.1977 12.4693 71.559V92.3441ZM90.6467 70.4333C89.4261 69.1474 86.2273 67.422 78.5098 70.3035C72.9913 72.3628 65.8607 74.5583 61.5692 75.5349C61.6069 75.1946 61.6142 74.8425 61.594 74.4773C61.4901 72.6294 60.4011 69.5033 54.2867 69.3414C47.6858 69.1658 41.7737 68.568 34.3763 67.662C30.9034 67.2362 27.7918 68.0409 24.4991 68.8926C21.5781 69.6486 18.2771 70.4993 14.1715 70.6457C13.8036 69.7011 12.8865 69.0287 11.8133 69.0287H6.74552C5.35033 69.0287 4.21539 70.1636 4.21539 71.5588V92.3439C4.21539 93.7391 5.35033 94.875 6.74552 94.875H11.8133C13.1183 94.875 14.1943 93.8816 14.3297 92.6124C21.2175 90.9469 28.2508 92.1287 35.056 93.2747C37.4537 93.6774 39.7191 94.0592 41.9218 94.3048C43.5756 94.4878 44.9284 94.6239 46.2289 94.6239C48.8252 94.6239 51.2102 94.0832 55.3517 92.3063L84.7465 79.5431C84.7556 79.5403 84.763 79.5368 84.7705 79.5321C86.8795 78.5453 89.7261 77.0359 90.9896 76.0545C91.1156 75.9579 91.2131 75.8319 91.2748 75.6876C92.1321 73.7156 91.8975 71.7519 90.6467 70.4331V70.4333Z" fill="black"/>
</svg>