<svg id="Layer_1" data-name="Layer 1" xmlns="http://www.w3.org/2000/svg" viewBox="0 0 1080 335"><defs><style>.cls-1{fill:#fff;}</style></defs><title>V4B logo design landscape</title><path class="cls-1" d="M97.71,152.08a15.44,15.44,0,1,0,14.62,14.61A15.45,15.45,0,0,0,97.71,152.08Z"/><path class="cls-1" d="M175.58,90.25c-1.6-2.17-3.26-4.28-5-6.34a3,3,0,0,0-.23-.27,6.86,6.86,0,0,0-5.09-2.26,7,7,0,0,0-3.25.81l-.33.19a6.87,6.87,0,0,0-1.62,10.39h0q1.81,2.16,3.52,4.41a116.22,116.22,0,0,1,0,140.62c-1.12,1.48-2.27,2.92-3.46,4.34h0a6.87,6.87,0,0,0,1.5,10.44l.39.22a6.86,6.86,0,0,0,8.46-1.61l.11-.12c1.73-2.06,3.4-4.17,5-6.34a130,130,0,0,0,0-154.49Z"/><path class="cls-1" d="M151.54,104.14c-1.74-2.21-3.57-4.34-5.47-6.4l-.3-.32a6.89,6.89,0,0,0-9.86,9.61h0q1.84,2,3.56,4.06a88.7,88.7,0,0,1,0,112.8c-1.13,1.37-2.31,2.72-3.52,4l-.13.13a6.88,6.88,0,0,0,1.53,10.52l.22.13a6.88,6.88,0,0,0,8.22-1.15,2.73,2.73,0,0,0,.23-.25c1.93-2.07,3.77-4.21,5.52-6.44a102.46,102.46,0,0,0,0-126.72Z"/><path class="cls-1" d="M127.35,118.1a74,74,0,0,0-6.54-6.59l-.25-.22a6.91,6.91,0,0,0-7.61-.77h0l-.34.19-.06,0h0a6.88,6.88,0,0,0-1,10.94l0,0q1.84,1.63,3.55,3.42a61.17,61.17,0,0,1,0,84.7q-1.71,1.78-3.57,3.42h0a6.88,6.88,0,0,0,9,10.43l.25-.22a74.94,74.94,0,0,0,6.54-105.39Z"/><path class="cls-1" d="M93.51,197.36l-.31-.18-9.07-5.24L63.47,180A4.93,4.93,0,0,1,61,175.75v-16.5A4.93,4.93,0,0,1,63.47,155l29.78-17.19h0l.32-.19h0a6.89,6.89,0,0,0-3-12.73,6.84,6.84,0,0,0-3.93.8l-.29.17L61,140.51,49.7,147a4.94,4.94,0,0,0-2.46,4.27v32.39A5,5,0,0,0,49.7,188L61,194.49l17.31,10L67.14,228.54,61,241.77l13.23-13.19h0L91,211.83l3.74-3.73a6.88,6.88,0,0,0-1.27-10.74Z"/><polygon class="cls-1" points="280.36 147.88 260.44 193.66 240.68 147.88 228.73 147.88 254.67 207.23 265.52 207.23 291.38 147.88 280.36 147.88"/><rect class="cls-1" x="364.21" y="147.88" width="11.02" height="59.35"/><path class="cls-1" d="M406.26,159.37a22.24,22.24,0,0,1,10.94-2.67,20.77,20.77,0,0,1,15.85,7l7.12-6.7A27.11,27.11,0,0,0,430,149.58a35.65,35.65,0,0,0-29.55,1.4,29.34,29.34,0,0,0-11.4,10.89,31.85,31.85,0,0,0,0,31.37,29,29,0,0,0,11.36,10.89,33.38,33.38,0,0,0,16.23,4A34.13,34.13,0,0,0,430,205.53a27,27,0,0,0,10.21-7.37l-7.12-6.79a20.62,20.62,0,0,1-15.85,7,22.24,22.24,0,0,1-10.94-2.67,19.15,19.15,0,0,1-7.54-7.42,22.66,22.66,0,0,1,0-21.53A19.15,19.15,0,0,1,406.26,159.37Z"/><polygon class="cls-1" points="459.67 181.63 488.33 181.63 488.33 172.55 459.67 172.55 459.67 157.12 491.98 157.12 491.98 147.88 448.65 147.88 448.65 207.23 493.16 207.23 493.16 197.99 459.67 197.99 459.67 181.63"/><polygon class="cls-1" points="632.8 158.95 618.43 158.95 618.43 175.55 591.47 175.55 629.74 124.8 613.37 124.8 572.75 177.91 572.75 188.51 617.96 188.51 617.96 207.23 632.8 207.23 632.8 188.51 657 188.51 644.05 175.55 632.8 175.55 632.8 158.95"/><path class="cls-1" d="M719,176.37a14,14,0,0,0,5.6-5.26,14.92,14.92,0,0,0,2-7.8A13.22,13.22,0,0,0,720.94,152q-5.69-4.11-16.19-4.11H676.94v59.35h29.5q11.37,0,17.3-4.2a13.74,13.74,0,0,0,5.93-11.91,15,15,0,0,0-2.88-9.37A15.65,15.65,0,0,0,719,176.37Zm-31-19.84h15.6c3.84,0,6.8.69,8.86,2.08a7.58,7.58,0,0,1,0,12.21c-2.06,1.38-5,2.07-8.86,2.07H688Zm17.8,42.05H688V181.45h17.8q12.81,0,12.81,8.57T705.76,198.58Z"/><path class="cls-1" d="M780,181q0,17.46-15,17.46T749.85,181V147.88h-11v33.49q0,12.88,6.87,19.8t19.16,6.91q12.28,0,19.11-6.91t6.83-19.8V147.88H780Z"/><path class="cls-1" d="M846.92,151.57a37.18,37.18,0,0,0-16.87-3.69H804.11v59.35h25.94a37.18,37.18,0,0,0,16.87-3.69,27.24,27.24,0,0,0,11.45-10.43,31.76,31.76,0,0,0,0-31.11A27.24,27.24,0,0,0,846.92,151.57Zm1.74,36.71A17.89,17.89,0,0,1,841,195.4a25.12,25.12,0,0,1-11.49,2.5H815.13V157.21h14.41a25.12,25.12,0,0,1,11.49,2.5,17.89,17.89,0,0,1,7.63,7.12,22.88,22.88,0,0,1,0,21.45Z"/><path class="cls-1" d="M889.27,159.33a23.16,23.16,0,0,1,11.15-2.63,22.29,22.29,0,0,1,16.36,6.78l7-6.78a26.59,26.59,0,0,0-10.26-7.21A36,36,0,0,0,899.91,147,34.26,34.26,0,0,0,883.42,151a29.18,29.18,0,0,0-11.49,10.89,31.72,31.72,0,0,0,0,31.37,29.2,29.2,0,0,0,11.45,10.89,33.81,33.81,0,0,0,16.36,4,41,41,0,0,0,12.55-2,33.13,33.13,0,0,0,10.68-5.6V176.88H897.92l14.62,7.56v10.92a23.89,23.89,0,0,1-12.2,3,22.36,22.36,0,0,1-11.07-2.71,19.82,19.82,0,0,1-7.63-7.46,20.88,20.88,0,0,1-2.75-10.68,21.23,21.23,0,0,1,2.75-10.86A19.19,19.19,0,0,1,889.27,159.33Z"/><polygon class="cls-1" points="946.37 181.63 975.03 181.63 975.03 172.55 946.37 172.55 946.37 157.12 978.67 157.12 978.67 147.88 935.35 147.88 935.35 207.23 979.86 207.23 979.86 197.99 946.37 197.99 946.37 181.63"/><polygon class="cls-1" points="982.4 147.88 982.4 157.21 1002.07 157.21 1002.07 207.23 1013.1 207.23 1013.1 157.21 1032.77 157.21 1032.77 147.88 982.4 147.88"/><path class="cls-1" d="M323,145.06a32.57,32.57,0,1,0,32.57,32.57A32.57,32.57,0,0,0,323,145.06Z"/><path class="cls-1" d="M512.51,206.13A27.58,27.58,0,0,1,502.38,201l3.81-8.56a30.15,30.15,0,0,0,8.95,4.71,32.65,32.65,0,0,0,10.64,1.82c4.4,0,7.7-.71,9.87-2.12a6.42,6.42,0,0,0,3.27-5.6,5.4,5.4,0,0,0-1.83-4.19,12.72,12.72,0,0,0-4.62-2.59q-2.79-.93-7.63-2.12a87.48,87.48,0,0,1-11-3.22,18,18,0,0,1-7.2-5q-3-3.43-3-9.29a15.83,15.83,0,0,1,2.67-8.94,18,18,0,0,1,8.05-6.4A32.71,32.71,0,0,1,527.56,147a42.84,42.84,0,0,1,10.68,1.36,29.32,29.32,0,0,1,9.07,3.9l-3.47,8.56a34.76,34.76,0,0,0-8.14-3.47,30.55,30.55,0,0,0-8.23-1.19q-6.53,0-9.71,2.2a6.81,6.81,0,0,0-3.17,5.85,5.27,5.27,0,0,0,1.82,4.16,13.11,13.11,0,0,0,4.62,2.54c1.86.62,4.41,1.33,7.63,2.12a81.06,81.06,0,0,1,10.85,3.18,18.58,18.58,0,0,1,7.25,5q3,3.39,3,9.15a15.61,15.61,0,0,1-2.67,8.9,18.12,18.12,0,0,1-8.1,6.36,33,33,0,0,1-13.22,2.38A45.24,45.24,0,0,1,512.51,206.13Z"/></svg>