<svg width="230" height="41" viewBox="0 0 230 41" fill="none" xmlns="http://www.w3.org/2000/svg">
<path d="M12.2824 16.9145C11.5582 16.877 10.8397 17.0599 10.2216 17.4391C9.60348 17.8183 9.11489 18.376 8.82026 19.0386C8.52563 19.7012 8.4388 20.4376 8.57124 21.1505C8.70368 21.8635 9.04916 22.5195 9.56209 23.0321C10.075 23.5447 10.7313 23.8897 11.4443 24.0217C12.1574 24.1536 12.8937 24.0663 13.5561 23.7712C14.2185 23.4761 14.7758 22.9871 15.1546 22.3688C15.5334 21.7504 15.7159 21.0318 15.6778 20.3076C15.6309 19.4226 15.258 18.5862 14.6311 17.9597C14.0041 17.3332 13.1675 16.9608 12.2824 16.9145Z" fill="url(#paint0_linear_1_43)"/>
<path d="M30.3676 2.5545C29.996 2.05052 29.6105 1.56047 29.2064 1.08204C29.1898 1.0601 29.172 1.03916 29.1529 1.01933C29.0036 0.854049 28.8212 0.721939 28.6175 0.631529C28.4139 0.541119 28.1936 0.494419 27.9708 0.494446C27.7077 0.495148 27.4487 0.559704 27.216 0.682569L27.1393 0.726695C26.9403 0.84724 26.7701 1.00986 26.6405 1.20315C26.511 1.39644 26.4253 1.61573 26.3894 1.84564C26.3536 2.07554 26.3685 2.31051 26.433 2.53407C26.4976 2.75762 26.6102 2.96435 26.7631 3.13976C27.0433 3.4742 27.3159 3.81561 27.5806 4.16398C31.1486 8.86009 33.0804 14.5956 33.0804 20.4934C33.0804 26.3912 31.1486 32.1267 27.5806 36.8229C27.3205 37.1666 27.0534 37.501 26.777 37.8308C26.6208 38.0045 26.5046 38.2105 26.4367 38.434C26.3688 38.6576 26.3508 38.8934 26.3841 39.1246C26.4173 39.3559 26.5009 39.5771 26.629 39.7725C26.7571 39.9679 26.9266 40.1328 27.1254 40.2555L27.216 40.3066C27.537 40.478 27.9069 40.5344 28.2644 40.4664C28.6218 40.3983 28.9452 40.21 29.1808 39.9327L29.2064 39.9048C29.6082 39.4264 29.996 38.9363 30.3676 38.4323C34.2049 33.238 36.2756 26.9502 36.2756 20.4923C36.2756 14.0343 34.2049 7.74647 30.3676 2.55217V2.5545Z" fill="url(#paint1_linear_1_43)"/>
<path d="M24.7843 5.78044C24.3802 5.26717 23.9552 4.77248 23.5139 4.29405L23.4443 4.21973C23.1441 3.93593 22.7458 3.7792 22.3327 3.78233C21.9197 3.78547 21.5238 3.94822 21.228 4.23654C20.9322 4.52486 20.7593 4.91641 20.7456 5.32926C20.7318 5.74212 20.8783 6.14429 21.1543 6.45164C21.4392 6.76131 21.7148 7.07562 21.9811 7.39457C25.0201 11.0834 26.6819 15.714 26.6819 20.4934C26.6819 25.2728 25.0201 29.9035 21.9811 33.5923C21.7186 33.9105 21.4446 34.224 21.1636 34.5213L21.1334 34.5515C20.9745 34.726 20.8562 34.9337 20.7871 35.1594C20.718 35.3852 20.6998 35.6234 20.7338 35.857C20.7677 36.0907 20.8531 36.3139 20.9836 36.5106C21.1141 36.7073 21.2867 36.8726 21.4887 36.9947L21.5398 37.0249C21.8437 37.1943 22.1946 37.2599 22.5392 37.2117C22.8837 37.1635 23.2032 37.0041 23.4489 36.7578C23.4679 36.7396 23.4857 36.7202 23.5023 36.6998C23.9506 36.219 24.3779 35.722 24.7843 35.2041C28.0851 31.0093 29.8797 25.8265 29.8797 20.4888C29.8797 15.151 28.0851 9.96827 24.7843 5.77347V5.78044Z" fill="url(#paint2_linear_1_43)"/>
<path d="M19.1662 9.02263C18.6925 8.48117 18.1852 7.96999 17.6473 7.49211L17.5893 7.44102C17.345 7.2405 17.047 7.11657 16.7325 7.08475C16.4181 7.05294 16.1013 7.11466 15.8218 7.26218L15.7429 7.30631H15.7289C15.5187 7.43665 15.3417 7.61401 15.2117 7.82442C15.0817 8.03483 15.0023 8.27254 14.9798 8.51885C14.9572 8.76515 14.9922 9.01332 15.0819 9.24381C15.1716 9.47431 15.3136 9.68083 15.4967 9.84712C15.7816 10.0995 16.0564 10.3643 16.3212 10.6414C18.8594 13.2868 20.2766 16.811 20.2766 20.4772C20.2766 24.1433 18.8594 27.6675 16.3212 30.3129C16.0564 30.5885 15.78 30.8533 15.492 31.1072C15.333 31.2444 15.2025 31.4117 15.1081 31.5993C15.0137 31.787 14.9571 31.9914 14.9417 32.201C14.9263 32.4105 14.9523 32.621 15.0182 32.8204C15.0842 33.0199 15.1887 33.2044 15.326 33.3635C15.6032 33.6847 15.9966 33.8827 16.4197 33.9138C16.6293 33.9292 16.8398 33.9032 17.0392 33.8373C17.2387 33.7714 17.4232 33.6668 17.5823 33.5296L17.6404 33.4785C21.0726 30.4249 23.1584 26.1382 23.4429 21.553C23.7274 16.9679 22.1876 12.4562 19.1593 9.00173L19.1662 9.02263Z" fill="url(#paint3_linear_1_43)"/>
<path d="M11.3069 27.4307L11.2349 27.3889L9.12842 26.1719L4.33016 23.3988C4.15655 23.2989 4.0122 23.1551 3.91153 22.9819C3.81087 22.8087 3.75741 22.6121 3.7565 22.4118V18.5797C3.75741 18.3793 3.81087 18.1827 3.91153 18.0095C4.0122 17.8363 4.15655 17.6926 4.33016 17.5926L11.2465 13.6002L11.3209 13.5561C11.6072 13.3799 11.8307 13.1179 11.9597 12.8074C12.0887 12.4969 12.1166 12.1537 12.0395 11.8264C11.9623 11.4991 11.7841 11.2045 11.53 10.9843C11.276 10.7641 10.959 10.6295 10.6241 10.5996C10.3081 10.5689 9.99022 10.6336 9.71137 10.7854L9.64402 10.8249L3.7565 14.2273L1.13209 15.7346C0.958385 15.8354 0.814194 15.9801 0.713933 16.1541C0.613671 16.3282 0.560852 16.5255 0.560756 16.7263V24.2489C0.559407 24.4522 0.611468 24.6523 0.711732 24.8292C0.811996 25.0061 0.956948 25.1535 1.13209 25.2568L3.7565 26.7641L7.77673 29.0866L5.18251 34.6722L3.7565 37.7449L6.82916 34.6815L10.724 30.7913L11.5926 29.925C11.7638 29.7542 11.894 29.5468 11.9734 29.3183C12.0527 29.0899 12.0792 28.8464 12.0508 28.6062C12.0224 28.3661 11.9399 28.1355 11.8094 27.9318C11.6789 27.7282 11.504 27.5569 11.2976 27.4307H11.3069Z" fill="url(#paint4_linear_1_43)"/>
<path d="M54.7027 15.939L50.0763 26.5714L45.487 15.939H42.7116L48.7362 29.723H51.2561L57.262 15.939H54.7027Z" fill="url(#paint5_linear_1_43)"/>
<path d="M76.7361 15.939H74.1768V29.723H76.7361V15.939Z" fill="url(#paint6_linear_1_43)"/>
<path d="M83.9428 18.6075C84.7225 18.1863 85.5975 17.9727 86.4836 17.9874C87.1781 17.9774 87.8665 18.1175 88.5018 18.3981C89.1371 18.6787 89.7044 19.0932 90.1648 19.6132L91.8184 18.0571C91.1772 17.3053 90.368 16.715 89.4564 16.3338C88.3559 15.8936 87.1736 15.6948 85.9896 15.7509C84.8056 15.807 83.6475 16.1167 82.5934 16.659C81.4967 17.2447 80.5811 18.1193 79.9458 19.1882C79.3171 20.2993 78.9866 21.5543 78.9866 22.831C78.9866 24.1077 79.3171 25.3627 79.9458 26.4738C80.5753 27.5439 81.4884 28.4192 82.5842 29.003C83.7415 29.6274 85.0386 29.947 86.3536 29.932C87.4179 29.9411 88.4732 29.7357 89.4564 29.3282C90.3707 28.9525 91.1832 28.366 91.8277 27.6165L90.1741 26.0395C89.7152 26.5613 89.1482 26.9771 88.5125 27.2578C87.8769 27.5385 87.1877 27.6776 86.4929 27.6653C85.6068 27.6799 84.7318 27.4664 83.9521 27.0451C83.2182 26.6465 82.6113 26.0493 82.2009 25.3219C81.7863 24.5538 81.5691 23.6946 81.5691 22.8217C81.5691 21.9488 81.7863 21.0896 82.2009 20.3215C82.6101 19.5988 83.2135 19.005 83.9428 18.6075Z" fill="url(#paint7_linear_1_43)"/>
<path d="M96.3472 23.7774H103.003V21.6686H96.3472V18.085H103.851V15.939H93.7878V29.723H104.125V27.577H96.3472V23.7774Z" fill="url(#paint8_linear_1_43)"/>
<path d="M136.557 18.51H133.219V22.3653H126.958L135.846 10.5787H132.044L122.61 22.9135V25.3753H133.11V29.723H136.557V25.3753H142.177L139.169 22.3653H136.557V18.51Z" fill="url(#paint9_linear_1_43)"/>
<path d="M156.576 22.5558C157.115 22.2778 157.566 21.8547 157.877 21.3342C158.195 20.7843 158.356 20.1576 158.341 19.5226C158.359 19.0098 158.248 18.5007 158.019 18.0419C157.789 17.583 157.448 17.189 157.027 16.8959C156.146 16.2595 154.893 15.9413 153.267 15.9413H146.808V29.7253H153.659C155.42 29.7253 156.759 29.4002 157.677 28.7499C158.122 28.4432 158.482 28.0285 158.723 27.5447C158.964 27.0608 159.078 26.5238 159.055 25.9838C159.082 25.204 158.846 24.4376 158.386 23.8076C157.926 23.2135 157.294 22.7762 156.576 22.5558ZM149.377 17.948H153C153.892 17.948 154.579 18.1082 155.058 18.4311C155.28 18.5946 155.461 18.8082 155.585 19.0545C155.71 19.3008 155.774 19.5729 155.774 19.8489C155.774 20.1249 155.71 20.3971 155.585 20.6434C155.461 20.8897 155.28 21.1032 155.058 21.2668C154.579 21.5873 153.896 21.7476 153 21.7476H149.377V17.948ZM153.511 27.7141H149.377V23.7356H153.511C155.494 23.7356 156.486 24.3991 156.486 25.726C156.486 27.0529 155.491 27.7156 153.501 27.7141H153.511Z" fill="url(#paint10_linear_1_43)"/>
<path d="M170.744 23.6311C170.744 26.3345 169.582 27.6862 167.26 27.6862C164.937 27.6862 163.764 26.3345 163.741 23.6311V15.939H161.187V23.717C161.187 25.7113 161.718 27.2441 162.782 28.3155C163.846 29.387 165.329 29.9219 167.232 29.9204C169.133 29.9204 170.613 29.3854 171.67 28.3155C172.728 27.2457 173.257 25.7128 173.257 23.717V15.939H170.744V23.6311Z" fill="url(#paint11_linear_1_43)"/>
<path d="M186.286 16.796C185.065 16.2068 183.723 15.9132 182.368 15.939H176.343V29.723H182.368C183.723 29.7488 185.065 29.4552 186.286 28.866C187.388 28.3329 188.312 27.4914 188.945 26.4436C189.565 25.3404 189.89 24.0963 189.89 22.831C189.89 21.5656 189.565 20.3216 188.945 19.2184C188.312 18.1706 187.388 17.3291 186.286 16.796ZM186.69 25.3219C186.275 26.038 185.655 26.6138 184.911 26.9755C184.08 27.3774 183.165 27.5764 182.242 27.5561H178.903V18.1059H182.249C183.172 18.0856 184.087 18.2846 184.918 18.6865C185.66 19.0493 186.277 19.6251 186.69 20.3401C187.097 21.1073 187.31 21.9625 187.31 22.831C187.31 23.6995 187.097 24.5547 186.69 25.3219Z" fill="url(#paint12_linear_1_43)"/>
<path d="M196.121 18.5983C196.92 18.181 197.81 17.971 198.711 17.9874C199.418 17.9764 200.12 18.1104 200.774 18.3812C201.427 18.6521 202.018 19.0539 202.511 19.5621L204.136 17.9874C203.487 17.2473 202.67 16.6731 201.753 16.3129C200.747 15.9176 199.674 15.7212 198.593 15.7346C197.258 15.7183 195.941 16.0377 194.763 16.6636C193.657 17.2447 192.734 18.12 192.094 19.1928C191.463 20.303 191.131 21.5584 191.131 22.8356C191.131 24.1129 191.463 25.3683 192.094 26.4785C192.731 27.5499 193.651 28.425 194.753 29.0077C195.921 29.6329 197.228 29.9524 198.553 29.9367C199.543 29.9343 200.526 29.7775 201.468 29.4722C202.367 29.194 203.208 28.7532 203.948 28.1716V22.6742H198.13L201.526 24.43V26.9662C200.66 27.4471 199.682 27.6876 198.692 27.6629C197.795 27.6787 196.91 27.4619 196.121 27.0335C195.383 26.6289 194.771 26.0296 194.349 25.301C193.918 24.5463 193.697 23.6896 193.711 22.8205C193.694 21.9378 193.915 21.0667 194.349 20.2983C194.769 19.5769 195.383 18.9878 196.121 18.5983Z" fill="url(#paint13_linear_1_43)"/>
<path d="M209.383 23.7774H216.039V21.6686H209.383V18.085H216.885V15.939H206.823V29.723H217.161V27.577H209.383V23.7774Z" fill="url(#paint14_linear_1_43)"/>
<path d="M217.751 15.939V18.1059H222.319V29.723H224.881V18.1059H229.449V15.939H217.751Z" fill="url(#paint15_linear_1_43)"/>
<path d="M64.6058 15.2841C63.1097 15.2841 61.6472 15.7277 60.4032 16.5589C59.1593 17.3901 58.1897 18.5715 57.6172 19.9537C57.0447 21.3359 56.8949 22.8568 57.1868 24.3241C57.4786 25.7915 58.1991 27.1393 59.257 28.1972C60.3149 29.2551 61.6627 29.9755 63.13 30.2674C64.5974 30.5593 66.1183 30.4095 67.5005 29.837C68.8827 29.2644 70.0641 28.2949 70.8953 27.0509C71.7265 25.807 72.1701 24.3445 72.1701 22.8484C72.1701 20.8422 71.3732 18.9182 69.9546 17.4996C68.536 16.081 66.612 15.2841 64.6058 15.2841Z" fill="url(#paint16_linear_1_43)"/>
<path d="M108.619 29.4675C107.761 29.2378 106.96 28.8321 106.267 28.2761L107.151 26.288C107.778 26.7671 108.481 27.1369 109.23 27.3819C110.025 27.6589 110.86 27.8018 111.701 27.8046C112.723 27.8046 113.49 27.6397 113.994 27.3122C114.224 27.1824 114.416 26.9934 114.55 26.7649C114.683 26.5363 114.753 26.2763 114.753 26.0116C114.758 25.8282 114.722 25.646 114.649 25.4779C114.575 25.3097 114.466 25.1598 114.328 25.0385C114.016 24.7649 113.651 24.56 113.255 24.437C112.823 24.293 112.232 24.1289 111.483 23.9446C110.616 23.7515 109.762 23.5016 108.928 23.1968C108.284 22.9534 107.709 22.5545 107.256 22.0355C106.791 21.5045 106.559 20.7853 106.559 19.8779C106.553 19.1393 106.769 18.4157 107.179 17.8016C107.645 17.1349 108.294 16.6183 109.049 16.3152C110.02 15.9117 111.064 15.714 112.115 15.7346C112.951 15.7352 113.785 15.8413 114.595 16.0505C115.343 16.2312 116.056 16.5374 116.702 16.9563L115.896 18.9443C115.302 18.5962 114.667 18.3254 114.005 18.1384C113.384 17.9596 112.74 17.8666 112.094 17.862C111.083 17.862 110.331 18.0323 109.839 18.373C109.61 18.5176 109.422 18.7184 109.293 18.9563C109.164 19.1941 109.099 19.4611 109.102 19.7316C109.096 19.914 109.131 20.0954 109.204 20.2626C109.277 20.4297 109.387 20.5784 109.525 20.6978C109.839 20.9651 110.204 21.1657 110.598 21.2877C111.03 21.4317 111.622 21.5966 112.37 21.7801C113.226 21.9673 114.068 22.2141 114.89 22.5186C115.536 22.7652 116.114 23.1634 116.574 23.6799C117.038 24.2047 117.271 24.9131 117.271 25.8049C117.278 26.5409 117.062 27.2619 116.65 27.872C116.179 28.5359 115.526 29.049 114.769 29.3491C113.795 29.7419 112.749 29.93 111.699 29.9018C110.657 29.9106 109.619 29.7642 108.619 29.4675Z" fill="url(#paint17_linear_1_43)"/>
<defs>
<linearGradient id="paint0_linear_1_43" x1="-2.07295" y1="26.7595" x2="35.2402" y2="10.2629" gradientUnits="userSpaceOnUse">
<stop stop-color="#B51E74"/>
<stop offset="1" stop-color="#E85D24"/>
</linearGradient>
<linearGradient id="paint1_linear_1_43" x1="0.521277" y1="32.6308" x2="37.8367" y2="16.1341" gradientUnits="userSpaceOnUse">
<stop stop-color="#B51E74"/>
<stop offset="1" stop-color="#E85D24"/>
</linearGradient>
<linearGradient id="paint2_linear_1_43" x1="-0.40308" y1="30.5405" x2="36.9124" y2="14.0439" gradientUnits="userSpaceOnUse">
<stop stop-color="#B51E74"/>
<stop offset="1" stop-color="#E85D24"/>
</linearGradient>
<linearGradient id="paint3_linear_1_43" x1="-1.34137" y1="28.4154" x2="35.9718" y2="11.9188" gradientUnits="userSpaceOnUse">
<stop stop-color="#B51E74"/>
<stop offset="1" stop-color="#E85D24"/>
</linearGradient>
<linearGradient id="paint4_linear_1_43" x1="-1.55736" y1="27.9277" x2="35.7581" y2="11.431" gradientUnits="userSpaceOnUse">
<stop stop-color="#B51E74"/>
<stop offset="1" stop-color="#E85D24"/>
</linearGradient>
<linearGradient id="paint5_linear_1_43" x1="49.988" y1="45.848" x2="49.988" y2="10.9108" gradientUnits="userSpaceOnUse">
<stop stop-color="#B51E74"/>
<stop offset="0.28" stop-color="#B72071"/>
<stop offset="0.49" stop-color="#BD2868"/>
<stop offset="0.67" stop-color="#C73458"/>
<stop offset="0.84" stop-color="#D54642"/>
<stop offset="0.99" stop-color="#E75C25"/>
<stop offset="1" stop-color="#E85D24"/>
</linearGradient>
<linearGradient id="paint6_linear_1_43" x1="75.4565" y1="45.848" x2="75.4565" y2="10.9108" gradientUnits="userSpaceOnUse">
<stop stop-color="#B51E74"/>
<stop offset="0.28" stop-color="#B72071"/>
<stop offset="0.49" stop-color="#BD2868"/>
<stop offset="0.67" stop-color="#C73458"/>
<stop offset="0.84" stop-color="#D54642"/>
<stop offset="0.99" stop-color="#E75C25"/>
<stop offset="1" stop-color="#E85D24"/>
</linearGradient>
<linearGradient id="paint7_linear_1_43" x1="85.4013" y1="45.848" x2="85.4013" y2="10.9108" gradientUnits="userSpaceOnUse">
<stop stop-color="#B51E74"/>
<stop offset="0.28" stop-color="#B72071"/>
<stop offset="0.49" stop-color="#BD2868"/>
<stop offset="0.67" stop-color="#C73458"/>
<stop offset="0.84" stop-color="#D54642"/>
<stop offset="0.99" stop-color="#E75C25"/>
<stop offset="1" stop-color="#E85D24"/>
</linearGradient>
<linearGradient id="paint8_linear_1_43" x1="98.9577" y1="45.848" x2="98.9577" y2="10.9108" gradientUnits="userSpaceOnUse">
<stop stop-color="#B51E74"/>
<stop offset="0.28" stop-color="#B72071"/>
<stop offset="0.49" stop-color="#BD2868"/>
<stop offset="0.67" stop-color="#C73458"/>
<stop offset="0.84" stop-color="#D54642"/>
<stop offset="0.99" stop-color="#E75C25"/>
<stop offset="1" stop-color="#E85D24"/>
</linearGradient>
<linearGradient id="paint9_linear_1_43" x1="132.392" y1="45.8481" x2="132.392" y2="10.9108" gradientUnits="userSpaceOnUse">
<stop stop-color="#B51E74"/>
<stop offset="0.28" stop-color="#B72071"/>
<stop offset="0.49" stop-color="#BD2868"/>
<stop offset="0.67" stop-color="#C73458"/>
<stop offset="0.84" stop-color="#D54642"/>
<stop offset="0.99" stop-color="#E75C25"/>
<stop offset="1" stop-color="#E85D24"/>
</linearGradient>
<linearGradient id="paint10_linear_1_43" x1="152.932" y1="45.8481" x2="152.932" y2="10.9108" gradientUnits="userSpaceOnUse">
<stop stop-color="#B51E74"/>
<stop offset="0.28" stop-color="#B72071"/>
<stop offset="0.49" stop-color="#BD2868"/>
<stop offset="0.67" stop-color="#C73458"/>
<stop offset="0.84" stop-color="#D54642"/>
<stop offset="0.99" stop-color="#E75C25"/>
<stop offset="1" stop-color="#E85D24"/>
</linearGradient>
<linearGradient id="paint11_linear_1_43" x1="167.216" y1="45.848" x2="167.216" y2="10.9108" gradientUnits="userSpaceOnUse">
<stop stop-color="#B51E74"/>
<stop offset="0.28" stop-color="#B72071"/>
<stop offset="0.49" stop-color="#BD2868"/>
<stop offset="0.67" stop-color="#C73458"/>
<stop offset="0.84" stop-color="#D54642"/>
<stop offset="0.99" stop-color="#E75C25"/>
<stop offset="1" stop-color="#E85D24"/>
</linearGradient>
<linearGradient id="paint12_linear_1_43" x1="183.116" y1="45.848" x2="183.116" y2="10.9108" gradientUnits="userSpaceOnUse">
<stop stop-color="#B51E74"/>
<stop offset="0.28" stop-color="#B72071"/>
<stop offset="0.49" stop-color="#BD2868"/>
<stop offset="0.67" stop-color="#C73458"/>
<stop offset="0.84" stop-color="#D54642"/>
<stop offset="0.99" stop-color="#E75C25"/>
<stop offset="1" stop-color="#E85D24"/>
</linearGradient>
<linearGradient id="paint13_linear_1_43" x1="197.629" y1="45.848" x2="197.629" y2="10.9108" gradientUnits="userSpaceOnUse">
<stop stop-color="#B51E74"/>
<stop offset="0.28" stop-color="#B72071"/>
<stop offset="0.49" stop-color="#BD2868"/>
<stop offset="0.67" stop-color="#C73458"/>
<stop offset="0.84" stop-color="#D54642"/>
<stop offset="0.99" stop-color="#E75C25"/>
<stop offset="1" stop-color="#E85D24"/>
</linearGradient>
<linearGradient id="paint14_linear_1_43" x1="211.993" y1="45.848" x2="211.993" y2="10.9108" gradientUnits="userSpaceOnUse">
<stop stop-color="#B51E74"/>
<stop offset="0.28" stop-color="#B72071"/>
<stop offset="0.49" stop-color="#BD2868"/>
<stop offset="0.67" stop-color="#C73458"/>
<stop offset="0.84" stop-color="#D54642"/>
<stop offset="0.99" stop-color="#E75C25"/>
<stop offset="1" stop-color="#E85D24"/>
</linearGradient>
<linearGradient id="paint15_linear_1_43" x1="223.599" y1="45.848" x2="223.599" y2="10.9108" gradientUnits="userSpaceOnUse">
<stop stop-color="#B51E74"/>
<stop offset="0.28" stop-color="#B72071"/>
<stop offset="0.49" stop-color="#BD2868"/>
<stop offset="0.67" stop-color="#C73458"/>
<stop offset="0.84" stop-color="#D54642"/>
<stop offset="0.99" stop-color="#E75C25"/>
<stop offset="1" stop-color="#E85D24"/>
</linearGradient>
<linearGradient id="paint16_linear_1_43" x1="64.5942" y1="45.848" x2="64.5942" y2="10.9108" gradientUnits="userSpaceOnUse">
<stop stop-color="#B51E74"/>
<stop offset="0.28" stop-color="#B72071"/>
<stop offset="0.49" stop-color="#BD2868"/>
<stop offset="0.67" stop-color="#C73458"/>
<stop offset="0.84" stop-color="#D54642"/>
<stop offset="0.99" stop-color="#E75C25"/>
<stop offset="1" stop-color="#E85D24"/>
</linearGradient>
<linearGradient id="paint17_linear_1_43" x1="111.769" y1="45.848" x2="111.769" y2="10.9108" gradientUnits="userSpaceOnUse">
<stop stop-color="#B51E74"/>
<stop offset="0.27" stop-color="#B72071"/>
<stop offset="0.48" stop-color="#BD2867"/>
<stop offset="0.67" stop-color="#C73557"/>
<stop offset="0.84" stop-color="#D64740"/>
<stop offset="1" stop-color="#E85D24"/>
</linearGradient>
</defs>
</svg>
