<svg width="240" height="155" viewBox="0 0 240 155" fill="none" xmlns="http://www.w3.org/2000/svg">
<g opacity="0.75">
<path d="M90.0002 17.3318H84.271V17.6218H90.0002V17.3318Z" fill="url(#paint0_linear_51_376)"/>
<path d="M90.0002 23.3513H84.271V23.6413H90.0002V23.3513Z" fill="url(#paint1_linear_51_376)"/>
<path d="M90.2905 29.726H90.0005V35.3899H90.2905V29.726Z" fill="url(#paint2_linear_51_376)"/>
<path d="M234.419 29.3706H228.69V23.6413V23.3512V17.6219V17.3318H228.4H222.671V11.6026V11.3125H222.38H216.651H216.361H210.632V5.58323V5.29318H210.342H204.612H204.322H198.593H198.303H192.574H192.284H186.554H186.264H180.535H180.245V5.58323V11.3125H174.516H174.226H168.496H168.206V11.6026V17.3318H162.477H162.187V17.6219V23.3512V23.6413V29.3706H156.458H156.168V29.6606V35.3899H150.484H150.194H144.465H144.175H138.445H138.155H132.426H132.136H126.407H126.116H120.387H120.097H114.368H114.078H108.348H108.058H102.329H102.039H96.3098H96.0197H90.2904H90.0004H84.2711V29.6606V29.3706V23.6413V23.3512V17.6219V17.3318H83.981H78.2517H77.9616H72.2323H71.9423V17.6219V23.3512H66.213H65.9229H60.1936H59.9036V23.6413V29.3705L54.1743 29.3706H53.8842V29.6606V35.3899H48.1549H47.8649H42.1356H41.8455V35.68V41.4093H36.1162H35.8262H30.0968H29.8068V41.6993V47.4286H24.0775H23.7874H18.0581H17.7681V47.7187V53.448H12.0388H11.7488H6.01942H5.72937V53.738V59.4673V59.7574V65.4867V65.7767V71.506V71.7961V77.5254V77.8154V83.5447V83.8348V89.5641V89.8541V95.5835V95.8735H6.01942H11.7488H12.0388H17.7681H18.0581H23.7874H24.0775H29.8068H30.0968H35.8262H36.1162H41.8455H42.1356H47.8649H48.1549H53.8842H54.1743H59.9036H60.1936H65.9229H66.213H71.9423H72.2323H77.9616H78.2517H83.981H84.2711H90.0004H90.2904H96.0197H96.3098H102.039H102.329H108.058H108.348H114.078H114.368H120.097H120.387H126.116H126.407H132.136H132.426H138.155H138.445H144.175H144.465H150.194H150.484H156.168H156.458H162.187H162.477H168.206H168.496H174.226H174.516H180.245H180.535H186.264H186.554V83.8348H192.284H192.574H198.303H198.593H204.322H204.612H210.342H210.632V83.5447V77.8154H216.361H216.651H222.38H222.671V77.5254V71.7961H228.4H228.69V71.506V65.7767V65.4867V59.7574H234.419H234.709V59.4673V53.7381V53.448V47.7187V47.4286V41.6993V41.4093V35.68V35.3899V29.6606V29.3706H234.419ZM11.7488 95.5835H6.01942V89.8541H11.7488V95.5835ZM11.7488 89.5641H6.01942V83.8348H11.7488V89.5641ZM11.7488 83.5447H6.01942V77.8154H11.7488V83.5447ZM11.7488 77.5254H6.01942V71.7961H11.7488V77.5254ZM11.7488 71.506H6.01942V65.7767H11.7488V71.506ZM11.7488 65.4867H6.01942V59.7574H11.7488V65.4867ZM11.7488 59.4673H6.01942V53.738H11.7488V59.4673ZM17.7681 95.5835H12.0388V89.8541H17.7681V95.5835ZM17.7681 89.5641H12.0388V83.8348H17.7681V89.5641ZM17.7681 83.5447H12.0388V77.8154H17.7681V83.5447ZM17.7681 77.5254H12.0388V71.7961H17.7681V77.5254ZM17.7681 71.506H12.0388V65.7767H17.7681V71.506ZM17.7681 65.4867H12.0388V59.7574H17.7681V65.4867ZM17.7681 59.4673H12.0388V53.738H17.7681V59.4673ZM23.7874 95.5835H18.0581V89.8541H23.7874V95.5835ZM23.7874 89.5641H18.0581V83.8348H23.7874V89.5641ZM23.7874 83.5447H18.0581V77.8154H23.7874V83.5447ZM23.7874 77.5254H18.0581V71.7961H23.7874V77.5254ZM23.7874 71.506H18.0581V65.7767H23.7874V71.506ZM23.7874 65.4867H18.0581V59.7574H23.7874V65.4867ZM23.7874 59.4673H18.0581V53.738H23.7874V59.4673ZM23.7874 53.448H18.0581V47.7187H23.7874V53.448ZM29.8068 95.5835H24.0775V89.8541H29.8068V95.5835ZM29.8068 89.5641H24.0775V83.8348H29.8068V89.5641ZM29.8068 83.5447H24.0775V77.8154H29.8068V83.5447ZM29.8068 77.5254H24.0775V71.7961H29.8068V77.5254ZM29.8068 71.506H24.0775V65.7767H29.8068V71.506ZM29.8068 65.4867H24.0775V59.7574H29.8068V65.4867ZM29.8068 59.4673H24.0775V53.738H29.8068V59.4673ZM29.8068 53.448H24.0775V47.7187H29.8068V53.448ZM35.8262 95.5835H30.0968V89.8541H35.8262V95.5835ZM35.8262 89.5641H30.0968V83.8348H35.8262V89.5641ZM35.8262 83.5447H30.0968V77.8154H35.8262V83.5447ZM35.8262 77.5254H30.0968V71.7961H35.8262V77.5254ZM35.8262 71.506H30.0968V65.7767H35.8262V71.506ZM35.8262 65.4867H30.0968V59.7574H35.8262V65.4867ZM35.8262 59.4673H30.0968V53.738H35.8262V59.4673ZM35.8262 53.448H30.0968V47.7187H35.8262V53.448ZM35.8262 47.4286H30.0968V41.6993H35.8262V47.4286ZM41.8455 95.5835H36.1162V89.8541H41.8455V95.5835ZM41.8455 89.5641H36.1162V83.8348H41.8455V89.5641ZM41.8455 83.5447H36.1162V77.8154H41.8455V83.5447ZM41.8455 77.5254H36.1162V71.7961H41.8455V77.5254ZM41.8455 71.506H36.1162V65.7767H41.8455V71.506ZM41.8455 65.4867H36.1162V59.7574H41.8455V65.4867ZM41.8455 59.4673H36.1162V53.738H41.8455V59.4673ZM41.8455 53.448H36.1162V47.7187H41.8455V53.448ZM41.8455 47.4286H36.1162V41.6993H41.8455V47.4286ZM47.8649 95.5835H42.1356V89.8541H47.8649V95.5835ZM47.8649 89.5641H42.1356V83.8348H47.8649V89.5641ZM47.8649 83.5447H42.1356V77.8154H47.8649V83.5447ZM47.8649 77.5254H42.1356V71.7961H47.8649V77.5254ZM47.8649 71.506H42.1356V65.7767H47.8649V71.506ZM47.8649 65.4867H42.1356V59.7574H47.8649V65.4867ZM47.8649 59.4673H42.1356V53.738H47.8649V59.4673ZM47.8649 53.448H42.1356V47.7187H47.8649V53.448ZM47.8649 47.4286H42.1356V41.6993H47.8649V47.4286ZM47.8649 41.4093H42.1356V35.68H47.8649V41.4093ZM53.8842 95.5835H48.1549V89.8541H53.8842V95.5835ZM53.8842 89.5641H48.1549V83.8348H53.8842V89.5641ZM53.8842 83.5447H48.1549V77.8154H53.8842V83.5447ZM53.8842 77.5254H48.1549V71.7961H53.8842V77.5254ZM53.8842 71.506H48.1549V65.7767H53.8842V71.506ZM53.8842 65.4867H48.1549V59.7574H53.8842V65.4867ZM53.8842 59.4673H48.1549V53.738H53.8842V59.4673ZM53.8842 53.448H48.1549V47.7187H53.8842V53.448ZM53.8842 47.4286H48.1549V41.6993H53.8842V47.4286ZM53.8842 41.4093H48.1549V35.68H53.8842V41.4093ZM59.9036 95.5835H54.1743V89.8541H59.9036V95.5835ZM59.9036 89.5641H54.1743V83.8348H59.9036V89.5641ZM59.9036 83.5447H54.1743V77.8154H59.9036V83.5447ZM59.9036 77.5254H54.1743V71.7961H59.9036V77.5254ZM59.9036 71.506H54.1743V65.7767H59.9036V71.506ZM59.9036 65.4867H54.1743V59.7574H59.9036V65.4867ZM59.9036 59.4673H54.1743V53.738H59.9036V59.4673ZM59.9036 53.448H54.1743V47.7187H59.9036V53.448ZM59.9036 47.4286H54.1743V41.6993H59.9036V47.4286ZM59.9036 41.4093H54.1743V35.68H59.9036V41.4093ZM59.9036 35.3899H54.1743V29.6606H59.9036V35.3899ZM65.9229 95.5835H60.1936V89.8541H65.9229V95.5835ZM65.9229 89.5641H60.1936V83.8348H65.9229V89.5641ZM65.9229 83.5447H60.1936V77.8154H65.9229V83.5447ZM65.9229 77.5254H60.1936V71.7961H65.9229V77.5254ZM65.9229 71.506H60.1936V65.7767H65.9229V71.506ZM65.9229 65.4867H60.1936V59.7574H65.9229V65.4867ZM65.9229 59.4673H60.1936V53.738H65.9229V59.4673ZM65.9229 53.448H60.1936V47.7187H65.9229V53.448ZM65.9229 47.4286H60.1936V41.6993H65.9229V47.4286ZM65.9229 41.4093H60.1936V35.68H65.9229V41.4093ZM65.9229 35.3899H60.1936V29.6606H65.9229V35.3899ZM65.9229 29.3705L60.1936 29.3706V23.6413H65.9229V29.3705ZM71.9423 95.5835H66.213V89.8541H71.9423V95.5835ZM71.9423 89.5641H66.213V83.8348H71.9423V89.5641ZM71.9423 83.5447H66.213V77.8154H71.9423V83.5447ZM71.9423 77.5254H66.213V71.7961H71.9423V77.5254ZM71.9423 71.506H66.213V65.7767H71.9423V71.506ZM71.9423 65.4867H66.213V59.7574H71.9423V65.4867ZM71.9423 59.4673H66.213V53.738H71.9423V59.4673ZM71.9423 53.448H66.213V47.7187H71.9423V53.448ZM71.9423 47.4286H66.213V41.6993H71.9423V47.4286ZM71.9423 41.4093H66.213V35.68H71.9423V41.4093ZM71.9423 35.3899H66.213V29.6606H71.9423V35.3899ZM71.9423 29.3705L66.213 29.3706V23.6413H71.9423V29.3705ZM77.9616 95.5835H72.2323V89.8541H77.9616V95.5835ZM77.9616 89.5641H72.2323V83.8348H77.9616V89.5641ZM77.9616 83.5447H72.2323V77.8154H77.9616V83.5447ZM77.9616 77.5254H72.2323V71.7961H77.9616V77.5254ZM77.9616 71.506H72.2323V65.7767H77.9616V71.506ZM77.9616 65.4867H72.2323V59.7574H77.9616V65.4867ZM77.9616 59.4673H72.2323V53.738H77.9616V59.4673ZM77.9616 53.448H72.2323V47.7187H77.9616V53.448ZM77.9616 47.4286H72.2323V41.6993H77.9616V47.4286ZM77.9616 41.4093H72.2323V35.68H77.9616V41.4093ZM77.9616 35.3899H72.2323V29.6606H77.9616V35.3899ZM77.9616 29.3705L72.2323 29.3706V23.6413H77.9616V29.3705ZM77.9616 23.3512H72.2323V17.6219H77.9616V23.3512ZM83.981 95.5835H78.2517V89.8541H83.981V95.5835ZM83.981 89.5641H78.2517V83.8348H83.981V89.5641ZM83.981 83.5447H78.2517V77.8154H83.981V83.5447ZM83.981 77.5254H78.2517V71.7961H83.981V77.5254ZM83.981 71.506H78.2517V65.7767H83.981V71.506ZM83.981 65.4867H78.2517V59.7574H83.981V65.4867ZM83.981 59.4673H78.2517V53.738H83.981V59.4673ZM83.981 53.448H78.2517V47.7187H83.981V53.448ZM83.981 47.4286H78.2517V41.6993H83.981V47.4286ZM83.981 41.4093H78.2517V35.68H83.981V41.4093ZM83.981 35.3899H78.2517V29.6606H83.981V35.3899ZM83.981 29.3705L78.2517 29.3706V23.6413H83.981V29.3705ZM83.981 23.3512H78.2517V17.6219H83.981V23.3512ZM90.0004 95.5835H84.2711V89.8541H90.0004V95.5835ZM90.0004 89.5641H84.2711V83.8348H90.0004V89.5641ZM90.0004 83.5447H84.2711V77.8154H90.0004V83.5447ZM90.0004 77.5254H84.2711V71.7961H90.0004V77.5254ZM90.0004 71.506H84.2711V65.7767H90.0004V71.506ZM90.0004 65.4867H84.2711V59.7574H90.0004V65.4867ZM90.0004 59.4673H84.2711V53.738H90.0004V59.4673ZM90.0004 53.448H84.2711V47.7187H90.0004V53.448ZM90.0004 47.4286H84.2711V41.6993H90.0004V47.4286ZM90.0004 41.4093H84.2711V35.68H90.0004V41.4093ZM96.0197 95.5835H90.2904V89.8541H96.0197V95.5835ZM96.0197 89.5641H90.2904V83.8348H96.0197V89.5641ZM96.0197 83.5447H90.2904V77.8154H96.0197V83.5447ZM96.0197 77.5254H90.2904V71.7961H96.0197V77.5254ZM96.0197 71.506H90.2904V65.7767H96.0197V71.506ZM96.0197 65.4867H90.2904V59.7574H96.0197V65.4867ZM96.0197 59.4673H90.2904V53.738H96.0197V59.4673ZM96.0197 53.448H90.2904V47.7187H96.0197V53.448ZM96.0197 47.4286H90.2904V41.6993H96.0197V47.4286ZM96.0197 41.4093H90.2904V35.68H96.0197V41.4093ZM102.039 95.5835H96.3098V89.8541H102.039V95.5835ZM102.039 89.5641H96.3098V83.8348H102.039V89.5641ZM102.039 83.5447H96.3098V77.8154H102.039V83.5447ZM102.039 77.5254H96.3098V71.7961H102.039V77.5254ZM102.039 71.506H96.3098V65.7767H102.039V71.506ZM102.039 65.4867H96.3098V59.7574H102.039V65.4867ZM102.039 59.4673H96.3098V53.738H102.039V59.4673ZM102.039 53.448H96.3098V47.7187H102.039V53.448ZM102.039 47.4286H96.3098V41.6993H102.039V47.4286ZM102.039 41.4093H96.3098V35.68H102.039V41.4093ZM108.058 95.5835H102.329V89.8541H108.058V95.5835ZM108.058 89.5641H102.329V83.8348H108.058V89.5641ZM108.058 83.5447H102.329V77.8154H108.058V83.5447ZM108.058 77.5254H102.329V71.7961H108.058V77.5254ZM108.058 71.506H102.329V65.7767H108.058V71.506ZM108.058 65.4867H102.329V59.7574H108.058V65.4867ZM108.058 59.4673H102.329V53.738H108.058V59.4673ZM108.058 53.448H102.329V47.7187H108.058V53.448ZM108.058 47.4286H102.329V41.6993H108.058V47.4286ZM108.058 41.4093H102.329V35.68H108.058V41.4093ZM114.078 95.5835H108.348V89.8541H114.078V95.5835ZM114.078 89.5641H108.348V83.8348H114.078V89.5641ZM114.078 83.5447H108.348V77.8154H114.078V83.5447ZM114.078 77.5254H108.348V71.7961H114.078V77.5254ZM114.078 71.506H108.348V65.7767H114.078V71.506ZM114.078 65.4867H108.348V59.7574H114.078V65.4867ZM114.078 59.4673H108.348V53.738H114.078V59.4673ZM114.078 53.448H108.348V47.7187H114.078V53.448ZM114.078 47.4286H108.348V41.6993H114.078V47.4286ZM114.078 41.4093H108.348V35.68H114.078V41.4093ZM120.097 95.5835H114.368V89.8541H120.097V95.5835ZM120.097 89.5641H114.368V83.8348H120.097V89.5641ZM120.097 83.5447H114.368V77.8154H120.097V83.5447ZM120.097 77.5254H114.368V71.7961H120.097V77.5254ZM120.097 71.506H114.368V65.7767H120.097V71.506ZM120.097 65.4867H114.368V59.7574H120.097V65.4867ZM120.097 59.4673H114.368V53.738H120.097V59.4673ZM120.097 53.448H114.368V47.7187H120.097V53.448ZM120.097 47.4286H114.368V41.6993H120.097V47.4286ZM120.097 41.4093H114.368V35.68H120.097V41.4093ZM126.116 95.5835H120.387V89.8541H126.116V95.5835ZM126.116 89.5641H120.387V83.8348H126.116V89.5641ZM126.116 83.5447H120.387V77.8154H126.116V83.5447ZM126.116 77.5254H120.387V71.7961H126.116V77.5254ZM126.116 71.506H120.387V65.7767H126.116V71.506ZM126.116 65.4867H120.387V59.7574H126.116V65.4867ZM126.116 59.4673H120.387V53.738H126.116V59.4673ZM126.116 53.448H120.387V47.7187H126.116V53.448ZM126.116 47.4286H120.387V41.6993H126.116V47.4286ZM126.116 41.4093H120.387V35.68H126.116V41.4093ZM132.136 95.5835H126.407V89.8541H132.136V95.5835ZM132.136 89.5641H126.407V83.8348H132.136V89.5641ZM132.136 83.5447H126.407V77.8154H132.136V83.5447ZM132.136 77.5254H126.407V71.7961H132.136V77.5254ZM132.136 71.506H126.407V65.7767H132.136V71.506ZM132.136 65.4867H126.407V59.7574H132.136V65.4867ZM132.136 59.4673H126.407V53.738H132.136V59.4673ZM132.136 53.448H126.407V47.7187H132.136V53.448ZM132.136 47.4286H126.407V41.6993H132.136V47.4286ZM132.136 41.4093H126.407V35.68H132.136V41.4093ZM138.155 95.5835H132.426V89.8541H138.155V95.5835ZM138.155 89.5641H132.426V83.8348H138.155V89.5641ZM138.155 83.5447H132.426V77.8154H138.155V83.5447ZM138.155 77.5254H132.426V71.7961H138.155V77.5254ZM138.155 71.506H132.426V65.7767H138.155V71.506ZM138.155 65.4867H132.426V59.7574H138.155V65.4867ZM138.155 59.4673H132.426V53.738H138.155V59.4673ZM138.155 53.448H132.426V47.7187H138.155V53.448ZM138.155 47.4286H132.426V41.6993H138.155V47.4286ZM138.155 41.4093H132.426V35.68H138.155V41.4093ZM144.175 95.5835H138.445V89.8541H144.175V95.5835ZM144.175 89.5641H138.445V83.8348H144.175V89.5641ZM144.175 83.5447H138.445V77.8154H144.175V83.5447ZM144.175 77.5254H138.445V71.7961H144.175V77.5254ZM144.175 71.506H138.445V65.7767H144.175V71.506ZM144.175 65.4867H138.445V59.7574H144.175V65.4867ZM144.175 59.4673H138.445V53.738H144.175V59.4673ZM144.175 53.448H138.445V47.7187H144.175V53.448ZM144.175 47.4286H138.445V41.6993H144.175V47.4286ZM144.175 41.4093H138.445V35.68H144.175V41.4093ZM150.194 95.5835H144.465V89.8541H150.194V95.5835ZM150.194 89.5641H144.465V83.8348H150.194V89.5641ZM150.194 83.5447H144.465V77.8154H150.194V83.5447ZM150.194 77.5254H144.465V71.7961H150.194V77.5254ZM150.194 71.506H144.465V65.7767H150.194V71.506ZM150.194 65.4867H144.465V59.7574H150.194V65.4867ZM150.194 59.4673H144.465V53.738H150.194V59.4673ZM150.194 53.448H144.465V47.7187H150.194V53.448ZM150.194 47.4286H144.465V41.6993H150.194V47.4286ZM150.194 41.4093H144.465V35.68H150.194V41.4093ZM156.168 95.5835H150.484V89.8541H156.168V95.5835ZM156.168 89.5641H150.484V83.8348H156.168V89.5641ZM156.168 83.5447H150.484V77.8154H156.168V83.5447ZM156.168 77.5254H150.484V71.7961H156.168V77.5254ZM156.168 71.506H150.484V65.7767H156.168V71.506ZM156.168 65.4867H150.484V59.7574H156.168V65.4867ZM156.168 59.4673H150.484V53.7381H156.168V59.4673ZM156.168 53.448H150.484V47.7187H156.168V53.448ZM156.168 47.4286H150.484V41.6993H156.168V47.4286ZM156.168 41.4093H150.484V35.68H156.168V41.4093ZM162.187 95.5835H156.458V89.8541H162.187V95.5835ZM162.187 89.5641H156.458V83.8348H162.187V89.5641ZM162.187 83.5447H156.458V77.8154H162.187V83.5447ZM162.187 77.5254H156.458V71.7961H162.187V77.5254ZM162.187 71.506H156.458V65.7767H162.187V71.506ZM162.187 65.4867H156.458V59.7574H162.187V65.4867ZM162.187 59.4673H156.458V53.7381H162.187V59.4673ZM162.187 53.448H156.458V47.7187H162.187V53.448ZM162.187 47.4286H156.458V41.6993H162.187V47.4286ZM162.187 41.4093H156.458V35.68H162.187V41.4093ZM162.187 35.3899H156.458V29.6606H162.187V35.3899ZM168.206 95.5835H162.477V89.8541H168.206V95.5835ZM168.206 89.5641H162.477V83.8348H168.206V89.5641ZM168.206 83.5447H162.477V77.8154H168.206V83.5447ZM168.206 77.5254H162.477V71.7961H168.206V77.5254ZM168.206 71.506H162.477V65.7767H168.206V71.506ZM168.206 65.4867H162.477V59.7574H168.206V65.4867ZM168.206 59.4673H162.477V53.7381H168.206V59.4673ZM168.206 53.448H162.477V47.7187H168.206V53.448ZM168.206 47.4286H162.477V41.6993H168.206V47.4286ZM168.206 41.4093H162.477V35.68H168.206V41.4093ZM168.206 35.3899H162.477V29.6606H168.206V35.3899ZM168.206 29.3706H162.477V23.6413H168.206V29.3706ZM168.206 23.3512H162.477V17.6219H168.206V23.3512ZM174.226 95.5835H168.496V89.8541H174.226V95.5835ZM174.226 89.5641H168.496V83.8348H174.226V89.5641ZM174.226 83.5447H168.496V77.8154H174.226V83.5447ZM174.226 77.5254H168.496V71.7961H174.226V77.5254ZM174.226 71.506H168.496V65.7767H174.226V71.506ZM174.226 65.4867H168.496V59.7574H174.226V65.4867ZM174.226 59.4673H168.496V53.7381H174.226V59.4673ZM174.226 53.448H168.496V47.7187H174.226V53.448ZM174.226 47.4286H168.496V41.6993H174.226V47.4286ZM174.226 41.4093H168.496V35.68H174.226V41.4093ZM174.226 35.3899H168.496V29.6606H174.226V35.3899ZM174.226 29.3706H168.496V23.6413H174.226V29.3706ZM174.226 23.3512H168.496V17.6219H174.226V23.3512ZM174.226 17.3318H168.496V11.6026H174.226V17.3318ZM180.245 95.5835H174.516V89.8541H180.245V95.5835ZM180.245 89.5641H174.516V83.8348H180.245V89.5641ZM180.245 83.5447H174.516V77.8154H180.245V83.5447ZM180.245 77.5254H174.516V71.7961H180.245V77.5254ZM180.245 71.506H174.516V65.7767H180.245V71.506ZM180.245 65.4867H174.516V59.7574H180.245V65.4867ZM180.245 59.4673H174.516V53.7381H180.245V59.4673ZM180.245 53.448H174.516V47.7187H180.245V53.448ZM180.245 47.4286H174.516V41.6993H180.245V47.4286ZM180.245 41.4093H174.516V35.68H180.245V41.4093ZM180.245 35.3899H174.516V29.6606H180.245V35.3899ZM180.245 29.3706H174.516V23.6413H180.245V29.3706ZM180.245 23.3512H174.516V17.6219H180.245V23.3512ZM180.245 17.3318H174.516V11.6026H180.245V17.3318ZM186.264 95.5835H180.535V89.8541H186.264V95.5835ZM186.264 89.5641H180.535V83.8348H186.264V89.5641ZM186.264 83.5447H180.535V77.8154H186.264V83.5447ZM186.264 77.5254H180.535V71.7961H186.264V77.5254ZM186.264 71.506H180.535V65.7767H186.264V71.506ZM186.264 65.4867H180.535V59.7574H186.264V65.4867ZM186.264 59.4673H180.535V53.7381H186.264V59.4673ZM186.264 53.448H180.535V47.7187H186.264V53.448ZM186.264 47.4286H180.535V41.6993H186.264V47.4286ZM186.264 41.4093H180.535V35.68H186.264V41.4093ZM186.264 35.3899H180.535V29.6606H186.264V35.3899ZM186.264 29.3706H180.535V23.6413H186.264V29.3706ZM186.264 23.3512H180.535V17.6219H186.264V23.3512ZM186.264 17.3318H180.535V11.6026H186.264V17.3318ZM186.264 11.3125H180.535V5.58323H186.264V11.3125ZM192.284 83.5447H186.554V77.8154H192.284V83.5447ZM192.284 77.5254H186.554V71.7961H192.284V77.5254ZM192.284 71.506H186.554V65.7767H192.284V71.506ZM192.284 65.4867H186.554V59.7574H192.284V65.4867ZM192.284 59.4673H186.554V53.7381H192.284V59.4673ZM192.284 53.448H186.554V47.7187H192.284V53.448ZM192.284 47.4286H186.554V41.6993H192.284V47.4286ZM192.284 41.4093H186.554V35.68H192.284V41.4093ZM192.284 35.3899H186.554V29.6606H192.284V35.3899ZM192.284 29.3706H186.554V23.6413H192.284V29.3706ZM192.284 23.3512H186.554V17.6219H192.284V23.3512ZM192.284 17.3318H186.554V11.6026H192.284V17.3318ZM192.284 11.3125H186.554V5.58323H192.284V11.3125ZM198.303 83.5447H192.574V77.8154H198.303V83.5447ZM198.303 77.5254H192.574V71.7961H198.303V77.5254ZM198.303 71.506H192.574V65.7767H198.303V71.506ZM198.303 65.4867H192.574V59.7574H198.303V65.4867ZM198.303 59.4673H192.574V53.7381H198.303V59.4673ZM198.303 53.448H192.574V47.7187H198.303V53.448ZM198.303 47.4286H192.574V41.6993H198.303V47.4286ZM198.303 41.4093H192.574V35.68H198.303V41.4093ZM198.303 35.3899H192.574V29.6606H198.303V35.3899ZM198.303 29.3706H192.574V23.6413H198.303V29.3706ZM198.303 23.3512H192.574V17.6219H198.303V23.3512ZM198.303 17.3318H192.574V11.6026H198.303V17.3318ZM198.303 11.3125H192.574V5.58323H198.303V11.3125ZM204.322 83.5447H198.593V77.8154H204.322V83.5447ZM204.322 77.5254H198.593V71.7961H204.322V77.5254ZM204.322 71.506H198.593V65.7767H204.322V71.506ZM204.322 65.4867H198.593V59.7574H204.322V65.4867ZM204.322 59.4673H198.593V53.7381H204.322V59.4673ZM204.322 53.448H198.593V47.7187H204.322V53.448ZM204.322 47.4286H198.593V41.6993H204.322V47.4286ZM204.322 41.4093H198.593V35.68H204.322V41.4093ZM204.322 35.3899H198.593V29.6606H204.322V35.3899ZM204.322 29.3706H198.593V23.6413H204.322V29.3706ZM204.322 23.3512H198.593V17.6219H204.322V23.3512ZM204.322 17.3318H198.593V11.6026H204.322V17.3318ZM204.322 11.3125H198.593V5.58323H204.322V11.3125ZM210.342 83.5447H204.612V77.8154H210.342V83.5447ZM210.342 77.5254H204.612V71.7961H210.342V77.5254ZM210.342 71.506H204.612V65.7767H210.342V71.506ZM210.342 65.4867H204.612V59.7574H210.342V65.4867ZM210.342 59.4673H204.612V53.7381H210.342V59.4673ZM210.342 53.448H204.612V47.7187H210.342V53.448ZM210.342 47.4286H204.612V41.6993H210.342V47.4286ZM210.342 41.4093H204.612V35.68H210.342V41.4093ZM210.342 35.3899H204.612V29.6606H210.342V35.3899ZM210.342 29.3706H204.612V23.6413H210.342V29.3706ZM210.342 23.3512H204.612V17.6219H210.342V23.3512ZM210.342 17.3318H204.612V11.6026H210.342V17.3318ZM210.342 11.3125H204.612V5.58323H210.342V11.3125ZM216.361 77.5254H210.632V71.7961H216.361V77.5254ZM216.361 71.506H210.632V65.7767H216.361V71.506ZM216.361 65.4867H210.632V59.7574H216.361V65.4867ZM216.361 59.4673H210.632V53.7381H216.361V59.4673ZM216.361 53.448H210.632V47.7187H216.361V53.448ZM216.361 47.4286H210.632V41.6993H216.361V47.4286ZM216.361 41.4093H210.632V35.68H216.361V41.4093ZM216.361 35.3899H210.632V29.6606H216.361V35.3899ZM216.361 29.3706H210.632V23.6413H216.361V29.3706ZM216.361 23.3512H210.632V17.6219H216.361V23.3512ZM216.361 17.3318H210.632V11.6026H216.361V17.3318ZM222.38 77.5254H216.651V71.7961H222.38V77.5254ZM222.38 71.506H216.651V65.7767H222.38V71.506ZM222.38 65.4867H216.651V59.7574H222.38V65.4867ZM222.38 59.4673H216.651V53.7381H222.38V59.4673ZM222.38 53.448H216.651V47.7187H222.38V53.448ZM222.38 47.4286H216.651V41.6993H222.38V47.4286ZM222.38 41.4093H216.651V35.68H222.38V41.4093ZM222.38 35.3899H216.651V29.6606H222.38V35.3899ZM222.38 29.3706H216.651V23.6413H222.38V29.3706ZM222.38 23.3512H216.651V17.6219H222.38V23.3512ZM222.38 17.3318H216.651V11.6026H222.38V17.3318ZM228.4 71.506H222.671V65.7767H228.4V71.506ZM228.4 65.4867H222.671V59.7574H228.4V65.4867ZM228.4 59.4673H222.671V53.7381H228.4V59.4673ZM228.4 53.448H222.671V47.7187H228.4V53.448ZM228.4 47.4286H222.671V41.6993H228.4V47.4286ZM228.4 41.4093H222.671V35.68H228.4V41.4093ZM228.4 35.3899H222.671V29.6606H228.4V35.3899ZM228.4 29.3706H222.671V23.6413H228.4V29.3706ZM228.4 23.3512H222.671V17.6219H228.4V23.3512ZM234.419 59.4673H228.69V53.7381H234.419V59.4673ZM234.419 53.448H228.69V47.7187H234.419V53.448ZM234.419 47.4286H228.69V41.6993H234.419V47.4286ZM234.419 41.4093H228.69V35.68H234.419V41.4093ZM234.419 35.3899H228.69V29.6606H234.419V35.3899Z" fill="#D1D1D1"/>
<path d="M90.0002 29.3705H84.271V29.6605H90.0002V29.3705Z" fill="url(#paint3_linear_51_376)"/>
<path d="M5.72919 59.4673H0V59.7573H5.72919V59.4673Z" fill="url(#paint4_linear_51_376)"/>
<path d="M6.01949 52.6516H5.72949V53.4479H6.01949V52.6516Z" fill="url(#paint5_linear_51_376)"/>
<path d="M12.0389 49.3176H11.7489V53.4482H12.0389V49.3176Z" fill="url(#paint6_linear_51_376)"/>
<path d="M5.72919 65.4868H0V65.7768H5.72919V65.4868Z" fill="url(#paint7_linear_51_376)"/>
<path d="M17.7682 47.4285H15.449V47.7185H17.7682V47.4285Z" fill="url(#paint8_linear_51_376)"/>
<path d="M5.72948 53.4479H4.05835V53.7379H5.72948V53.4479Z" fill="url(#paint9_linear_51_376)"/>
<path d="M5.72919 89.564H0V89.854H5.72919V89.564Z" fill="url(#paint10_linear_51_376)"/>
<path d="M5.72919 95.5834H0V95.8734H5.72919V95.5834Z" fill="url(#paint11_linear_51_376)"/>
<path d="M5.72919 77.5254H0V77.8154H5.72919V77.5254Z" fill="url(#paint12_linear_51_376)"/>
<path d="M5.72919 83.5448H0V83.8348H5.72919V83.5448Z" fill="url(#paint13_linear_51_376)"/>
<path d="M5.72919 71.506H0V71.796H5.72919V71.506Z" fill="url(#paint14_linear_51_376)"/>
<path d="M228.69 71.796H228.4V74.6897H228.69V71.796Z" fill="url(#paint15_linear_51_376)"/>
<path d="M216.651 77.8154H216.361V83.5146H216.651V77.8154Z" fill="url(#paint16_linear_51_376)"/>
<path d="M225.564 77.5254H222.671V77.8154H225.564V77.5254Z" fill="url(#paint17_linear_51_376)"/>
<path d="M222.671 77.8154H222.381V80.1763H222.671V77.8154Z" fill="url(#paint18_linear_51_376)"/>
<path d="M198.593 83.8348H198.303V89.1256H198.593V83.8348Z" fill="url(#paint19_linear_51_376)"/>
<path d="M216.314 83.5448H210.632V83.8348H216.314V83.5448Z" fill="url(#paint20_linear_51_376)"/>
<path d="M210.632 83.8348H210.342V86.6686H210.632V83.8348Z" fill="url(#paint21_linear_51_376)"/>
<path d="M204.612 83.8348H204.323V88.3344H204.612V83.8348Z" fill="url(#paint22_linear_51_376)"/>
<path d="M237.543 59.4673H234.709V59.7573H237.543V59.4673Z" fill="url(#paint23_linear_51_376)"/>
<path d="M231.051 71.506H228.69V71.796H231.051V71.506Z" fill="url(#paint24_linear_51_376)"/>
<path d="M18.0581 45.9833H17.7681V47.4287H18.0581V45.9833Z" fill="url(#paint25_linear_51_376)"/>
<path d="M239.209 53.4479H234.709V53.7379H239.209V53.4479Z" fill="url(#paint26_linear_51_376)"/>
<path d="M234.709 59.7574H234.419V65.4648H234.709V59.7574Z" fill="url(#paint27_linear_51_376)"/>
<path d="M234.394 65.4868H228.69V65.7768H234.394V65.4868Z" fill="url(#paint28_linear_51_376)"/>
<path d="M192.574 83.8348H192.284V89.1264H192.574V83.8348Z" fill="url(#paint29_linear_51_376)"/>
<path d="M47.8649 101.603H48.1549V95.8735H47.8649V101.603ZM41.8455 101.603H42.1356V95.8735H41.8455V101.603ZM29.8068 101.603H30.0968V95.8735H29.8068V101.603ZM35.8262 101.603H36.1162V95.8735H35.8262V101.603ZM23.7874 101.603H24.0775V95.8735H23.7874V101.603ZM53.8842 101.603H54.1743V95.8735H53.8842V101.603ZM83.981 101.603H84.2711V95.8735H83.981V101.603ZM90.0004 101.603H90.2904V95.8735H90.0004V101.603ZM102.039 101.603H102.329V95.8735H102.039V101.603ZM59.9036 101.603H60.1936V95.8735H59.9036V101.603ZM17.7681 101.603H18.0581V95.8735H17.7681V101.603ZM71.9423 101.603H72.2324V95.8735H71.9423V101.603ZM77.9617 101.603H78.2517V95.8735H77.9617V101.603ZM96.0197 101.603H96.3098V95.8735H96.0197V101.603ZM11.7488 101.603H12.0388V95.8735H11.7488V101.603ZM108.058 101.603H108.348V95.8735H108.058V101.603ZM5.72937 101.603H6.01942V95.8735H5.72937V101.603ZM65.9229 101.603H66.213V95.8735H65.9229V101.603ZM120.097 101.603H120.387V95.8735H120.097V101.603ZM138.155 101.603H138.445V95.8735H138.155V101.603ZM150.194 101.603H150.484V95.8735H150.194V101.603ZM132.136 101.603H132.426V95.8735H132.136V101.603ZM126.116 101.603H126.407V95.8735H126.116V101.603ZM114.078 101.603H114.368V95.8735H114.078V101.603ZM144.175 101.603H144.465V95.8735H144.175V101.603ZM174.226 101.603H174.516V95.8735H174.226V101.603ZM180.245 101.603H180.535V95.8735H180.245V101.603ZM156.168 101.603H156.458V95.8735H156.168V101.603ZM186.264 95.8735V101.603H186.554V95.8735H186.264ZM168.206 101.603H168.496V95.8735H168.206V101.603ZM162.187 101.603H162.477V95.8735H162.187V101.603Z" fill="url(#paint30_linear_51_376)"/>
<path d="M216.314 5.29324H210.632V5.58324H216.314V5.29324Z" fill="url(#paint31_linear_51_376)"/>
<path d="M180.535 2.45776H180.245V5.29324H180.535V2.45776Z" fill="url(#paint32_linear_51_376)"/>
<path d="M180.245 5.29324H174.588V5.58324H180.245V5.29324Z" fill="url(#paint33_linear_51_376)"/>
<path d="M168.496 8.95279H168.206V11.3127H168.496V8.95279Z" fill="url(#paint34_linear_51_376)"/>
<path d="M204.612 0.793396H204.323V5.29298H204.612V0.793396Z" fill="url(#paint35_linear_51_376)"/>
<path d="M198.593 0.00244141H198.303V5.29324H198.593V0.00244141Z" fill="url(#paint36_linear_51_376)"/>
<path d="M24.0775 42.649H23.7875V47.4285H24.0775V42.649Z" fill="url(#paint37_linear_51_376)"/>
<path d="M192.574 0H192.284V5.29298H192.574V0Z" fill="url(#paint38_linear_51_376)"/>
<path d="M174.516 5.64679H174.226V11.3127H174.516V5.64679Z" fill="url(#paint39_linear_51_376)"/>
<path d="M156.458 23.6686H156.168V29.3707H156.458V23.6686Z" fill="url(#paint40_linear_51_376)"/>
<path d="M153.334 29.3705C153.299 29.4674 153.368 29.5635 153.334 29.6606H156.168V29.3705H153.334Z" fill="url(#paint41_linear_51_376)"/>
<path d="M162.187 23.3513H156.488V23.6413H162.187V23.3513Z" fill="url(#paint42_linear_51_376)"/>
<path d="M168.206 11.3124H165.316V11.6024H168.206V11.3124Z" fill="url(#paint43_linear_51_376)"/>
<path d="M150.484 29.726H150.194V35.3899H150.484V29.726Z" fill="url(#paint44_linear_51_376)"/>
<path d="M162.477 14.4398H162.187V17.3318H162.477V14.4398Z" fill="url(#paint45_linear_51_376)"/>
<path d="M162.187 17.3318H159.827V17.6218H162.187V17.3318Z" fill="url(#paint46_linear_51_376)"/>
<path d="M234.709 23.6831H234.419V29.3707H234.709V23.6831Z" fill="url(#paint47_linear_51_376)"/>
<path d="M240 41.6993C239.994 41.6027 239.988 41.5058 239.982 41.4093H234.709V41.6993H240Z" fill="url(#paint48_linear_51_376)"/>
<path d="M237.543 29.3705H234.709V29.6605H237.543V29.3705Z" fill="url(#paint49_linear_51_376)"/>
<path d="M239.209 35.3899H234.709V35.6799H239.209V35.3899Z" fill="url(#paint50_linear_51_376)"/>
<path d="M234.709 47.7187H239.982C239.988 47.6222 239.994 47.5253 240 47.4286H234.709V47.7187Z" fill="url(#paint51_linear_51_376)"/>
<path d="M210.632 2.45944H210.342V5.29322H210.632V2.45944Z" fill="url(#paint52_linear_51_376)"/>
<path d="M222.671 8.95157H222.381V11.3124H222.671V8.95157Z" fill="url(#paint53_linear_51_376)"/>
<path d="M216.651 5.62744H216.361V11.3124H216.651V5.62744Z" fill="url(#paint54_linear_51_376)"/>
<path d="M225.564 11.3124H222.671V11.6024H225.564V11.3124Z" fill="url(#paint55_linear_51_376)"/>
<path d="M231.051 17.3318H228.69V17.6218H231.051V17.3318Z" fill="url(#paint56_linear_51_376)"/>
<path d="M234.397 23.3513H228.69V23.6413H234.397V23.3513Z" fill="url(#paint57_linear_51_376)"/>
<path d="M228.69 14.4381H228.4V17.3319H228.69V14.4381Z" fill="url(#paint58_linear_51_376)"/>
<path d="M186.554 0.792419H186.264V5.29322H186.554V0.792419Z" fill="url(#paint59_linear_51_376)"/>
<path d="M60.1936 22.6439H59.9036V23.351H60.1936V22.6439Z" fill="url(#paint60_linear_51_376)"/>
<path d="M59.9036 23.3513H58.3932V23.6413H59.9036V23.3513Z" fill="url(#paint61_linear_51_376)"/>
<path d="M54.1744 29.3705V25.9782H53.8844V29.3705H54.1744Z" fill="url(#paint62_linear_51_376)"/>
<path d="M71.9422 17.3318H69.2601V17.6218H71.9422V17.3318Z" fill="url(#paint63_linear_51_376)"/>
<path d="M78.2517 13.4367H77.9617V17.3319H78.2517V13.4367Z" fill="url(#paint64_linear_51_376)"/>
<path d="M72.2324 15.9756H71.9424V17.3318H72.2324V15.9756Z" fill="url(#paint65_linear_51_376)"/>
<path d="M53.8844 29.3705H48.1876V29.6605H53.8844V29.3705Z" fill="url(#paint66_linear_51_376)"/>
<path d="M66.213 19.3099H65.923V23.3513H66.213V19.3099Z" fill="url(#paint67_linear_51_376)"/>
<path d="M30.0969 39.315H29.8069V41.4093H30.0969V39.315Z" fill="url(#paint68_linear_51_376)"/>
<path d="M36.1161 35.9808H35.826V41.4093H36.1161V35.9808Z" fill="url(#paint69_linear_51_376)"/>
<path d="M29.8069 41.4093H25.7924V41.6993H29.8069V41.4093Z" fill="url(#paint70_linear_51_376)"/>
<path d="M42.1355 32.6465H41.8455V35.3899H42.1355V32.6465Z" fill="url(#paint71_linear_51_376)"/>
<path d="M41.8456 35.3899H36.6594V35.6799H41.8456V35.3899Z" fill="url(#paint72_linear_51_376)"/>
<path d="M144.465 29.726H144.175V35.3899H144.465V29.726Z" fill="url(#paint73_linear_51_376)"/>
<path d="M48.155 29.7066H47.865V35.3899H48.155V29.7066Z" fill="url(#paint74_linear_51_376)"/>
<path d="M120.387 29.726H120.097V35.3899H120.387V29.726Z" fill="url(#paint75_linear_51_376)"/>
<path d="M108.348 29.726H108.058V35.3899H108.348V29.726Z" fill="url(#paint76_linear_51_376)"/>
<path d="M114.368 29.726H114.078V35.3899H114.368V29.726Z" fill="url(#paint77_linear_51_376)"/>
<path d="M84.2711 13.4367H83.9811V17.3319H84.2711V13.4367Z" fill="url(#paint78_linear_51_376)"/>
<path d="M132.426 29.726H132.136V35.3899H132.426V29.726Z" fill="url(#paint79_linear_51_376)"/>
<path d="M138.445 29.726H138.155V35.3899H138.445V29.726Z" fill="url(#paint80_linear_51_376)"/>
<path d="M126.407 29.726H126.117V35.3899H126.407V29.726Z" fill="url(#paint81_linear_51_376)"/>
<path d="M102.329 29.726H102.039V35.3899H102.329V29.726Z" fill="url(#paint82_linear_51_376)"/>
<path d="M96.3097 29.726H96.0197V35.3899H96.3097V29.726Z" fill="url(#paint83_linear_51_376)"/>
</g>
<path d="M114.451 80.8498H48.1207C31.3197 80.8498 17.573 94.671 17.573 111.473C17.573 128.273 31.3197 142.095 48.1207 142.095H49.4385H114.451C131.253 142.095 144.999 128.273 144.999 111.473C144.999 94.671 131.253 80.8498 114.451 80.8498Z" fill="#CCCCCC"/>
<path d="M124.164 138.873C123.579 138.873 123.028 138.516 122.809 137.937C122.524 137.188 122.901 136.351 123.65 136.067C124.927 135.582 126.178 134.989 127.367 134.304C128.062 133.905 128.948 134.144 129.347 134.838C129.747 135.532 129.508 136.418 128.814 136.818C127.491 137.579 126.1 138.239 124.679 138.778C124.509 138.842 124.335 138.873 124.164 138.873ZM131.676 134.555C131.253 134.555 130.833 134.37 130.546 134.015C130.044 133.392 130.142 132.479 130.765 131.976C131.521 131.367 132.254 130.706 132.944 130.014C136.587 126.358 139.06 121.801 140.096 116.835C140.26 116.051 141.027 115.548 141.811 115.712C142.595 115.875 143.098 116.643 142.935 117.427C141.784 122.945 139.04 128.006 134.998 132.061C134.235 132.827 133.423 133.558 132.585 134.234C132.317 134.45 131.996 134.555 131.676 134.555Z" fill="url(#paint84_linear_51_376)"/>
<path d="M76.9358 85.1998H61.8429C61.0421 85.1998 60.3929 84.5506 60.3929 83.7498C60.3929 82.949 61.0421 82.2998 61.8429 82.2998H76.9358C77.7366 82.2998 78.3858 82.949 78.3858 83.7498C78.3858 84.5506 77.7366 85.1998 76.9358 85.1998ZM57.4929 85.1998H53.1429C52.3421 85.1998 51.6929 84.5506 51.6929 83.7498C51.6929 82.949 52.3421 82.2998 53.1429 82.2998H57.4929C58.2936 82.2998 58.9429 82.949 58.9429 83.7498C58.9429 84.5506 58.2936 85.1998 57.4929 85.1998Z" fill="url(#paint85_linear_51_376)"/>
<path d="M58.5704 154.095C57.3923 155.273 56.4285 154.874 56.4285 153.207V136.226C56.4285 134.56 57.7916 133.197 59.4578 133.197H76.4403C78.1062 133.197 78.5053 134.161 77.3274 135.339L58.5704 154.095Z" fill="#CCCCCC"/>
<path opacity="0.65" d="M46.9417 91.8286H71.7595C72.334 91.8286 72.7996 91.363 72.7996 90.7886C72.7996 90.2141 72.334 89.7485 71.7595 89.7485H46.8955C46.2875 89.7485 45.8 90.2726 45.8605 90.8925C45.9132 91.4328 46.3989 91.8286 46.9417 91.8286ZM30.5139 102.036H71.7595C72.334 102.036 72.7996 101.571 72.7996 100.996V100.996C72.7996 100.422 72.334 99.9561 71.7595 99.9561H30.4675C29.8597 99.9561 29.372 100.48 29.4326 101.1C29.4854 101.641 29.9711 102.036 30.5139 102.036ZM132.243 120.909H30.329C29.7555 120.909 29.2889 121.375 29.2889 121.949C29.2889 122.522 29.7555 122.989 30.329 122.989H132.243C132.816 122.989 133.283 122.522 133.283 121.949C133.283 121.375 132.816 120.909 132.243 120.909ZM115.854 131.116H46.7172C46.1435 131.116 45.6772 131.583 45.6772 132.156C45.6772 132.73 46.1435 133.197 46.7172 133.197H115.854C116.428 133.197 116.894 132.73 116.894 132.156C116.894 131.583 116.428 131.116 115.854 131.116ZM71.7595 110.701H27.4873C26.9442 110.701 26.4583 111.097 26.4056 111.638C26.3452 112.257 26.8331 112.781 27.4408 112.781H71.7595C72.334 112.781 72.7996 112.316 72.7996 111.741C72.7996 111.167 72.334 110.701 71.7595 110.701Z" fill="#788D9A" stroke="#D1D1D1" stroke-width="0.0604166" stroke-miterlimit="10"/>
<path d="M129.73 36.9697H113.905V37.2597H129.73V36.9697Z" fill="url(#paint86_linear_51_376)"/>
<path d="M229.27 39.3995C229.27 23.5667 216.436 10.7311 200.602 10.7308V39.3996L229.27 39.3995Z" fill="url(#paint87_linear_51_376)"/>
<path d="M195.438 43.839L195.438 15.8952C179.605 15.8952 166.77 28.7301 166.77 44.5627V44.5647C166.77 60.3976 179.606 73.2327 195.438 73.2327C211.272 73.2324 224.106 60.3968 224.107 44.564H196.163C195.763 44.564 195.438 44.2394 195.438 43.839Z" fill="url(#paint88_linear_51_376)"/>
<path opacity="0.75" d="M228.69 39.3995V35.6799H229.031C229.018 35.583 229.003 35.4866 228.99 35.3899H228.69V33.6323C228.603 33.2066 228.505 32.7848 228.4 32.3662V35.3899H222.671V29.6606H227.573C227.538 29.5636 227.502 29.467 227.466 29.3705H222.671V23.6412H224.553C224.489 23.5445 224.426 23.4471 224.361 23.3512H222.671V21.1003C222.575 20.9851 222.478 20.871 222.381 20.7573V23.3512H216.651V17.6219H219.245C219.132 17.5245 219.018 17.4275 218.902 17.3318H216.651V15.641C216.555 15.5761 216.458 15.5132 216.361 15.4494V17.3318H210.632V12.5361C210.535 12.5 210.439 12.4641 210.342 12.4291V17.3318H204.613V11.6025H207.64C207.222 11.497 206.801 11.3995 206.376 11.3125H204.613V11.0115C204.516 10.9979 204.42 10.9834 204.323 10.9709V11.3125H200.602V11.6025H204.323V17.3318H200.602V17.6219H204.323V23.3512H200.602V23.6412H204.323V29.3705H200.602V29.6606H204.323V35.3899H200.602V35.6799H204.323V39.3996H204.613V35.6799H210.342V39.3996H210.632V35.6799H216.361V39.3996H216.651V35.6799H222.381V39.3995H222.671V35.6799H228.4V39.3995H228.69ZM210.342 35.3899H204.613V29.6606H210.342V35.3899ZM210.342 29.3705H204.613V23.6412H210.342V29.3705ZM210.342 23.3512H204.613V17.6219H210.342V23.3512ZM216.361 35.3899H210.632V29.6606H216.361V35.3899ZM216.361 29.3705H210.632V23.6412H216.361V29.3705ZM216.361 23.3512H210.632V17.6219H216.361V23.3512ZM222.381 35.3899H216.651V29.6606H222.381V35.3899ZM222.381 29.3705H216.651V23.6412H222.381V29.3705Z" fill="url(#paint89_linear_51_376)"/>
<path opacity="0.75" d="M222.381 53.738V54.3829C222.493 54.0739 222.599 53.7618 222.701 53.448H222.671V47.7187H223.933C223.944 47.622 223.955 47.5256 223.964 47.4286H222.671V44.564H222.381V47.4286H216.651V44.564H216.361V47.4286H210.632V44.564H210.342V47.4286H204.613V44.564H204.322V47.4286H198.593V44.564H198.303V47.4286H192.574V41.6993H195.438V41.4093H192.574V35.68H195.438V35.3899H192.574V29.6606H195.438V29.3706H192.574V23.6412H195.438V23.3512H192.574V17.6219H195.438V17.3318H192.574V16.0373C192.477 16.0469 192.38 16.0581 192.284 16.0687V17.3318H186.554V17.3005C186.24 17.4029 185.927 17.509 185.617 17.6219H186.264V23.3512H180.535V20.069C180.438 20.1284 180.342 20.1896 180.245 20.25V23.3512H176.153C176.048 23.4467 175.945 23.5442 175.842 23.6412H180.245V29.3706H174.516V24.9672C174.419 25.0707 174.321 25.1737 174.226 25.2787V29.3706H171.125C171.064 29.4671 171.003 29.5633 170.944 29.6606H174.226V35.3899H168.496V34.7443C168.384 35.0535 168.278 35.3659 168.175 35.68H168.206V41.4093H166.944C166.933 41.5059 166.922 41.6024 166.912 41.6993H168.206V47.4286H166.912C166.922 47.5256 166.933 47.622 166.944 47.7187H168.206V53.448H168.176C168.278 53.7619 168.384 54.0741 168.496 54.3832V53.738H174.226V59.4673H170.944C171.003 59.5647 171.065 59.6608 171.125 59.7574H174.226V63.8489C174.321 63.9539 174.419 64.0569 174.516 64.1605V59.7574H180.245V65.4867H175.842C175.945 65.5837 176.048 65.6812 176.153 65.7767H180.245V68.8777C180.342 68.9381 180.438 68.9994 180.535 69.0587V65.7767H186.264V71.506H185.618C185.927 71.6189 186.24 71.725 186.554 71.8273V71.7961H192.284V73.0592C192.38 73.0698 192.477 73.081 192.574 73.0907V71.7961H198.303V73.0906C198.4 73.081 198.496 73.0697 198.593 73.0592V71.7961H204.322V71.8273C204.637 71.7249 204.949 71.6188 205.259 71.506H204.613V65.7767H210.342V69.0587C210.439 68.9993 210.535 68.9381 210.632 68.8776V65.7767H214.723C214.828 65.6812 214.931 65.5837 215.035 65.4867H210.632V59.7574H216.361V64.1604C216.458 64.0569 216.556 63.9538 216.651 63.8488V59.7574H219.752C219.812 59.6608 219.873 59.5647 219.933 59.4673H216.651V53.738H222.381ZM216.651 47.7187H222.381V53.448H216.651V47.7187ZM174.226 53.448H168.496V47.7187H174.226V53.448ZM174.226 47.4286H168.496V41.6993H174.226V47.4286ZM174.226 41.4093H168.496V35.68H174.226V41.4093ZM180.245 59.4673H174.516V53.738H180.245V59.4673ZM180.245 53.448H174.516V47.7187H180.245V53.448ZM180.245 47.4286H174.516V41.6993H180.245V47.4286ZM180.245 41.4093H174.516V35.68H180.245V41.4093ZM180.245 35.3899H174.516V29.6606H180.245V35.3899ZM186.264 65.4867H180.535V59.7574H186.264V65.4867ZM186.264 59.4673H180.535V53.738H186.264V59.4673ZM186.264 53.448H180.535V47.7187H186.264V53.448ZM186.264 47.4286H180.535V41.6993H186.264V47.4286ZM186.264 41.4093H180.535V35.68H186.264V41.4093ZM186.264 35.3899H180.535V29.6606H186.264V35.3899ZM186.264 29.3706H180.535V23.6412H186.264V29.3706ZM192.284 71.506H186.554V65.7767H192.284V71.506ZM192.284 65.4867H186.554V59.7574H192.284V65.4867ZM192.284 59.4673H186.554V53.738H192.284V59.4673ZM192.284 53.448H186.554V47.7187H192.284V53.448ZM192.284 47.4286H186.554V41.6993H192.284V47.4286ZM192.284 41.4093H186.554V35.68H192.284V41.4093ZM192.284 35.3899H186.554V29.6606H192.284V35.3899ZM192.284 29.3706H186.554V23.6412H192.284V29.3706ZM192.284 23.3512H186.554V17.6219H192.284V23.3512ZM198.303 71.506H192.574V65.7767H198.303V71.506ZM198.303 65.4867H192.574V59.7574H198.303V65.4867ZM198.303 59.4673H192.574V53.738H198.303V59.4673ZM198.303 53.448H192.574V47.7187H198.303V53.448ZM204.322 71.506H198.593V65.7767H204.322V71.506ZM204.322 65.4867H198.593V59.7574H204.322V65.4867ZM204.322 59.4673H198.593V53.738H204.322V59.4673ZM204.322 53.448H198.593V47.7187H204.322V53.448ZM210.342 65.4867H204.613V59.7574H210.342V65.4867ZM210.342 59.4673H204.613V53.738H210.342V59.4673ZM210.342 53.448H204.613V47.7187H210.342V53.448ZM216.361 59.4673H210.632V53.738H216.361V59.4673ZM216.361 53.448H210.632V47.7187H216.361V53.448Z" fill="url(#paint90_linear_51_376)"/>
<path d="M225.908 33.6158C225.378 33.6158 224.892 33.2648 224.744 32.7294C224.591 32.1762 224.416 31.6216 224.226 31.0811C224.003 30.4519 224.333 29.7616 224.962 29.5393C225.591 29.3165 226.282 29.6467 226.504 30.2759C226.714 30.8692 226.905 31.4778 227.073 32.0851C227.251 32.7284 226.874 33.3939 226.231 33.5719C226.123 33.6016 226.014 33.6158 225.908 33.6158ZM223.925 28.5641C223.489 28.5641 223.067 28.3265 222.852 27.9118C221.791 25.8659 220.45 23.9725 218.867 22.2839C218.411 21.797 218.435 21.0324 218.922 20.5759C219.409 20.1195 220.174 20.144 220.63 20.6309C222.365 22.4812 223.834 24.5566 224.997 26.7993C225.304 27.3917 225.073 28.1212 224.481 28.4282C224.303 28.5205 224.113 28.5641 223.925 28.5641ZM217.096 20.199C216.829 20.199 216.56 20.111 216.336 19.9298C213.473 17.611 210.079 15.9279 206.522 15.0624C205.874 14.9046 205.476 14.2511 205.633 13.6028C205.791 12.9542 206.446 12.5566 207.093 12.7142C210.995 13.6637 214.717 15.5092 217.857 18.0516C218.376 18.4717 218.456 19.2326 218.036 19.7511C217.797 20.0461 217.448 20.199 217.096 20.199Z" fill="url(#paint91_linear_51_376)"/>
<path d="M174.638 29.772C174.381 29.772 174.121 29.6901 173.902 29.5206C173.373 29.1133 173.275 28.3545 173.682 27.8259C174.066 27.3277 174.473 26.8363 174.89 26.3655C175.333 25.8664 176.097 25.8204 176.596 26.2631C177.095 26.7058 177.141 27.4695 176.698 27.9689C176.318 28.3985 175.947 28.8466 175.596 29.3014C175.358 29.6101 175 29.772 174.638 29.772ZM178.377 25.8359C178.037 25.8359 177.698 25.6929 177.46 25.414C177.025 24.9073 177.084 24.1445 177.591 23.7103C181.477 20.3791 186.189 18.2064 191.217 17.4274C191.879 17.3247 192.494 17.7772 192.597 18.4366C192.699 19.0959 192.247 19.7136 191.587 19.8157C187.004 20.5256 182.708 22.5069 179.163 25.545C178.936 25.7404 178.656 25.8359 178.377 25.8359Z" fill="url(#paint92_linear_51_376)"/>
<path d="M215.715 62.4267C215.445 62.4267 215.173 62.3365 214.948 62.1515C214.432 61.7274 214.359 60.9661 214.782 60.4506C215.148 60.0069 215.502 59.5453 215.835 59.0783C216.223 58.5352 216.978 58.4097 217.521 58.7972C218.064 59.1852 218.19 59.9397 217.802 60.4829C217.436 60.9944 217.049 61.5001 216.649 61.9861C216.41 62.2763 216.064 62.4267 215.715 62.4267ZM218.714 57.9032C218.525 57.9032 218.334 57.8588 218.155 57.7652C217.564 57.4558 217.335 56.7256 217.645 56.1344C218.975 53.5912 219.85 50.8621 220.244 48.0232C220.335 47.3622 220.945 46.898 221.606 46.9924C222.267 47.0839 222.729 47.694 222.637 48.355C222.205 51.4703 221.246 54.4647 219.786 57.2549C219.57 57.6672 219.149 57.9032 218.714 57.9032Z" fill="url(#paint93_linear_51_376)"/>
<path d="M206.295 45.7723H197.356H196.163C195.097 45.7723 194.23 44.9049 194.23 43.8389V40.9325C194.23 40.2651 193.689 39.7242 193.022 39.7242C192.354 39.7242 191.813 40.2651 191.813 40.9325V43.8389C191.813 46.2374 193.765 48.1889 196.163 48.1889H197.356H206.295C206.963 48.1889 207.504 47.648 207.504 46.9806C207.504 46.3132 206.963 45.7723 206.295 45.7723Z" fill="url(#paint94_linear_51_376)"/>
<path d="M211.733 45.7722H209.92C209.253 45.7722 208.712 46.3132 208.712 46.9806C208.712 47.648 209.253 48.1889 209.92 48.1889H211.733C212.4 48.1889 212.941 47.648 212.941 46.9806C212.941 46.3132 212.4 45.7722 211.733 45.7722Z" fill="url(#paint95_linear_51_376)"/>
<path d="M193.022 38.5159C192.354 38.5159 191.813 37.975 191.813 37.3075V35.495C191.813 34.8276 192.354 34.2867 193.022 34.2867C193.689 34.2867 194.23 34.8276 194.23 35.495V37.3075C194.23 37.975 193.689 38.5159 193.022 38.5159Z" fill="url(#paint96_linear_51_376)"/>
<path d="M188.912 108.469V53.1985C188.912 50.9 187.153 48.9983 184.854 48.9983H85.4284C83.13 48.9983 81.2859 50.9 81.2859 53.1985V108.469C81.2859 110.768 83.13 112.781 85.4284 112.781H184.854C187.153 112.781 188.912 110.768 188.912 108.469Z" fill="url(#paint97_linear_51_376)"/>
<path d="M168.336 123.979C169.514 125.157 170.478 124.757 170.478 123.091V106.11C170.478 104.444 169.115 103.081 167.449 103.081H150.466C148.8 103.081 148.401 104.045 149.579 105.222L168.336 123.979Z" fill="url(#paint98_linear_51_376)"/>
<g opacity="0.8">
<path opacity="0.2" d="M176.264 106.775C174.549 106.775 173.623 106.112 172.88 105.579C172.168 105.069 171.606 104.666 170.378 104.666C169.151 104.666 168.59 105.068 167.88 105.578C167.097 106.139 166.21 106.775 164.497 106.775C162.783 106.775 161.897 106.14 161.114 105.579C160.403 105.069 159.841 104.666 158.614 104.666C157.386 104.666 156.825 105.069 156.115 105.578C155.372 106.112 154.447 106.775 152.733 106.775C151.018 106.775 150.094 106.112 149.352 105.578C148.639 105.068 148.079 104.666 146.853 104.666C145.627 104.666 145.066 105.068 144.356 105.578C143.612 106.112 142.688 106.775 140.973 106.775C139.258 106.775 138.334 106.112 137.592 105.578C136.881 105.069 136.32 104.666 135.091 104.666C133.866 104.666 133.304 105.069 132.593 105.578C131.811 106.139 130.925 106.775 129.211 106.775C127.496 106.775 126.611 106.139 125.83 105.578C125.119 105.069 124.557 104.666 123.33 104.666C122.103 104.666 121.541 105.069 120.831 105.578C120.088 106.111 119.163 106.775 117.448 106.775C115.735 106.775 114.849 106.139 114.067 105.578C113.357 105.069 112.795 104.666 111.568 104.666C110.342 104.666 109.781 105.069 109.07 105.578C108.288 106.139 107.403 106.775 105.689 106.775C103.974 106.775 103.089 106.139 102.307 105.578C101.596 105.069 101.034 104.666 99.8081 104.666C98.5805 104.666 98.0197 105.069 97.3098 105.578C96.5666 106.111 95.642 106.775 93.9279 106.775C92.2136 106.775 91.2901 106.112 90.5469 105.578C89.8358 105.068 89.2749 104.666 88.0498 104.666C87.6314 104.666 87.292 104.326 87.292 103.909C87.292 103.491 87.6314 103.152 88.0498 103.152C89.7648 103.152 90.6885 103.815 91.4303 104.348C92.1409 104.858 92.7016 105.26 93.9279 105.26C95.1539 105.26 95.7142 104.858 96.4253 104.35C97.1689 103.815 98.0919 103.152 99.8081 103.152C101.524 103.152 102.447 103.815 103.189 104.348C103.902 104.859 104.463 105.26 105.689 105.26C106.916 105.26 107.477 104.858 108.187 104.348C108.929 103.815 109.853 103.152 111.568 103.152C113.283 103.152 114.169 103.787 114.95 104.348C115.66 104.858 116.221 105.26 117.448 105.26C118.677 105.26 119.238 104.858 119.948 104.348C120.691 103.815 121.615 103.152 123.33 103.152C125.046 103.152 125.969 103.815 126.712 104.348C127.424 104.858 127.985 105.26 129.211 105.26C130.437 105.26 130.998 104.858 131.709 104.35C132.491 103.787 133.377 103.152 135.091 103.152C136.808 103.152 137.732 103.815 138.474 104.348C139.185 104.858 139.746 105.26 140.973 105.26C142.2 105.26 142.761 104.858 143.472 104.348C144.214 103.815 145.138 103.152 146.853 103.152C148.568 103.152 149.492 103.815 150.234 104.348C150.948 104.859 151.508 105.26 152.733 105.26C153.96 105.26 154.522 104.858 155.232 104.348C156.013 103.787 156.899 103.152 158.614 103.152C160.328 103.152 161.215 103.787 161.997 104.347C162.707 104.857 163.268 105.26 164.497 105.26C165.723 105.26 166.284 104.858 166.995 104.349C167.777 103.787 168.663 103.152 170.378 103.152C172.094 103.152 173.019 103.815 173.762 104.347C174.473 104.857 175.035 105.26 176.264 105.26C177.493 105.26 178.054 104.857 178.765 104.347C179.547 103.787 180.434 103.152 182.148 103.152C182.566 103.152 182.906 103.491 182.906 103.909C182.906 104.326 182.566 104.666 182.148 104.666C180.919 104.666 180.358 105.069 179.647 105.579C178.863 106.14 177.977 106.775 176.264 106.775Z" fill="white"/>
<path opacity="0.4" d="M176.264 97.1455C174.549 97.1455 173.662 96.51 172.879 95.9497C172.169 95.4394 171.607 95.0364 170.378 95.0364C169.151 95.0364 168.59 95.4387 167.88 95.948C167.097 96.5095 166.21 97.1455 164.497 97.1455C162.783 97.1455 161.897 96.51 161.114 95.949C160.403 95.439 159.841 95.0364 158.614 95.0364C157.386 95.0364 156.825 95.439 156.115 95.9488C155.372 96.4821 154.447 97.1455 152.733 97.1455C151.018 97.1455 150.094 96.4821 149.352 95.9488C148.639 95.4385 148.079 95.0364 146.853 95.0364C145.627 95.0364 145.066 95.4387 144.356 95.948C143.612 96.4821 142.688 97.1455 140.973 97.1455C139.258 97.1455 138.334 96.4821 137.592 95.9488C136.881 95.439 136.32 95.0364 135.091 95.0364C133.866 95.0364 133.304 95.439 132.593 95.9483C131.811 96.5095 130.925 97.1455 129.211 97.1455C127.496 97.1455 126.611 96.5095 125.83 95.9488C125.119 95.439 124.557 95.0364 123.33 95.0364C122.103 95.0364 121.541 95.439 120.831 95.9488C120.088 96.4816 119.163 97.1455 117.448 97.1455C115.735 97.1455 114.849 96.5095 114.067 95.9488C113.357 95.439 112.795 95.0364 111.568 95.0364C110.342 95.0364 109.781 95.439 109.07 95.9488C108.288 96.5095 107.403 97.1455 105.689 97.1455C103.974 97.1455 103.089 96.5095 102.307 95.9488C101.596 95.439 101.034 95.0364 99.8081 95.0364C98.5805 95.0364 98.0197 95.439 97.3098 95.9488C96.5666 96.4816 95.642 97.1455 93.9279 97.1455C92.2136 97.1455 91.2901 96.4821 90.5469 95.9488C89.8358 95.4387 89.2749 95.0364 88.0498 95.0364C87.6314 95.0364 87.292 94.697 87.292 94.2793C87.292 93.8616 87.6314 93.5219 88.0498 93.5219C89.7643 93.5219 90.6489 94.158 91.4303 94.7185C92.1402 95.228 92.7012 95.6311 93.9279 95.6311C95.1539 95.6311 95.7154 95.2287 96.4265 94.7187C97.1696 94.1853 98.0929 93.5219 99.8081 93.5219C101.523 93.5219 102.447 94.1853 103.189 94.7185C103.901 95.2287 104.462 95.6311 105.689 95.6311C106.917 95.6311 107.477 95.228 108.187 94.7185C108.93 94.1853 109.853 93.5219 111.568 93.5219C113.282 93.5219 114.168 94.158 114.95 94.7185C115.66 95.228 116.22 95.6311 117.448 95.6311C118.678 95.6311 119.239 95.228 119.948 94.7185C120.691 94.1858 121.615 93.5219 123.33 93.5219C125.045 93.5219 125.969 94.1853 126.712 94.7185C127.423 95.228 127.984 95.6311 129.211 95.6311C130.438 95.6311 130.999 95.2287 131.71 94.7187C132.492 94.158 133.378 93.5219 135.091 93.5219C136.807 93.5219 137.732 94.1853 138.474 94.7185C139.184 95.228 139.745 95.6311 140.973 95.6311C142.2 95.6311 142.761 95.228 143.472 94.7185C144.253 94.158 145.139 93.5219 146.853 93.5219C148.567 93.5219 149.452 94.158 150.234 94.7185C150.946 95.2294 151.507 95.6311 152.733 95.6311C153.961 95.6311 154.522 95.228 155.232 94.7185C156.014 94.158 156.9 93.5219 158.614 93.5219C160.328 93.5219 161.214 94.1573 161.996 94.7175C162.706 95.228 163.267 95.6311 164.497 95.6311C165.724 95.6311 166.285 95.228 166.996 94.7185C167.778 94.158 168.664 93.5219 170.378 93.5219C172.093 93.5219 173.018 94.1853 173.762 94.7182C174.472 95.228 175.034 95.6311 176.264 95.6311C177.494 95.6311 178.055 95.228 178.765 94.7182C179.549 94.1568 180.435 93.5219 182.148 93.5219C182.566 93.5219 182.906 93.8616 182.906 94.2793C182.906 94.697 182.566 95.0364 182.148 95.0364C180.919 95.0364 180.358 95.4394 179.647 95.9497C178.863 96.5109 177.977 97.1455 176.264 97.1455Z" fill="white"/>
<path opacity="0.6" d="M176.264 87.5158C174.549 87.5158 173.623 86.8524 172.88 86.32C172.169 85.81 171.607 85.4066 170.378 85.4066C169.151 85.4066 168.589 85.8093 167.879 86.3193C167.097 86.8802 166.21 87.5158 164.497 87.5158C162.783 87.5158 161.897 86.8805 161.114 86.3195C160.403 85.8093 159.841 85.4066 158.614 85.4066C157.385 85.4066 156.824 85.8093 156.115 86.3193C155.372 86.8524 154.447 87.5158 152.733 87.5158C151.018 87.5158 150.094 86.8524 149.352 86.3193C148.641 85.8093 148.079 85.4066 146.853 85.4066C145.627 85.4066 145.066 85.8093 144.355 86.3193C143.612 86.8524 142.688 87.5158 140.973 87.5158C139.258 87.5158 138.334 86.8524 137.592 86.3193C136.881 85.8093 136.32 85.4066 135.091 85.4066C133.865 85.4066 133.303 85.8093 132.593 86.3193C131.811 86.8802 130.925 87.5158 129.211 87.5158C127.496 87.5158 126.611 86.8802 125.83 86.3193C125.119 85.8093 124.557 85.4066 123.33 85.4066C122.101 85.4066 121.541 85.8093 120.831 86.3193C120.088 86.8524 119.163 87.5158 117.448 87.5158C115.735 87.5158 114.849 86.8802 114.067 86.3193C113.357 85.8093 112.796 85.4066 111.568 85.4066C110.341 85.4066 109.78 85.8093 109.07 86.3193C108.288 86.8802 107.403 87.5158 105.689 87.5158C103.974 87.5158 103.089 86.8802 102.307 86.3193C101.597 85.8093 101.035 85.4066 99.8081 85.4066C98.5795 85.4066 98.0192 85.8093 97.3098 86.3193C96.5666 86.8524 95.642 87.5158 93.9279 87.5158C92.2136 87.5158 91.2901 86.8524 90.5469 86.3193C89.8366 85.8093 89.2756 85.4066 88.0498 85.4066C87.6314 85.4066 87.292 85.067 87.292 84.6495C87.292 84.2321 87.6314 83.8925 88.0498 83.8925C89.7643 83.8925 90.6489 84.5283 91.4303 85.089C92.1409 85.5987 92.7016 86.0014 93.9279 86.0014C95.1539 86.0014 95.7142 85.5992 96.4253 85.0904C97.1696 84.5556 98.0929 83.8925 99.8081 83.8925C101.523 83.8925 102.447 84.5556 103.189 85.089C103.902 85.5997 104.463 86.0014 105.689 86.0014C106.916 86.0014 107.477 85.5987 108.187 85.089C108.93 84.5556 109.853 83.8925 111.568 83.8925C113.282 83.8925 114.168 84.5283 114.95 85.089C115.66 85.5987 116.221 86.0014 117.448 86.0014C118.677 86.0014 119.238 85.5987 119.948 85.089C120.691 84.5561 121.615 83.8925 123.33 83.8925C125.045 83.8925 125.969 84.5556 126.712 85.089C127.424 85.599 127.985 86.0014 129.211 86.0014C130.437 86.0014 130.998 85.5992 131.709 85.0904C132.492 84.5283 133.378 83.8925 135.091 83.8925C136.807 83.8925 137.732 84.5556 138.474 85.089C139.185 85.5987 139.746 86.0014 140.973 86.0014C142.2 86.0014 142.761 85.5987 143.472 85.0892C144.253 84.5283 145.139 83.8925 146.853 83.8925C148.567 83.8925 149.452 84.5283 150.234 85.089C150.948 85.5999 151.508 86.0014 152.733 86.0014C153.96 86.0014 154.522 85.5987 155.232 85.089C156.014 84.5283 156.9 83.8925 158.614 83.8925C160.327 83.8925 161.213 84.5273 161.996 85.0871C162.707 85.598 163.268 86.0014 164.497 86.0014C165.723 86.0014 166.284 85.599 166.995 85.0895C167.778 84.5283 168.664 83.8925 170.378 83.8925C172.093 83.8925 172.979 84.5278 173.762 85.0881C174.473 85.5983 175.034 86.0014 176.264 86.0014C177.493 86.0014 178.055 85.5983 178.765 85.0881C179.549 84.5268 180.435 83.8925 182.148 83.8925C182.566 83.8925 182.906 84.2321 182.906 84.6495C182.906 85.067 182.566 85.4066 182.148 85.4066C180.919 85.4066 180.357 85.81 179.647 86.32C178.863 86.8807 177.977 87.5158 176.264 87.5158Z" fill="white"/>
<path opacity="0.8" d="M176.264 77.8863C174.548 77.8863 173.622 77.2231 172.88 76.6905C172.167 76.1802 171.606 75.7776 170.378 75.7776C169.153 75.7776 168.591 76.1795 167.881 76.6884C167.136 77.2231 166.212 77.8863 164.497 77.8863C162.782 77.8863 161.895 77.2507 161.114 76.6898C160.401 76.1795 159.84 75.7776 158.614 75.7776C157.387 75.7776 156.826 76.1802 156.115 76.6898C155.372 77.2231 154.448 77.8863 152.733 77.8863C151.017 77.8863 150.094 77.2231 149.352 76.6898C148.639 76.1793 148.078 75.7776 146.853 75.7776C145.628 75.7776 145.067 76.1795 144.357 76.6881C143.613 77.2231 142.688 77.8863 140.973 77.8863C139.258 77.8863 138.334 77.2231 137.592 76.6898C136.88 76.18 136.319 75.7776 135.091 75.7776C133.867 75.7776 133.305 76.1795 132.595 76.6888C131.85 77.2231 130.926 77.8863 129.211 77.8863C127.496 77.8863 126.572 77.2231 125.83 76.6898C125.118 76.18 124.556 75.7776 123.33 75.7776C122.103 75.7776 121.542 76.1802 120.831 76.6895C120.088 77.2231 119.164 77.8863 117.448 77.8863C115.734 77.8863 114.848 77.2507 114.067 76.6898C113.356 76.18 112.795 75.7776 111.568 75.7776C110.342 75.7776 109.782 76.18 109.071 76.6893C108.327 77.2231 107.403 77.8863 105.689 77.8863C103.974 77.8863 103.05 77.2231 102.307 76.6898C101.595 76.18 101.034 75.7776 99.8081 75.7776C98.5811 75.7776 98.0202 76.1802 97.3098 76.6895C96.5673 77.2231 95.6432 77.8863 93.9279 77.8863C92.2124 77.8863 91.2894 77.2231 90.5469 76.6898C89.8347 76.1793 89.2744 75.7776 88.0498 75.7776C87.6314 75.7776 87.292 75.4378 87.292 75.02C87.292 74.6026 87.6314 74.2632 88.0498 74.2632C89.7629 74.2632 90.6482 74.8985 91.4296 75.4592C92.1409 75.9695 92.7021 76.3719 93.9279 76.3719C95.1539 76.3719 95.7142 75.9702 96.4253 75.4611C97.2079 74.8987 98.0938 74.2632 99.8081 74.2632C101.522 74.2632 102.408 74.8987 103.189 75.4597C103.902 75.9702 104.463 76.3719 105.689 76.3719C106.916 76.3719 107.477 75.9695 108.187 75.4597C108.969 74.8987 109.854 74.2632 111.568 74.2632C113.282 74.2632 114.168 74.8985 114.949 75.459C115.66 75.9695 116.221 76.3719 117.448 76.3719C118.677 76.3719 119.238 75.9695 119.948 75.4597C120.73 74.8987 121.616 74.2632 123.33 74.2632C125.044 74.2632 125.93 74.8987 126.712 75.4597C127.424 75.9695 127.985 76.3719 129.211 76.3719C130.437 76.3719 130.998 75.9702 131.709 75.4611C132.493 74.8985 133.379 74.2632 135.091 74.2632C136.806 74.2632 137.731 74.9266 138.474 75.4597C139.185 75.9695 139.746 76.3719 140.973 76.3719C142.2 76.3719 142.761 75.9695 143.472 75.4599C144.254 74.8987 145.139 74.2632 146.853 74.2632C148.566 74.2632 149.452 74.8987 150.234 75.4597C150.948 75.9704 151.508 76.3719 152.733 76.3719C153.96 76.3719 154.522 75.9695 155.232 75.4597C156.014 74.8985 156.901 74.2632 158.614 74.2632C160.327 74.2632 161.213 74.898 161.996 75.4583C162.707 75.9695 163.268 76.3719 164.497 76.3719C165.723 76.3719 166.284 75.9695 166.995 75.4602C167.779 74.8985 168.665 74.2632 170.378 74.2632C172.093 74.2632 172.979 74.8987 173.762 75.4592C174.474 75.9695 175.036 76.3719 176.264 76.3719C177.493 76.3719 178.054 75.9695 178.765 75.4592C179.549 74.8978 180.435 74.2632 182.148 74.2632C182.566 74.2632 182.906 74.6026 182.906 75.02C182.906 75.4378 182.566 75.7776 182.148 75.7776C180.92 75.7776 180.358 76.1805 179.647 76.6905C178.865 77.2514 177.978 77.8863 176.264 77.8863Z" fill="white"/>
<path d="M176.264 68.2571C174.549 68.2571 173.662 67.6215 172.879 67.0615C172.169 66.5507 171.607 66.1479 170.378 66.1479C169.151 66.1479 168.59 66.5505 167.879 67.0608C167.097 67.6215 166.21 68.2571 164.497 68.2571C162.783 68.2571 161.897 67.6215 161.115 67.0615C160.403 66.5505 159.841 66.1479 158.614 66.1479C157.386 66.1479 156.824 66.5505 156.115 67.0608C155.333 67.6215 154.447 68.2571 152.733 68.2571C151.019 68.2571 150.094 67.5934 149.352 67.0608C148.64 66.5503 148.079 66.1479 146.853 66.1479C145.627 66.1479 145.066 66.5505 144.355 67.0601C143.573 67.6215 142.687 68.2571 140.973 68.2571C139.259 68.2571 138.334 67.5934 137.592 67.0608C136.881 66.5505 136.32 66.1479 135.091 66.1479C133.866 66.1479 133.303 66.5505 132.593 67.0608C131.811 67.6215 130.925 68.2571 129.211 68.2571C127.497 68.2571 126.611 67.6215 125.83 67.0608C125.119 66.5505 124.557 66.1479 123.33 66.1479C122.102 66.1479 121.541 66.5507 120.831 67.0608C120.049 67.6215 119.163 68.2571 117.448 68.2571C115.735 68.2571 114.85 67.6215 114.068 67.0615C113.357 66.5505 112.796 66.1479 111.568 66.1479C110.341 66.1479 109.78 66.5507 109.07 67.0608C108.288 67.6215 107.402 68.2571 105.689 68.2571C103.975 68.2571 103.089 67.6215 102.307 67.0608C101.597 66.5505 101.035 66.1479 99.8081 66.1479C98.58 66.1479 98.0192 66.5507 97.3098 67.0608C96.5277 67.6215 95.642 68.2571 93.9279 68.2571C92.2141 68.2571 91.3279 67.6215 90.5469 67.0608C89.8366 66.5505 89.2756 66.1479 88.0498 66.1479C87.6314 66.1479 87.292 65.8083 87.292 65.3908C87.292 64.9736 87.6314 64.6339 88.0498 64.6339C89.7643 64.6339 90.6493 65.2693 91.4303 65.8302C92.1402 66.3398 92.7012 66.7424 93.9279 66.7424C95.1539 66.7424 95.7154 66.3402 96.4265 65.8302C97.1689 65.2971 98.0924 64.6339 99.8081 64.6339C101.523 64.6339 102.447 65.2971 103.189 65.8302C103.901 66.3405 104.462 66.7424 105.689 66.7424C106.917 66.7424 107.477 66.3398 108.187 65.8302C108.93 65.2971 109.853 64.6339 111.568 64.6339C113.283 64.6339 114.169 65.2693 114.95 65.8302C115.66 66.3398 116.22 66.7424 117.448 66.7424C118.678 66.7424 119.239 66.3398 119.948 65.8302C120.691 65.2971 121.615 64.6339 123.33 64.6339C125.045 64.6339 125.969 65.2971 126.712 65.8302C127.423 66.3398 127.984 66.7424 129.211 66.7424C130.438 66.7424 130.999 66.3402 131.71 65.8302C132.492 65.2693 133.377 64.6339 135.091 64.6339C136.808 64.6339 137.732 65.2971 138.474 65.8302C139.184 66.3398 139.745 66.7424 140.973 66.7424C142.2 66.7424 142.761 66.3398 143.472 65.8302C144.214 65.2971 145.139 64.6339 146.853 64.6339C148.567 64.6339 149.491 65.2971 150.234 65.8302C150.946 66.3407 151.507 66.7424 152.733 66.7424C153.961 66.7424 154.522 66.3398 155.232 65.8302C156.014 65.2693 156.899 64.6339 158.614 64.6339C160.328 64.6339 161.214 65.269 161.997 65.8295C162.706 66.3395 163.267 66.7424 164.497 66.7424C165.724 66.7424 166.285 66.3398 166.996 65.8302C167.778 65.2693 168.663 64.6339 170.378 64.6339C172.094 64.6339 173.019 65.2969 173.762 65.8295C174.472 66.3395 175.034 66.7424 176.264 66.7424C177.494 66.7424 178.055 66.3395 178.765 65.8295C179.548 65.2688 180.434 64.6339 182.148 64.6339C182.566 64.6339 182.906 64.9736 182.906 65.3908C182.906 65.8083 182.566 66.1479 182.148 66.1479C180.919 66.1479 180.358 66.5507 179.647 67.0615C178.863 67.6227 177.977 68.2571 176.264 68.2571Z" fill="white"/>
<path d="M176.264 58.6278C174.549 58.6278 173.662 57.992 172.88 57.4315C172.168 56.9215 171.606 56.5187 170.378 56.5187C169.152 56.5187 168.591 56.921 167.88 57.4301C167.097 57.992 166.21 58.6278 164.497 58.6278C162.783 58.6278 161.897 57.9923 161.115 57.4318C160.402 56.9213 159.841 56.5187 158.614 56.5187C157.387 56.5187 156.825 56.9213 156.115 57.4311C155.333 57.992 154.447 58.6278 152.733 58.6278C151.019 58.6278 150.094 57.9644 149.352 57.4311C148.639 56.9208 148.079 56.5187 146.853 56.5187C145.628 56.5187 145.067 56.921 144.356 57.4296C143.573 57.992 142.687 58.6278 140.973 58.6278C139.259 58.6278 138.334 57.9644 137.592 57.4311C136.881 56.9213 136.319 56.5187 135.091 56.5187C133.866 56.5187 133.305 56.9213 132.594 57.4303C131.811 57.992 130.925 58.6278 129.211 58.6278C127.497 58.6278 126.611 57.992 125.83 57.4311C125.118 56.9213 124.557 56.5187 123.33 56.5187C122.103 56.5187 121.542 56.9213 120.831 57.4311C120.049 57.992 119.163 58.6278 117.448 58.6278C115.735 58.6278 114.85 57.992 114.068 57.4315C113.356 56.9213 112.795 56.5187 111.568 56.5187C110.342 56.5187 109.781 56.9213 109.07 57.4311C108.288 57.992 107.402 58.6278 105.689 58.6278C103.975 58.6278 103.089 57.992 102.307 57.4311C101.596 56.9213 101.034 56.5187 99.8081 56.5187C98.5805 56.5187 98.0197 56.9215 97.3098 57.4311C96.5277 57.992 95.642 58.6278 93.9279 58.6278C92.2141 58.6278 91.3279 57.992 90.5469 57.4311C89.8351 56.921 89.2744 56.5187 88.0498 56.5187C87.6314 56.5187 87.292 56.1788 87.292 55.7611C87.292 55.3441 87.6314 55.0045 88.0498 55.0045C89.7643 55.0045 90.6493 55.6398 91.4303 56.2005C92.1414 56.711 92.7021 57.1134 93.9279 57.1134C95.1532 57.1134 95.7135 56.7112 96.4241 56.2024C97.1689 55.6676 98.0924 55.0045 99.8081 55.0045C101.523 55.0045 102.447 55.6676 103.189 56.2005C103.903 56.7115 104.464 57.1134 105.689 57.1134C106.915 57.1134 107.477 56.7108 108.187 56.2005C108.93 55.6676 109.853 55.0045 111.568 55.0045C113.283 55.0045 114.169 55.6398 114.95 56.2005C115.66 56.7103 116.221 57.1134 117.448 57.1134C118.677 57.1134 119.237 56.7103 119.948 56.2005C120.691 55.6676 121.615 55.0045 123.33 55.0045C125.045 55.0045 125.969 55.6676 126.712 56.2005C127.424 56.711 127.986 57.1134 129.211 57.1134C130.437 57.1134 130.998 56.7112 131.708 56.2024C132.492 55.6398 133.377 55.0045 135.091 55.0045C136.808 55.0045 137.732 55.6676 138.474 56.2005C139.185 56.7108 139.746 57.1134 140.973 57.1134C142.199 57.1134 142.761 56.711 143.47 56.2015C144.214 55.6676 145.139 55.0045 146.853 55.0045C148.567 55.0045 149.491 55.6676 150.234 56.2005C150.948 56.7117 151.508 57.1134 152.733 57.1134C153.959 57.1134 154.521 56.7108 155.231 56.2012C156.014 55.6398 156.899 55.0045 158.614 55.0045C160.328 55.0045 161.214 55.6396 161.997 56.2001C162.707 56.7103 163.268 57.1134 164.497 57.1134C165.722 57.1134 166.284 56.711 166.994 56.2019C167.778 55.6398 168.663 55.0045 170.378 55.0045C172.094 55.0045 173.019 55.6674 173.762 56.2001C174.474 56.7103 175.036 57.1134 176.264 57.1134C177.493 57.1134 178.054 56.7103 178.765 56.2001C179.548 55.6393 180.434 55.0045 182.148 55.0045C182.566 55.0045 182.906 55.3441 182.906 55.7611C182.906 56.1788 182.566 56.5187 182.148 56.5187C180.92 56.5187 180.358 56.9215 179.647 57.4315C178.863 57.9932 177.977 58.6278 176.264 58.6278Z" fill="white"/>
</g>
<path d="M63.2279 73.4105C63.2279 73.9974 63.6274 74.4911 64.2136 74.4911H73.8334C74.4204 74.4911 74.9272 73.9974 74.9272 73.4105V34.3811C74.9272 33.7943 74.4204 33.3252 73.8334 33.3252H64.2136C63.6274 33.3252 63.2279 33.7943 63.2279 34.3811V73.4105Z" fill="#B51E74"/>
<path d="M45.1698 73.4105C45.1698 73.9974 45.5694 74.4911 46.1556 74.4911H55.7754C56.3624 74.4911 56.8691 73.9974 56.8691 73.4105V44.3837C56.8691 43.7968 56.3624 43.3278 55.7754 43.3278H46.1556C45.5694 43.3278 45.1698 43.7968 45.1698 44.3837V73.4105Z" fill="#B51E74"/>
<path d="M27.1118 73.4106C27.1118 73.9974 27.5115 74.4911 28.0977 74.4911H37.7174C38.3045 74.4911 38.8112 73.9974 38.8112 73.4106V54.3862C38.8112 53.7994 38.3045 53.3303 37.7174 53.3303H28.0977C27.5115 53.3303 27.1118 53.7994 27.1118 54.3862V73.4106Z" fill="url(#paint99_linear_51_376)"/>
<path d="M9.05371 73.4105C9.05371 73.9974 9.45345 74.4911 10.0396 74.4911H19.6594C20.2464 74.4911 20.7532 73.9974 20.7532 73.4105V64.3887C20.7532 63.8019 20.2464 63.3328 19.6594 63.3328H10.0396C9.45345 63.3328 9.05371 63.8019 9.05371 64.3887V73.4105Z" fill="#E85D24"/>
<path d="M27.1118 73.4106C27.1118 73.9974 27.5115 74.4911 28.0977 74.4911H37.7174C38.3045 74.4911 38.8112 73.9974 38.8112 73.4106V54.3862C38.8112 53.7994 38.3045 53.3303 37.7174 53.3303H28.0977C27.5115 53.3303 27.1118 53.7994 27.1118 54.3862V73.4106Z" fill="#E85D24"/>
<path d="M72.9938 50.9308C72.46 50.9308 72.0271 50.498 72.0271 49.9642V48.0308C72.0271 47.497 72.46 47.0642 72.9938 47.0642C73.5277 47.0642 73.9605 47.497 73.9605 48.0308V49.9642C73.9605 50.498 73.5277 50.9308 72.9938 50.9308ZM72.9938 46.0975C72.46 46.0975 72.0271 45.6647 72.0271 45.1308V36.2253H70.8323C70.2984 36.2253 69.8656 35.7924 69.8656 35.2586C69.8656 34.7248 70.2984 34.2919 70.8323 34.2919H72.9938C73.5277 34.2919 73.9605 34.7248 73.9605 35.2586V45.1308C73.9605 45.6647 73.5277 46.0975 72.9938 46.0975Z" fill="url(#paint100_linear_51_376)"/>
<path d="M18.8199 68.8096C18.286 68.8096 17.8532 68.3768 17.8532 67.843V66.233H16.6583C16.1245 66.233 15.6917 65.8001 15.6917 65.2663C15.6917 64.7325 16.1245 64.2996 16.6583 64.2996H18.8199C19.3537 64.2996 19.7865 64.7325 19.7865 65.2663V67.843C19.7865 68.3768 19.3537 68.8096 18.8199 68.8096Z" fill="url(#paint101_linear_51_376)"/>
<path d="M54.9359 56.8906C54.4021 56.8906 53.9693 56.4577 53.9693 55.9239V53.9906C53.9693 53.4567 54.4021 53.0239 54.9359 53.0239C55.4698 53.0239 55.9026 53.4567 55.9026 53.9906V55.9239C55.9026 56.4577 55.4698 56.8906 54.9359 56.8906ZM54.9359 52.0572C54.4021 52.0572 53.9693 51.6244 53.9693 51.0906V46.2277H52.7743C52.2404 46.2277 51.8076 45.7949 51.8076 45.2611C51.8076 44.7272 52.2404 44.2944 52.7743 44.2944H54.9359C55.4698 44.2944 55.9026 44.7272 55.9026 45.2611V51.0906C55.9026 51.6244 55.4698 52.0572 54.9359 52.0572Z" fill="url(#paint102_linear_51_376)"/>
<path d="M36.878 62.8501C36.3441 62.8501 35.9113 62.4173 35.9113 61.8834V60.9168C35.9113 60.3829 36.3441 59.9501 36.878 59.9501C37.4118 59.9501 37.8446 60.3829 37.8446 60.9168V61.8834C37.8446 62.4173 37.4118 62.8501 36.878 62.8501ZM36.878 58.9834C36.3441 58.9834 35.9113 58.5506 35.9113 58.0168V56.2302H34.7163C34.1825 56.2302 33.7496 55.7974 33.7496 55.2636C33.7496 54.7297 34.1825 54.2969 34.7163 54.2969H36.878C37.4118 54.2969 37.8446 54.7297 37.8446 55.2636V58.0168C37.8446 58.5506 37.4118 58.9834 36.878 58.9834Z" fill="url(#paint103_linear_51_376)"/>
<defs>
<linearGradient id="paint0_linear_51_376" x1="84.271" y1="17.4768" x2="90.0004" y2="17.4768" gradientUnits="userSpaceOnUse">
<stop stop-color="#D1D1D1"/>
<stop offset="1" stop-color="#D1D1D1" stop-opacity="0"/>
</linearGradient>
<linearGradient id="paint1_linear_51_376" x1="84.271" y1="23.4963" x2="90.0004" y2="23.4963" gradientUnits="userSpaceOnUse">
<stop stop-color="#D1D1D1"/>
<stop offset="1" stop-color="#D1D1D1" stop-opacity="0"/>
</linearGradient>
<linearGradient id="paint2_linear_51_376" x1="90.1455" y1="35.3899" x2="90.1455" y2="29.726" gradientUnits="userSpaceOnUse">
<stop stop-color="#D1D1D1"/>
<stop offset="1" stop-color="#D1D1D1" stop-opacity="0"/>
</linearGradient>
<linearGradient id="paint3_linear_51_376" x1="84.271" y1="29.5155" x2="90.0004" y2="29.5155" gradientUnits="userSpaceOnUse">
<stop stop-color="#D1D1D1"/>
<stop offset="1" stop-color="#D1D1D1" stop-opacity="0"/>
</linearGradient>
<linearGradient id="paint4_linear_51_376" x1="5.72943" y1="59.6123" x2="0" y2="59.6123" gradientUnits="userSpaceOnUse">
<stop stop-color="#D1D1D1"/>
<stop offset="1" stop-color="#D1D1D1" stop-opacity="0"/>
</linearGradient>
<linearGradient id="paint5_linear_51_376" x1="5.87449" y1="53.4479" x2="5.87449" y2="52.6516" gradientUnits="userSpaceOnUse">
<stop stop-color="#D1D1D1"/>
<stop offset="1" stop-color="#D1D1D1" stop-opacity="0"/>
</linearGradient>
<linearGradient id="paint6_linear_51_376" x1="11.8939" y1="53.4479" x2="11.8939" y2="49.3176" gradientUnits="userSpaceOnUse">
<stop stop-color="#D1D1D1"/>
<stop offset="1" stop-color="#D1D1D1" stop-opacity="0"/>
</linearGradient>
<linearGradient id="paint7_linear_51_376" x1="5.72943" y1="65.6318" x2="0" y2="65.6318" gradientUnits="userSpaceOnUse">
<stop stop-color="#D1D1D1"/>
<stop offset="1" stop-color="#D1D1D1" stop-opacity="0"/>
</linearGradient>
<linearGradient id="paint8_linear_51_376" x1="17.768" y1="47.5737" x2="15.449" y2="47.5737" gradientUnits="userSpaceOnUse">
<stop stop-color="#D1D1D1"/>
<stop offset="1" stop-color="#D1D1D1" stop-opacity="0"/>
</linearGradient>
<linearGradient id="paint9_linear_51_376" x1="5.72948" y1="53.5929" x2="4.05835" y2="53.5929" gradientUnits="userSpaceOnUse">
<stop stop-color="#D1D1D1"/>
<stop offset="1" stop-color="#D1D1D1" stop-opacity="0"/>
</linearGradient>
<linearGradient id="paint10_linear_51_376" x1="5.72943" y1="89.709" x2="0" y2="89.709" gradientUnits="userSpaceOnUse">
<stop stop-color="#D1D1D1"/>
<stop offset="1" stop-color="#D1D1D1" stop-opacity="0"/>
</linearGradient>
<linearGradient id="paint11_linear_51_376" x1="5.72943" y1="95.7284" x2="0" y2="95.7284" gradientUnits="userSpaceOnUse">
<stop stop-color="#D1D1D1"/>
<stop offset="1" stop-color="#D1D1D1" stop-opacity="0"/>
</linearGradient>
<linearGradient id="paint12_linear_51_376" x1="5.72943" y1="77.6704" x2="0" y2="77.6704" gradientUnits="userSpaceOnUse">
<stop stop-color="#D1D1D1"/>
<stop offset="1" stop-color="#D1D1D1" stop-opacity="0"/>
</linearGradient>
<linearGradient id="paint13_linear_51_376" x1="5.72943" y1="83.6898" x2="0" y2="83.6898" gradientUnits="userSpaceOnUse">
<stop stop-color="#D1D1D1"/>
<stop offset="1" stop-color="#D1D1D1" stop-opacity="0"/>
</linearGradient>
<linearGradient id="paint14_linear_51_376" x1="5.72943" y1="71.651" x2="0" y2="71.651" gradientUnits="userSpaceOnUse">
<stop stop-color="#D1D1D1"/>
<stop offset="1" stop-color="#D1D1D1" stop-opacity="0"/>
</linearGradient>
<linearGradient id="paint15_linear_51_376" x1="228.545" y1="71.9071" x2="228.545" y2="74.4531" gradientUnits="userSpaceOnUse">
<stop stop-color="#D1D1D1"/>
<stop offset="1" stop-color="#D1D1D1" stop-opacity="0"/>
</linearGradient>
<linearGradient id="paint16_linear_51_376" x1="216.506" y1="78.1622" x2="216.506" y2="82.8832" gradientUnits="userSpaceOnUse">
<stop stop-color="#D1D1D1"/>
<stop offset="1" stop-color="#D1D1D1" stop-opacity="0"/>
</linearGradient>
<linearGradient id="paint17_linear_51_376" x1="222.909" y1="77.6704" x2="225.315" y2="77.6704" gradientUnits="userSpaceOnUse">
<stop stop-color="#D1D1D1"/>
<stop offset="1" stop-color="#D1D1D1" stop-opacity="0"/>
</linearGradient>
<linearGradient id="paint18_linear_51_376" x1="222.526" y1="78.0117" x2="222.526" y2="79.8928" gradientUnits="userSpaceOnUse">
<stop stop-color="#D1D1D1"/>
<stop offset="1" stop-color="#D1D1D1" stop-opacity="0"/>
</linearGradient>
<linearGradient id="paint19_linear_51_376" x1="198.448" y1="84.4557" x2="198.448" y2="88.6102" gradientUnits="userSpaceOnUse">
<stop stop-color="#D1D1D1"/>
<stop offset="1" stop-color="#D1D1D1" stop-opacity="0"/>
</linearGradient>
<linearGradient id="paint20_linear_51_376" x1="211.108" y1="83.6898" x2="215.764" y2="83.6898" gradientUnits="userSpaceOnUse">
<stop stop-color="#D1D1D1"/>
<stop offset="1" stop-color="#D1D1D1" stop-opacity="0"/>
</linearGradient>
<linearGradient id="paint21_linear_51_376" x1="210.487" y1="84.1086" x2="210.487" y2="86.2609" gradientUnits="userSpaceOnUse">
<stop stop-color="#D1D1D1"/>
<stop offset="1" stop-color="#D1D1D1" stop-opacity="0"/>
</linearGradient>
<linearGradient id="paint22_linear_51_376" x1="204.468" y1="84.2244" x2="204.468" y2="87.7837" gradientUnits="userSpaceOnUse">
<stop stop-color="#D1D1D1"/>
<stop offset="1" stop-color="#D1D1D1" stop-opacity="0"/>
</linearGradient>
<linearGradient id="paint23_linear_51_376" x1="234.709" y1="59.6123" x2="237.543" y2="59.6123" gradientUnits="userSpaceOnUse">
<stop stop-color="#D1D1D1"/>
<stop offset="1" stop-color="#D1D1D1" stop-opacity="0"/>
</linearGradient>
<linearGradient id="paint24_linear_51_376" x1="228.886" y1="71.651" x2="230.77" y2="71.651" gradientUnits="userSpaceOnUse">
<stop stop-color="#D1D1D1"/>
<stop offset="1" stop-color="#D1D1D1" stop-opacity="0"/>
</linearGradient>
<linearGradient id="paint25_linear_51_376" x1="17.9131" y1="47.4285" x2="17.9131" y2="45.9833" gradientUnits="userSpaceOnUse">
<stop stop-color="#D1D1D1"/>
<stop offset="1" stop-color="#D1D1D1" stop-opacity="0"/>
</linearGradient>
<linearGradient id="paint26_linear_51_376" x1="234.709" y1="53.5929" x2="239.209" y2="53.5929" gradientUnits="userSpaceOnUse">
<stop stop-color="#D1D1D1"/>
<stop offset="1" stop-color="#D1D1D1" stop-opacity="0"/>
</linearGradient>
<linearGradient id="paint27_linear_51_376" x1="234.564" y1="60.0524" x2="234.564" y2="65.0443" gradientUnits="userSpaceOnUse">
<stop stop-color="#D1D1D1"/>
<stop offset="1" stop-color="#D1D1D1" stop-opacity="0"/>
</linearGradient>
<linearGradient id="paint28_linear_51_376" x1="229.063" y1="65.6318" x2="233.938" y2="65.6318" gradientUnits="userSpaceOnUse">
<stop stop-color="#D1D1D1"/>
<stop offset="1" stop-color="#D1D1D1" stop-opacity="0"/>
</linearGradient>
<linearGradient id="paint29_linear_51_376" x1="192.429" y1="84.2244" x2="192.429" y2="88.7511" gradientUnits="userSpaceOnUse">
<stop stop-color="#D1D1D1"/>
<stop offset="1" stop-color="#D1D1D1" stop-opacity="0"/>
</linearGradient>
<linearGradient id="paint30_linear_51_376" x1="96.1419" y1="96.1869" x2="96.1419" y2="101.056" gradientUnits="userSpaceOnUse">
<stop stop-color="#D1D1D1"/>
<stop offset="1" stop-color="#D1D1D1" stop-opacity="0"/>
</linearGradient>
<linearGradient id="paint31_linear_51_376" x1="210.632" y1="5.43824" x2="216.314" y2="5.43824" gradientUnits="userSpaceOnUse">
<stop stop-color="#D1D1D1"/>
<stop offset="1" stop-color="#D1D1D1" stop-opacity="0"/>
</linearGradient>
<linearGradient id="paint32_linear_51_376" x1="180.39" y1="5.29324" x2="180.39" y2="2.45776" gradientUnits="userSpaceOnUse">
<stop stop-color="#D1D1D1"/>
<stop offset="1" stop-color="#D1D1D1" stop-opacity="0"/>
</linearGradient>
<linearGradient id="paint33_linear_51_376" x1="180.245" y1="5.43824" x2="174.588" y2="5.43824" gradientUnits="userSpaceOnUse">
<stop stop-color="#D1D1D1"/>
<stop offset="1" stop-color="#D1D1D1" stop-opacity="0"/>
</linearGradient>
<linearGradient id="paint34_linear_51_376" x1="168.351" y1="11.3124" x2="168.351" y2="8.95279" gradientUnits="userSpaceOnUse">
<stop stop-color="#D1D1D1"/>
<stop offset="1" stop-color="#D1D1D1" stop-opacity="0"/>
</linearGradient>
<linearGradient id="paint35_linear_51_376" x1="204.468" y1="5.29322" x2="204.468" y2="0.793396" gradientUnits="userSpaceOnUse">
<stop stop-color="#D1D1D1"/>
<stop offset="1" stop-color="#D1D1D1" stop-opacity="0"/>
</linearGradient>
<linearGradient id="paint36_linear_51_376" x1="198.448" y1="5.29324" x2="198.448" y2="0.00244141" gradientUnits="userSpaceOnUse">
<stop stop-color="#D1D1D1"/>
<stop offset="1" stop-color="#D1D1D1" stop-opacity="0"/>
</linearGradient>
<linearGradient id="paint37_linear_51_376" x1="23.9325" y1="47.4285" x2="23.9325" y2="42.649" gradientUnits="userSpaceOnUse">
<stop stop-color="#D1D1D1"/>
<stop offset="1" stop-color="#D1D1D1" stop-opacity="0"/>
</linearGradient>
<linearGradient id="paint38_linear_51_376" x1="192.429" y1="5.29322" x2="192.429" y2="0" gradientUnits="userSpaceOnUse">
<stop stop-color="#D1D1D1"/>
<stop offset="1" stop-color="#D1D1D1" stop-opacity="0"/>
</linearGradient>
<linearGradient id="paint39_linear_51_376" x1="174.371" y1="11.3124" x2="174.371" y2="5.64679" gradientUnits="userSpaceOnUse">
<stop stop-color="#D1D1D1"/>
<stop offset="1" stop-color="#D1D1D1" stop-opacity="0"/>
</linearGradient>
<linearGradient id="paint40_linear_51_376" x1="156.313" y1="29.3705" x2="156.313" y2="23.6686" gradientUnits="userSpaceOnUse">
<stop stop-color="#D1D1D1"/>
<stop offset="1" stop-color="#D1D1D1" stop-opacity="0"/>
</linearGradient>
<linearGradient id="paint41_linear_51_376" x1="156.168" y1="29.5154" x2="153.324" y2="29.5154" gradientUnits="userSpaceOnUse">
<stop stop-color="#D1D1D1"/>
<stop offset="1" stop-color="#D1D1D1" stop-opacity="0"/>
</linearGradient>
<linearGradient id="paint42_linear_51_376" x1="162.187" y1="23.4963" x2="156.488" y2="23.4963" gradientUnits="userSpaceOnUse">
<stop stop-color="#D1D1D1"/>
<stop offset="1" stop-color="#D1D1D1" stop-opacity="0"/>
</linearGradient>
<linearGradient id="paint43_linear_51_376" x1="168.206" y1="11.4574" x2="165.316" y2="11.4574" gradientUnits="userSpaceOnUse">
<stop stop-color="#D1D1D1"/>
<stop offset="1" stop-color="#D1D1D1" stop-opacity="0"/>
</linearGradient>
<linearGradient id="paint44_linear_51_376" x1="150.339" y1="35.3899" x2="150.339" y2="29.726" gradientUnits="userSpaceOnUse">
<stop stop-color="#D1D1D1"/>
<stop offset="1" stop-color="#D1D1D1" stop-opacity="0"/>
</linearGradient>
<linearGradient id="paint45_linear_51_376" x1="162.332" y1="17.3318" x2="162.332" y2="14.4398" gradientUnits="userSpaceOnUse">
<stop stop-color="#D1D1D1"/>
<stop offset="1" stop-color="#D1D1D1" stop-opacity="0"/>
</linearGradient>
<linearGradient id="paint46_linear_51_376" x1="162.187" y1="17.4768" x2="159.827" y2="17.4768" gradientUnits="userSpaceOnUse">
<stop stop-color="#D1D1D1"/>
<stop offset="1" stop-color="#D1D1D1" stop-opacity="0"/>
</linearGradient>
<linearGradient id="paint47_linear_51_376" x1="234.564" y1="29.3705" x2="234.564" y2="23.6831" gradientUnits="userSpaceOnUse">
<stop stop-color="#D1D1D1"/>
<stop offset="1" stop-color="#D1D1D1" stop-opacity="0"/>
</linearGradient>
<linearGradient id="paint48_linear_51_376" x1="234.709" y1="41.5543" x2="240" y2="41.5543" gradientUnits="userSpaceOnUse">
<stop stop-color="#D1D1D1"/>
<stop offset="1" stop-color="#D1D1D1" stop-opacity="0"/>
</linearGradient>
<linearGradient id="paint49_linear_51_376" x1="234.709" y1="29.5155" x2="237.543" y2="29.5155" gradientUnits="userSpaceOnUse">
<stop stop-color="#D1D1D1"/>
<stop offset="1" stop-color="#D1D1D1" stop-opacity="0"/>
</linearGradient>
<linearGradient id="paint50_linear_51_376" x1="234.709" y1="35.5349" x2="239.209" y2="35.5349" gradientUnits="userSpaceOnUse">
<stop stop-color="#D1D1D1"/>
<stop offset="1" stop-color="#D1D1D1" stop-opacity="0"/>
</linearGradient>
<linearGradient id="paint51_linear_51_376" x1="234.709" y1="47.5737" x2="240" y2="47.5737" gradientUnits="userSpaceOnUse">
<stop stop-color="#D1D1D1"/>
<stop offset="1" stop-color="#D1D1D1" stop-opacity="0"/>
</linearGradient>
<linearGradient id="paint52_linear_51_376" x1="210.487" y1="5.29322" x2="210.487" y2="2.45944" gradientUnits="userSpaceOnUse">
<stop stop-color="#D1D1D1"/>
<stop offset="1" stop-color="#D1D1D1" stop-opacity="0"/>
</linearGradient>
<linearGradient id="paint53_linear_51_376" x1="222.526" y1="11.3124" x2="222.526" y2="8.95157" gradientUnits="userSpaceOnUse">
<stop stop-color="#D1D1D1"/>
<stop offset="1" stop-color="#D1D1D1" stop-opacity="0"/>
</linearGradient>
<linearGradient id="paint54_linear_51_376" x1="216.506" y1="11.3124" x2="216.506" y2="5.62744" gradientUnits="userSpaceOnUse">
<stop stop-color="#D1D1D1"/>
<stop offset="1" stop-color="#D1D1D1" stop-opacity="0"/>
</linearGradient>
<linearGradient id="paint55_linear_51_376" x1="222.671" y1="11.4574" x2="225.564" y2="11.4574" gradientUnits="userSpaceOnUse">
<stop stop-color="#D1D1D1"/>
<stop offset="1" stop-color="#D1D1D1" stop-opacity="0"/>
</linearGradient>
<linearGradient id="paint56_linear_51_376" x1="228.69" y1="17.4768" x2="231.051" y2="17.4768" gradientUnits="userSpaceOnUse">
<stop stop-color="#D1D1D1"/>
<stop offset="1" stop-color="#D1D1D1" stop-opacity="0"/>
</linearGradient>
<linearGradient id="paint57_linear_51_376" x1="228.69" y1="23.4963" x2="234.397" y2="23.4963" gradientUnits="userSpaceOnUse">
<stop stop-color="#D1D1D1"/>
<stop offset="1" stop-color="#D1D1D1" stop-opacity="0"/>
</linearGradient>
<linearGradient id="paint58_linear_51_376" x1="228.545" y1="17.3319" x2="228.545" y2="14.4381" gradientUnits="userSpaceOnUse">
<stop stop-color="#D1D1D1"/>
<stop offset="1" stop-color="#D1D1D1" stop-opacity="0"/>
</linearGradient>
<linearGradient id="paint59_linear_51_376" x1="186.409" y1="5.29322" x2="186.409" y2="0.792419" gradientUnits="userSpaceOnUse">
<stop stop-color="#D1D1D1"/>
<stop offset="1" stop-color="#D1D1D1" stop-opacity="0"/>
</linearGradient>
<linearGradient id="paint60_linear_51_376" x1="60.0486" y1="23.3513" x2="60.0486" y2="22.6439" gradientUnits="userSpaceOnUse">
<stop stop-color="#D1D1D1"/>
<stop offset="1" stop-color="#D1D1D1" stop-opacity="0"/>
</linearGradient>
<linearGradient id="paint61_linear_51_376" x1="59.9036" y1="23.4963" x2="58.3932" y2="23.4963" gradientUnits="userSpaceOnUse">
<stop stop-color="#D1D1D1"/>
<stop offset="1" stop-color="#D1D1D1" stop-opacity="0"/>
</linearGradient>
<linearGradient id="paint62_linear_51_376" x1="54.0294" y1="29.3705" x2="54.0294" y2="25.9782" gradientUnits="userSpaceOnUse">
<stop stop-color="#D1D1D1"/>
<stop offset="1" stop-color="#D1D1D1" stop-opacity="0"/>
</linearGradient>
<linearGradient id="paint63_linear_51_376" x1="71.9424" y1="17.4768" x2="69.2601" y2="17.4768" gradientUnits="userSpaceOnUse">
<stop stop-color="#D1D1D1"/>
<stop offset="1" stop-color="#D1D1D1" stop-opacity="0"/>
</linearGradient>
<linearGradient id="paint64_linear_51_376" x1="78.1067" y1="17.3319" x2="78.1067" y2="13.4367" gradientUnits="userSpaceOnUse">
<stop stop-color="#D1D1D1"/>
<stop offset="1" stop-color="#D1D1D1" stop-opacity="0"/>
</linearGradient>
<linearGradient id="paint65_linear_51_376" x1="72.0874" y1="17.3318" x2="72.0874" y2="15.9756" gradientUnits="userSpaceOnUse">
<stop stop-color="#D1D1D1"/>
<stop offset="1" stop-color="#D1D1D1" stop-opacity="0"/>
</linearGradient>
<linearGradient id="paint66_linear_51_376" x1="53.8844" y1="29.5155" x2="48.1876" y2="29.5155" gradientUnits="userSpaceOnUse">
<stop stop-color="#D1D1D1"/>
<stop offset="1" stop-color="#D1D1D1" stop-opacity="0"/>
</linearGradient>
<linearGradient id="paint67_linear_51_376" x1="66.068" y1="23.3513" x2="66.068" y2="19.3099" gradientUnits="userSpaceOnUse">
<stop stop-color="#D1D1D1"/>
<stop offset="1" stop-color="#D1D1D1" stop-opacity="0"/>
</linearGradient>
<linearGradient id="paint68_linear_51_376" x1="29.9519" y1="41.4093" x2="29.9519" y2="39.315" gradientUnits="userSpaceOnUse">
<stop stop-color="#D1D1D1"/>
<stop offset="1" stop-color="#D1D1D1" stop-opacity="0"/>
</linearGradient>
<linearGradient id="paint69_linear_51_376" x1="35.9713" y1="41.4093" x2="35.9713" y2="35.9808" gradientUnits="userSpaceOnUse">
<stop stop-color="#D1D1D1"/>
<stop offset="1" stop-color="#D1D1D1" stop-opacity="0"/>
</linearGradient>
<linearGradient id="paint70_linear_51_376" x1="29.8069" y1="41.5543" x2="25.7924" y2="41.5543" gradientUnits="userSpaceOnUse">
<stop stop-color="#D1D1D1"/>
<stop offset="1" stop-color="#D1D1D1" stop-opacity="0"/>
</linearGradient>
<linearGradient id="paint71_linear_51_376" x1="41.9905" y1="35.3899" x2="41.9905" y2="32.6465" gradientUnits="userSpaceOnUse">
<stop stop-color="#D1D1D1"/>
<stop offset="1" stop-color="#D1D1D1" stop-opacity="0"/>
</linearGradient>
<linearGradient id="paint72_linear_51_376" x1="41.8456" y1="35.5349" x2="36.6594" y2="35.5349" gradientUnits="userSpaceOnUse">
<stop stop-color="#D1D1D1"/>
<stop offset="1" stop-color="#D1D1D1" stop-opacity="0"/>
</linearGradient>
<linearGradient id="paint73_linear_51_376" x1="144.32" y1="35.3899" x2="144.32" y2="29.726" gradientUnits="userSpaceOnUse">
<stop stop-color="#D1D1D1"/>
<stop offset="1" stop-color="#D1D1D1" stop-opacity="0"/>
</linearGradient>
<linearGradient id="paint74_linear_51_376" x1="48.01" y1="35.3899" x2="48.01" y2="29.7066" gradientUnits="userSpaceOnUse">
<stop stop-color="#D1D1D1"/>
<stop offset="1" stop-color="#D1D1D1" stop-opacity="0"/>
</linearGradient>
<linearGradient id="paint75_linear_51_376" x1="120.242" y1="35.3899" x2="120.242" y2="29.726" gradientUnits="userSpaceOnUse">
<stop stop-color="#D1D1D1"/>
<stop offset="1" stop-color="#D1D1D1" stop-opacity="0"/>
</linearGradient>
<linearGradient id="paint76_linear_51_376" x1="108.203" y1="35.3899" x2="108.203" y2="29.726" gradientUnits="userSpaceOnUse">
<stop stop-color="#D1D1D1"/>
<stop offset="1" stop-color="#D1D1D1" stop-opacity="0"/>
</linearGradient>
<linearGradient id="paint77_linear_51_376" x1="114.223" y1="35.3899" x2="114.223" y2="29.726" gradientUnits="userSpaceOnUse">
<stop stop-color="#D1D1D1"/>
<stop offset="1" stop-color="#D1D1D1" stop-opacity="0"/>
</linearGradient>
<linearGradient id="paint78_linear_51_376" x1="84.1261" y1="17.3319" x2="84.1261" y2="13.4367" gradientUnits="userSpaceOnUse">
<stop stop-color="#D1D1D1"/>
<stop offset="1" stop-color="#D1D1D1" stop-opacity="0"/>
</linearGradient>
<linearGradient id="paint79_linear_51_376" x1="132.281" y1="35.3899" x2="132.281" y2="29.726" gradientUnits="userSpaceOnUse">
<stop stop-color="#D1D1D1"/>
<stop offset="1" stop-color="#D1D1D1" stop-opacity="0"/>
</linearGradient>
<linearGradient id="paint80_linear_51_376" x1="138.3" y1="35.3899" x2="138.3" y2="29.726" gradientUnits="userSpaceOnUse">
<stop stop-color="#D1D1D1"/>
<stop offset="1" stop-color="#D1D1D1" stop-opacity="0"/>
</linearGradient>
<linearGradient id="paint81_linear_51_376" x1="126.262" y1="35.3899" x2="126.262" y2="29.726" gradientUnits="userSpaceOnUse">
<stop stop-color="#D1D1D1"/>
<stop offset="1" stop-color="#D1D1D1" stop-opacity="0"/>
</linearGradient>
<linearGradient id="paint82_linear_51_376" x1="102.184" y1="35.3899" x2="102.184" y2="29.726" gradientUnits="userSpaceOnUse">
<stop stop-color="#D1D1D1"/>
<stop offset="1" stop-color="#D1D1D1" stop-opacity="0"/>
</linearGradient>
<linearGradient id="paint83_linear_51_376" x1="96.1649" y1="35.3899" x2="96.1649" y2="29.726" gradientUnits="userSpaceOnUse">
<stop stop-color="#D1D1D1"/>
<stop offset="1" stop-color="#D1D1D1" stop-opacity="0"/>
</linearGradient>
<linearGradient id="paint84_linear_51_376" x1="125.643" y1="139.01" x2="141.099" y2="118.463" gradientUnits="userSpaceOnUse">
<stop stop-color="white" stop-opacity="0.1"/>
<stop offset="1" stop-color="white" stop-opacity="0.4"/>
</linearGradient>
<linearGradient id="paint85_linear_51_376" x1="52.6339" y1="83.7498" x2="76.8835" y2="83.7498" gradientUnits="userSpaceOnUse">
<stop stop-color="white" stop-opacity="0.1"/>
<stop offset="1" stop-color="white" stop-opacity="0.4"/>
</linearGradient>
<linearGradient id="paint86_linear_51_376" x1="121.818" y1="37.2599" x2="121.818" y2="36.9697" gradientUnits="userSpaceOnUse">
<stop stop-color="#D1D1D1"/>
<stop offset="1" stop-color="#D1D1D1" stop-opacity="0"/>
</linearGradient>
<linearGradient id="paint87_linear_51_376" x1="200.98" y1="39.0216" x2="220.156" y2="19.8459" gradientUnits="userSpaceOnUse">
<stop stop-color="#0094A8"/>
<stop offset="1" stop-color="#006D88"/>
</linearGradient>
<linearGradient id="paint88_linear_51_376" x1="172.541" y1="67.461" x2="195.52" y2="44.4821" gradientUnits="userSpaceOnUse">
<stop stop-color="#F14200"/>
<stop offset="1" stop-color="#F67F28"/>
</linearGradient>
<linearGradient id="paint89_linear_51_376" x1="201.433" y1="38.5692" x2="219.875" y2="20.1267" gradientUnits="userSpaceOnUse">
<stop stop-color="#005D7D"/>
<stop offset="1" stop-color="#005E7D"/>
</linearGradient>
<linearGradient id="paint90_linear_51_376" x1="195.656" y1="44.346" x2="176.399" y2="63.6035" gradientUnits="userSpaceOnUse">
<stop stop-color="#F23E00"/>
<stop offset="1" stop-color="#F13900"/>
</linearGradient>
<linearGradient id="paint91_linear_51_376" x1="228.128" y1="31.9186" x2="204.126" y2="9.33558" gradientUnits="userSpaceOnUse">
<stop stop-color="white" stop-opacity="0.1"/>
<stop offset="1" stop-color="white" stop-opacity="0.4"/>
</linearGradient>
<linearGradient id="paint92_linear_51_376" x1="174.574" y1="27.7537" x2="190.679" y2="17.8814" gradientUnits="userSpaceOnUse">
<stop stop-color="white" stop-opacity="0.1"/>
<stop offset="1" stop-color="white" stop-opacity="0.4"/>
</linearGradient>
<linearGradient id="paint93_linear_51_376" x1="216.325" y1="61.725" x2="221.014" y2="48.891" gradientUnits="userSpaceOnUse">
<stop stop-color="white" stop-opacity="0.1"/>
<stop offset="1" stop-color="white" stop-opacity="0.4"/>
</linearGradient>
<linearGradient id="paint94_linear_51_376" x1="210.923" y1="43.9565" x2="196.229" y2="43.9565" gradientUnits="userSpaceOnUse">
<stop stop-color="white" stop-opacity="0.1"/>
<stop offset="1" stop-color="white" stop-opacity="0.4"/>
</linearGradient>
<linearGradient id="paint95_linear_51_376" x1="210.923" y1="46.9807" x2="196.229" y2="46.9807" gradientUnits="userSpaceOnUse">
<stop stop-color="white" stop-opacity="0.1"/>
<stop offset="1" stop-color="white" stop-opacity="0.4"/>
</linearGradient>
<linearGradient id="paint96_linear_51_376" x1="193.022" y1="32.973" x2="193.022" y2="37.649" gradientUnits="userSpaceOnUse">
<stop stop-color="white" stop-opacity="0.1"/>
<stop offset="1" stop-color="white" stop-opacity="0.4"/>
</linearGradient>
<linearGradient id="paint97_linear_51_376" x1="81" y1="50.5" x2="188" y2="112.5" gradientUnits="userSpaceOnUse">
<stop stop-color="#B51E74"/>
<stop offset="1" stop-color="#E85D24"/>
</linearGradient>
<linearGradient id="paint98_linear_51_376" x1="159.69" y1="103.081" x2="159.69" y2="124.656" gradientUnits="userSpaceOnUse">
<stop stop-color="#D94B3C"/>
<stop offset="1" stop-color="#E85D24"/>
</linearGradient>
<linearGradient id="paint99_linear_51_376" x1="32.9616" y1="55.0239" x2="32.9616" y2="72.8076" gradientUnits="userSpaceOnUse">
<stop stop-color="#61C0CD"/>
<stop offset="1" stop-color="#27A9BB"/>
</linearGradient>
<linearGradient id="paint100_linear_51_376" x1="74.3431" y1="50.0847" x2="71.9368" y2="36.757" gradientUnits="userSpaceOnUse">
<stop stop-color="white" stop-opacity="0.1"/>
<stop offset="1" stop-color="white" stop-opacity="0.4"/>
</linearGradient>
<linearGradient id="paint101_linear_51_376" x1="19.1939" y1="68.4992" x2="18.0832" y2="66.031" gradientUnits="userSpaceOnUse">
<stop stop-color="white" stop-opacity="0.1"/>
<stop offset="1" stop-color="white" stop-opacity="0.4"/>
</linearGradient>
<linearGradient id="paint102_linear_51_376" x1="55.3402" y1="56.3999" x2="53.9521" y2="45.9877" gradientUnits="userSpaceOnUse">
<stop stop-color="white" stop-opacity="0.1"/>
<stop offset="1" stop-color="white" stop-opacity="0.4"/>
</linearGradient>
<linearGradient id="paint103_linear_51_376" x1="36.6459" y1="62.2794" x2="35.9516" y2="56.541" gradientUnits="userSpaceOnUse">
<stop stop-color="white" stop-opacity="0.1"/>
<stop offset="1" stop-color="white" stop-opacity="0.4"/>
</linearGradient>
</defs>
</svg>
